<?xml version="1.0" standalone="no"?>
<svg version="1.1" id="Layer_1" xmlns="http://www.w3.org/2000/svg" xmlns:xlink="http://www.w3.org/1999/xlink" x="0px" y="0px" width="595.28px" height="595.28px" viewBox="0 0 595.28 595.28" enable-background="new 0 0 595.28 595.28" xml:space="preserve">
<path id="color_x5F_7" fill="#ef424f" d="M311.852,257.585c0-3.241,2.629-5.869,5.869-5.869c3.241,0,5.869,2.628,5.869,5.869
	s-2.628,5.869-5.869,5.869C314.48,263.454,311.852,260.826,311.852,257.585z M339.892,263.454c3.241,0,5.868-2.628,5.868-5.869
	s-2.627-5.869-5.868-5.869s-5.869,2.628-5.869,5.869S336.65,263.454,339.892,263.454z M448.138,263.454
	c3.241,0,5.869-2.628,5.869-5.869s-2.628-5.869-5.869-5.869s-5.869,2.628-5.869,5.869S444.896,263.454,448.138,263.454z
	 M470.308,263.454c3.241,0,5.869-2.628,5.869-5.869s-2.628-5.869-5.869-5.869s-5.869,2.628-5.869,5.869
	S467.066,263.454,470.308,263.454z"></path>
<path id="color_x5F_6" fill="#2CB492" d="M175.667,381.054v7.473c0,0.645-0.521,1.166-1.165,1.166c-0.644,0-1.166-0.521-1.166-1.166
	v-7.473c0-0.644,0.522-1.166,1.166-1.166C175.146,379.888,175.667,380.41,175.667,381.054z M174.502,406.974
	c-0.644,0-1.166,0.521-1.166,1.166v7.473c0,0.645,0.522,1.166,1.166,1.166c0.645,0,1.165-0.521,1.165-1.166v-7.473
	C175.667,407.495,175.146,406.974,174.502,406.974z M165.861,398.333c0-0.645-0.522-1.166-1.166-1.166h-7.472
	c-0.645,0-1.167,0.521-1.167,1.166s0.522,1.166,1.167,1.166h7.472C165.339,399.499,165.861,398.978,165.861,398.333z
	 M191.781,397.167h-7.473c-0.644,0-1.166,0.521-1.166,1.166s0.522,1.166,1.166,1.166h7.473c0.645,0,1.166-0.521,1.166-1.166
	S192.426,397.167,191.781,397.167z M163.107,385.29c-0.455-0.456-1.193-0.456-1.649,0c-0.455,0.455-0.455,1.194,0,1.649l5.285,5.284
	c0.228,0.229,0.525,0.342,0.824,0.342s0.597-0.113,0.825-0.342c0.456-0.456,0.456-1.193,0-1.649L163.107,385.29z M182.262,404.442
	c-0.457-0.455-1.195-0.455-1.65,0c-0.455,0.456-0.455,1.194,0,1.649l5.284,5.284c0.228,0.229,0.526,0.342,0.824,0.342
	c0.299,0,0.598-0.113,0.825-0.342c0.456-0.455,0.456-1.193,0-1.649L182.262,404.442z M166.743,404.442l-5.285,5.284
	c-0.455,0.456-0.455,1.194,0,1.649c0.229,0.229,0.527,0.342,0.826,0.342s0.597-0.113,0.823-0.342l5.285-5.284
	c0.456-0.455,0.456-1.193,0-1.649C167.938,403.987,167.198,403.987,166.743,404.442z M181.437,392.565
	c0.298,0,0.597-0.113,0.825-0.342l5.283-5.284c0.456-0.455,0.456-1.194,0-1.649c-0.455-0.456-1.194-0.456-1.649,0l-5.284,5.284
	c-0.455,0.456-0.455,1.193,0,1.649C180.839,392.452,181.138,392.565,181.437,392.565z M462.922,171.433
	c0.645,0,1.165-0.521,1.165-1.166v-7.473c0-0.644-0.521-1.166-1.165-1.166s-1.166,0.522-1.166,1.166v7.473
	C461.756,170.911,462.277,171.433,462.922,171.433z M462.922,198.519c0.645,0,1.165-0.521,1.165-1.166v-7.473
	c0-0.645-0.521-1.167-1.165-1.167s-1.166,0.522-1.166,1.167v7.473C461.756,197.997,462.277,198.519,462.922,198.519z
	 M445.643,181.239h7.473c0.644,0,1.166-0.521,1.166-1.166s-0.522-1.166-1.166-1.166h-7.473c-0.644,0-1.166,0.521-1.166,1.166
	S444.999,181.239,445.643,181.239z M471.563,180.073c0,0.645,0.522,1.166,1.166,1.166h7.473c0.645,0,1.166-0.521,1.166-1.166
	s-0.521-1.166-1.166-1.166h-7.473C472.085,178.907,471.563,179.429,471.563,180.073z M455.163,173.964
	c0.228,0.229,0.525,0.342,0.824,0.342c0.298,0,0.597-0.113,0.825-0.342c0.455-0.457,0.455-1.193,0-1.649l-5.285-5.284
	c-0.455-0.456-1.193-0.456-1.649,0c-0.455,0.455-0.455,1.194,0,1.649L455.163,173.964z M474.315,193.116
	c0.228,0.229,0.526,0.342,0.824,0.342c0.299,0,0.598-0.113,0.825-0.342c0.456-0.455,0.456-1.193,0-1.649l-5.283-5.284
	c-0.457-0.455-1.195-0.455-1.65,0c-0.455,0.456-0.455,1.194,0,1.649L474.315,193.116z M455.163,186.183l-5.285,5.284
	c-0.455,0.456-0.455,1.194,0,1.649c0.229,0.229,0.526,0.342,0.825,0.342c0.3,0,0.598-0.113,0.824-0.342l5.285-5.284
	c0.455-0.455,0.455-1.193,0-1.649C456.357,185.728,455.618,185.728,455.163,186.183z M469.856,174.306
	c0.298,0,0.597-0.113,0.825-0.342l5.283-5.284c0.456-0.455,0.456-1.194,0-1.649c-0.455-0.456-1.194-0.456-1.649,0l-5.284,5.284
	c-0.455,0.456-0.455,1.192,0,1.649C469.259,174.192,469.557,174.306,469.856,174.306z M127.641,168.601
	c0.645,0,1.166-0.521,1.166-1.166v-7.473c0-0.643-0.521-1.165-1.166-1.165c-0.644,0-1.166,0.522-1.166,1.165v7.473
	C126.475,168.079,126.997,168.601,127.641,168.601z M127.641,195.687c0.645,0,1.166-0.521,1.166-1.166v-7.473
	c0-0.645-0.521-1.166-1.166-1.166c-0.644,0-1.166,0.521-1.166,1.166v7.473C126.475,195.165,126.997,195.687,127.641,195.687z
	 M110.362,178.407h7.472c0.644,0,1.166-0.521,1.166-1.166c0-0.644-0.522-1.166-1.166-1.166h-7.472c-0.644,0-1.167,0.522-1.167,1.166
	C109.195,177.886,109.719,178.407,110.362,178.407z M136.281,177.241c0,0.645,0.522,1.166,1.166,1.166h7.473
	c0.645,0,1.166-0.521,1.166-1.166c0-0.644-0.521-1.166-1.166-1.166h-7.473C136.804,176.075,136.281,176.598,136.281,177.241z
	 M119.882,171.133c0.228,0.228,0.525,0.341,0.825,0.341c0.298,0,0.596-0.113,0.824-0.341c0.456-0.457,0.456-1.194,0-1.65
	l-5.285-5.284c-0.455-0.455-1.193-0.455-1.648,0s-0.455,1.194,0,1.649L119.882,171.133z M139.034,190.285
	c0.228,0.228,0.526,0.341,0.825,0.341c0.298,0,0.597-0.113,0.824-0.341c0.456-0.456,0.456-1.194,0-1.65l-5.283-5.284
	c-0.457-0.455-1.194-0.455-1.65,0c-0.455,0.457-0.455,1.194,0,1.649L139.034,190.285z M119.882,183.351l-5.284,5.284
	c-0.455,0.456-0.455,1.194,0,1.65c0.228,0.228,0.526,0.341,0.825,0.341s0.597-0.113,0.823-0.341l5.285-5.285
	c0.456-0.455,0.456-1.192,0-1.649C121.076,182.896,120.337,182.896,119.882,183.351z M134.575,171.474
	c0.298,0,0.597-0.113,0.825-0.341l5.283-5.285c0.456-0.455,0.456-1.194,0-1.649c-0.455-0.455-1.194-0.455-1.649,0l-5.284,5.284
	c-0.455,0.456-0.455,1.193,0,1.65C133.979,171.36,134.276,171.474,134.575,171.474z"></path>
<path id="color_x5F_5" fill="#FFD2BB" d="M422.281,238.725c0.006-0.067,0.013-0.134,0.021-0.202c0.114-0.936,0.027-1.84-0.212-2.662
	l-0.039-0.007c-0.082-0.01-0.488-0.048-0.98-0.089c-0.763-0.063-1.729-0.133-2.039-0.123c-0.054,0.002-0.094,0.006-0.104,0.014
	c-0.007,0.005-0.001,0.012,0.018,0.02c0.004,0.011,0.004,0.021,0.007,0.031c0.095,0.299,0.159,0.597,0.204,0.89
	c0.01,0.058,0.021,0.115,0.029,0.173c0.002,0.016,0.006,0.033,0.008,0.049c0.033,0.275,0.038,0.543,0.027,0.804
	c-0.004,0.081-0.017,0.158-0.024,0.237c-0.021,0.209-0.056,0.41-0.105,0.604c-0.021,0.079-0.04,0.158-0.065,0.235
	c-0.082,0.251-0.183,0.492-0.318,0.709c-0.047-0.182-0.12-0.352-0.203-0.516c-0.014-0.026-0.019-0.058-0.033-0.084
	c-0.104-0.186-0.23-0.355-0.384-0.504c-0.314-0.305-0.757-0.49-1.2-0.516c-0.381-0.021-0.762,0.074-1.065,0.334
	c-0.004,0.003-0.006,0.008-0.01,0.011c-0.103,0.091-0.178,0.194-0.238,0.304c-0.013,0.023-0.028,0.047-0.039,0.072
	c-0.046,0.102-0.071,0.209-0.086,0.318l0.013,0.246c0.242,0.377,0.44,0.768,0.619,1.165c0.033,0.026,0.059,0.061,0.093,0.085
	c0.051,0.039,0.107,0.07,0.161,0.104c0.152,0.097,0.313,0.181,0.485,0.237c-0.001,0-0.002,0-0.003,0
	c0.001,0,0.001,0.001,0.002,0.001c-0.057,0.01-0.116,0.009-0.174,0.015c-0.117,0.016-0.235,0.03-0.357,0.033
	c0.087,0.227,0.139,0.461,0.205,0.693c0.271,0.725,0.686,1.773,1.281,3.136l0.128-0.702c0.826,0.413,1.616,0.688,2.258,0.765
	c2.046,0.248,1.997-1.553,2.024-3.829c0.22-0.016,0.416-0.053,0.56-0.112c0.644-0.271,0.025-0.87-0.294-1.631
	C422.402,238.922,422.345,238.819,422.281,238.725z M420.847,239.124c-0.174-0.02-0.295-0.266-0.268-0.553
	c0.028-0.283,0.191-0.5,0.368-0.48c0.174,0.019,0.295,0.266,0.266,0.551C421.186,238.927,421.022,239.144,420.847,239.124z
	 M435.252,288.535c0,0,0.399,0.83,0.435,1.701c0.029,0.719-0.188,1.462-1.083,1.799c-1.374,0.514-2.833,0.349-4.09-0.156
	c-1.519-0.609-2.74-1.711-3.141-2.729c-0.582-0.343-1.2-0.796-1.839-1.333c-0.186-0.158-0.375-0.32-0.563-0.49
	c0.018,0.016,0.037,0.031,0.056,0.047c0.089-0.151,0.17-0.309,0.269-0.457c0.87-1.318,2.009-2.362,3.293-3.137
	c0.122,0.267,0.245,0.54,0.366,0.82c0,0,0.502,0.039,1.176,0.096c1.309,0.106,3.277,0.276,3.571,0.354
	c0.282,0.074,0.538,0.433,0.755,0.896c0.261,0.55,0.47,1.245,0.605,1.777C435.185,288.193,435.252,288.535,435.252,288.535z
	 M511.177,239.675c0.005-0.067,0.013-0.135,0.021-0.202c0.113-0.937,0.027-1.841-0.213-2.663l-0.024-0.004l-0.014-0.002
	c-0.082-0.01-0.488-0.047-0.979-0.088c-0.764-0.064-1.729-0.135-2.04-0.123c-0.054,0.002-0.094,0.005-0.104,0.013
	c-0.006,0.005,0,0.012,0.019,0.02c0.003,0.011,0.004,0.021,0.007,0.031c0.095,0.301,0.16,0.601,0.205,0.895
	c0.009,0.055,0.021,0.11,0.027,0.165c0.002,0.018,0.007,0.035,0.009,0.052c0.033,0.276,0.038,0.544,0.026,0.806
	c-0.003,0.08-0.016,0.154-0.023,0.231c-0.021,0.21-0.055,0.413-0.105,0.609c-0.021,0.079-0.039,0.157-0.064,0.233
	c-0.083,0.252-0.184,0.492-0.319,0.71c-0.11-0.421-0.313-0.808-0.62-1.104c-0.584-0.565-1.607-0.744-2.266-0.182
	c-0.004,0.003-0.006,0.007-0.01,0.011c-0.104,0.09-0.179,0.194-0.238,0.304c-0.013,0.024-0.028,0.046-0.039,0.071
	c-0.048,0.105-0.076,0.217-0.089,0.332c-0.005,0.039-0.006,0.078-0.007,0.118c0,0.032,0.008,0.065,0.01,0.099
	c0.004,0.005,0.009,0.01,0.013,0.016c0.241,0.377,0.44,0.769,0.619,1.166c0.032,0.026,0.059,0.061,0.093,0.084
	c0.069,0.055,0.146,0.099,0.221,0.145c0.136,0.079,0.276,0.149,0.426,0.198c-0.001,0-0.002,0-0.003,0
	c0.001,0.001,0.001,0.001,0.001,0.001c-0.109,0.02-0.225,0.022-0.338,0.029c-0.064,0.006-0.127,0.017-0.192,0.018
	c0.626,1.646,0.732,3.43,0.31,5.2c-0.197,0.825-1.467,0.476-1.27-0.35c0.337-1.411,0.264-2.802-0.182-4.11
	c-0.031,1.364-0.361,2.725-0.852,4.049c-0.292,0.789-1.564,0.447-1.27-0.35c0.618-1.671,0.992-3.356,0.714-5.056
	c-0.312,1.89-1.059,3.628-2.226,5.233c-0.301,0.414-0.838,0.329-1.103,0.047l-0.045,0.108l6.625,3.374l0.911-5.018
	c0.826,0.412,1.616,0.687,2.258,0.764c2.046,0.248,1.996-1.553,2.024-3.829c0.22-0.016,0.416-0.053,0.56-0.112
	c0.643-0.271,0.025-0.87-0.294-1.631C511.298,239.872,511.24,239.77,511.177,239.675z M509.742,240.074
	c-0.174-0.019-0.295-0.267-0.268-0.552c0.027-0.284,0.191-0.501,0.367-0.481c0.175,0.019,0.296,0.265,0.267,0.551
	C510.081,239.877,509.918,240.093,509.742,240.074z M532.168,280.54c-0.863,1.184-2.172,1.852-3.499,2.123
	c-1.602,0.33-3.229,0.082-4.125-0.547c-0.673,0.035-1.439-0.003-2.268-0.1c-0.243-0.028-0.489-0.06-0.741-0.098
	c0.024,0.004,0.049,0.006,0.073,0.009c-0.01-0.177-0.028-0.353-0.028-0.53c0-1.578,0.374-3.077,1.02-4.431
	c0.248,0.155,0.501,0.315,0.757,0.483c0,0,0.439-0.245,1.034-0.57c1.151-0.633,2.887-1.576,3.175-1.674
	c0.276-0.093,0.687,0.065,1.123,0.332c0.521,0.316,1.079,0.781,1.486,1.15c0.36,0.325,0.606,0.574,0.606,0.574s0.79,0.471,1.3,1.179
	C532.501,279.024,532.73,279.765,532.168,280.54z M153.384,205.835l-0.002-0.014c0.151-0.053,0.313-0.081,0.47-0.121
	C153.694,205.74,153.537,205.782,153.384,205.835z M160.927,215.768c-0.097,2.351-0.608,4.177-2.702,4.538v3.659l-7.904,0.235
	v-6.645c-0.073-0.123-0.152-0.242-0.216-0.371c-0.375-0.761-0.585-1.617-0.585-2.522c0,0.501,0.084,0.978,0.206,1.439
	c0.102,0.016,0.199,0.043,0.3,0.06c0.03-0.068,0.063-0.136,0.102-0.199c0.061-1.244,0.267-3.041,0.967-3.445
	c0.6-0.346,1.188,1.881,1.289,2.285c0.01,0.04,0.017,0.068,0.017,0.068s0.005-0.029,0.012-0.068
	c0.033-0.187,0.125-0.748,0.135-1.196l1.728,0.022c-0.009,0.078-0.023,0.154-0.023,0.234v0.016c0,0.335,0.089,0.646,0.232,0.924
	c0.337,0.652,1.01,1.104,1.796,1.104c0.783,0,1.457-0.451,1.794-1.104c0.144-0.278,0.233-0.589,0.233-0.924v-0.016
	c0-0.063-0.013-0.122-0.019-0.184l1.348,0.018c-0.004,0.056-0.017,0.109-0.017,0.166v0.016
	C159.619,214.743,160.163,215.477,160.927,215.768z M160.926,211.247c0.007,0,0.014,0.001,0.021,0.002v0.718
	c-0.586,0.217-1.039,0.693-1.227,1.292l-1.522-0.02c-0.265-0.813-1.021-1.403-1.919-1.403c-0.884,0-1.627,0.567-1.905,1.354
	l-1.811-0.022c0.043-0.56,0.249-1.362,1.239-2.444c0.581-0.635,0.534-1.631,0.325-2.504c0.677,0.667,1.979,1.638,4.36,2.504
	C160.47,211.442,160.853,211.308,160.926,211.247z M129.548,265.148c-0.957-1.535-0.559-3.51,0.891-4.415
	c0.107-0.066,0.221-0.109,0.333-0.161c1.068-0.492,2.321-0.3,3.255,0.452c0.291,0.234,0.557,0.514,0.768,0.853
	c0.956,1.534,0.557,3.51-0.893,4.412C132.454,267.195,130.504,266.683,129.548,265.148z M189.229,241.167
	c-1.021,1.492-2.99,1.919-4.399,0.954c-0.104-0.071-0.19-0.159-0.282-0.24c-0.878-0.78-1.205-2.004-0.893-3.16
	c0.098-0.362,0.247-0.718,0.473-1.048c1.021-1.489,2.991-1.917,4.4-0.954C189.937,237.684,190.25,239.676,189.229,241.167z
	 M91.782,300.256l1.114-0.005l-1.86,21.406l-0.237,2.735c-0.165-0.173-0.273-0.29-0.273-0.29h-3.812l-0.019,0.186
	c-0.069-0.725-0.153-1.622-0.247-2.626c-0.408-4.403-0.981-10.873-1.137-14.104l-10.613,11.978c-0.03-0.241-0.047-0.396-0.047-0.396
	l-3.061-2.272l-0.124,0.136c2.179-3.604,7.341-12.1,9.305-14.914c0.49-0.701,1.004-1.293,1.531-1.795l4.992-0.021L91.782,300.256z
	 M96.846,224.678c0.007-0.067,0.015-0.135,0.021-0.204c0.123-0.999,0.021-1.964-0.259-2.83c-0.235-0.021-2.411-0.213-3.035-0.213
	c-0.138,0-0.197,0.013-0.145,0.032c0.454,1.402,0.382,2.776-0.242,3.751c-0.119-0.422-0.323-0.81-0.64-1.105
	c-0.598-0.566-1.645-0.75-2.322-0.185c-0.23,0.198-0.407,0.446-0.388,0.711c0.005,0.071,0.026,0.131,0.038,0.197l1.376,1.651
	c0,0-0.25,1.631-1.868,5.876c0.575,0.483,1.183,1.161,1.816,2.072c-0.069-0.718-0.123-1.63-0.003-2.111
	c0.156-0.623,1.162-2.495,1.162-2.495c0.845,0.416,1.655,0.691,2.313,0.77c2.098,0.249,2.048-1.563,2.075-3.854
	c0.226-0.016,0.427-0.053,0.573-0.113c0.659-0.272,0.026-0.874-0.303-1.641C96.97,224.876,96.91,224.774,96.846,224.678z
	 M95.375,225.079c-0.177-0.02-0.3-0.266-0.272-0.554c0.027-0.287,0.196-0.505,0.375-0.484c0.18,0.017,0.306,0.266,0.274,0.552
	C95.723,224.88,95.556,225.099,95.375,225.079z M125.693,260.758c0.565,0.557-0.672,2.698-0.672,2.698s-0.447,2.183-2.339,1.693
	c-1.328-0.343-2.357-1.125-3.038-2.007c-4.538,0.365-13.921-2.325-17.271-4.476c-0.174-0.113-0.329-0.224-0.47-0.332
	c-0.104-0.08-0.203-0.159-0.286-0.236c-1.104-1.029-0.407-5.693,2.865-5.302c0.028,0.003,0.062,0.01,0.095,0.017
	c0.005,0,0.009,0.001,0.014,0.002c2.016,0.356,9.198,4.475,9.198,4.475s2.842,1.22,5.152,2.519c0.087-0.114,0.196-0.21,0.33-0.278
	C119.867,259.223,124.702,259.78,125.693,260.758z M103.82,243.364c0.53-3.038,2.176-8.394,2.176-8.394s0.563-3.042,1.319-5.58
	c-0.129-0.062-0.246-0.146-0.343-0.263c-0.432-0.511-0.955-5.35-0.218-6.533c0.418-0.672,2.778,0.062,2.778,0.062
	s2.228-0.046,2.168,1.907c-0.042,1.371-0.577,2.548-1.288,3.407c1.356,4.346,0.803,14.09-0.558,17.832
	c-0.124,0.337-0.253,0.631-0.389,0.862c-0.264,0.451-1.005,0.783-1.871,0.895c0.611-0.197,1.104-0.443,1.434-0.754
	C110.092,245.806,106.636,244.342,103.82,243.364z M233.805,239.052c0.005-0.067,0.013-0.135,0.021-0.202
	c0.113-0.937,0.027-1.841-0.213-2.663l-0.038-0.006c-0.077-0.009-0.433-0.042-0.878-0.08c-0.567-0.048-1.277-0.102-1.747-0.124
	c-0.276-0.013-0.471-0.014-0.498,0.006c-0.005,0.005,0,0.011,0.018,0.019c0.004,0.013,0.005,0.024,0.009,0.037
	c0.094,0.299,0.158,0.598,0.203,0.891c0.009,0.055,0.021,0.108,0.027,0.162c0.002,0.018,0.007,0.036,0.009,0.054
	c0.033,0.277,0.038,0.546,0.026,0.809c-0.003,0.076-0.016,0.147-0.022,0.223c-0.021,0.214-0.056,0.421-0.107,0.62
	c-0.021,0.076-0.039,0.152-0.063,0.227c-0.083,0.252-0.183,0.494-0.319,0.712c-0.11-0.421-0.313-0.808-0.62-1.104
	c-0.584-0.564-1.607-0.743-2.266-0.182c-0.002,0.002-0.003,0.004-0.005,0.006c-0.106,0.091-0.182,0.197-0.243,0.309
	c-0.013,0.024-0.029,0.048-0.041,0.073c-0.047,0.104-0.074,0.214-0.088,0.327c-0.005,0.042-0.006,0.084-0.007,0.127
	c0,0.03,0.007,0.062,0.009,0.092c0.005,0.006,0.01,0.011,0.014,0.018c0.241,0.377,0.44,0.769,0.619,1.166
	c0.032,0.026,0.059,0.061,0.093,0.084c0.067,0.053,0.142,0.096,0.215,0.141c0.137,0.081,0.28,0.152,0.432,0.201
	c-0.001,0-0.003,0-0.005,0c0.001,0.001,0.003,0.002,0.004,0.002c-0.115,0.021-0.235,0.023-0.354,0.03
	c-0.059,0.005-0.116,0.015-0.177,0.017c0.626,1.646,0.732,3.43,0.31,5.2c-0.197,0.825-1.467,0.476-1.27-0.351
	c0.337-1.41,0.264-2.801-0.182-4.109c-0.031,1.364-0.361,2.725-0.852,4.049c-0.292,0.789-1.564,0.447-1.27-0.35
	c0.618-1.672,0.992-3.356,0.714-5.056c-0.312,1.89-1.059,3.628-2.226,5.233c-0.301,0.414-0.839,0.329-1.103,0.047l-0.045,0.107
	l6.625,3.374l0.91-5.018c0.826,0.413,1.617,0.688,2.258,0.765c2.047,0.248,1.997-1.553,2.025-3.83
	c0.219-0.015,0.416-0.053,0.56-0.111c0.643-0.271,0.025-0.871-0.294-1.631C233.926,239.249,233.867,239.146,233.805,239.052z
	 M232.37,239.45c-0.175-0.019-0.295-0.266-0.268-0.552c0.027-0.283,0.19-0.5,0.367-0.48c0.174,0.019,0.296,0.265,0.267,0.55
	C232.709,239.254,232.546,239.47,232.37,239.45z M254.709,277.818c0.42,0.583,0.649,1.323,0.087,2.099
	c-0.863,1.184-2.172,1.852-3.499,2.123c-1.602,0.329-3.229,0.082-4.125-0.547c-0.031,0.002-0.069-0.002-0.101,0
	c-0.055,0.002-0.117-0.002-0.174,0c-0.607,0.014-1.271-0.016-1.993-0.1c-0.243-0.028-0.489-0.061-0.741-0.098
	c0.024,0.004,0.048,0.006,0.073,0.009c-0.01-0.177-0.028-0.353-0.028-0.53c0-1.579,0.374-3.078,1.02-4.432
	c0.248,0.156,0.501,0.316,0.757,0.483c0,0,0.39-0.217,0.925-0.509c0.038-0.021,0.07-0.039,0.109-0.061
	c0.017-0.01,0.036-0.02,0.053-0.029c1.151-0.632,2.838-1.549,3.122-1.645c0.276-0.094,0.687,0.065,1.123,0.332
	c0.521,0.316,1.079,0.781,1.486,1.15c0.36,0.324,0.606,0.573,0.606,0.573S254.199,277.11,254.709,277.818z M120.962,307.591
	c0.005-0.067,0.013-0.135,0.021-0.202c0.113-0.937,0.026-1.841-0.214-2.663l-0.038-0.006c-0.232-0.027-3.018-0.276-3.122-0.199
	c-0.006,0.005-0.001,0.012,0.018,0.02c0.003,0.011,0.004,0.021,0.007,0.031c0.094,0.298,0.158,0.595,0.203,0.887
	c0.009,0.061,0.022,0.12,0.029,0.18c0.002,0.016,0.006,0.031,0.008,0.046c0.033,0.274,0.038,0.542,0.027,0.802
	c-0.003,0.083-0.016,0.16-0.024,0.241c-0.021,0.208-0.055,0.407-0.104,0.602c-0.021,0.08-0.04,0.159-0.065,0.236
	c-0.083,0.251-0.183,0.492-0.319,0.709c-0.047-0.181-0.12-0.352-0.203-0.516c-0.014-0.026-0.019-0.058-0.033-0.083
	c-0.103-0.187-0.23-0.357-0.383-0.506c-0.317-0.306-0.762-0.492-1.208-0.516c-0.378-0.02-0.756,0.076-1.058,0.334
	c-0.004,0.004-0.006,0.008-0.01,0.011c-0.103,0.09-0.177,0.193-0.237,0.302c-0.014,0.025-0.03,0.05-0.041,0.075
	c-0.048,0.105-0.075,0.216-0.089,0.329c-0.004,0.039-0.006,0.079-0.006,0.119c0,0.033,0.007,0.066,0.009,0.1
	c0.004,0.004,0.009,0.01,0.013,0.016c0.242,0.377,0.44,0.769,0.62,1.166c0.032,0.026,0.059,0.061,0.093,0.084
	c0.07,0.056,0.147,0.101,0.225,0.146c0.134,0.078,0.273,0.147,0.421,0.195c0,0-0.001,0-0.002,0c0.001,0,0.001,0.001,0.002,0.001
	c-0.086,0.015-0.176,0.016-0.264,0.023c-0.089,0.009-0.176,0.022-0.268,0.024c0.107,0.282,0.194,0.568,0.271,0.858
	c-0.074-0.037-0.149-0.074-0.225-0.105c-0.804-0.336-1.745-0.323-2.52-0.724c-0.015-0.215-0.039-0.43-0.074-0.646
	c-0.031,0.188-0.086,0.367-0.125,0.552c-0.27-0.135-0.659-0.31-1.028-0.52l-2.221,5.355l6.626,3.374l0.91-5.018
	c0.826,0.413,1.617,0.687,2.258,0.765c2.047,0.248,1.997-1.554,2.025-3.83c0.219-0.016,0.416-0.053,0.56-0.111
	c0.643-0.272,0.025-0.871-0.294-1.632C121.082,307.787,121.024,307.686,120.962,307.591z M119.526,307.989
	c-0.174-0.019-0.294-0.266-0.268-0.552c0.028-0.283,0.191-0.5,0.368-0.48c0.174,0.018,0.296,0.265,0.267,0.55
	C119.865,307.792,119.702,308.009,119.526,307.989z M141.866,346.357c0.42,0.583,0.649,1.323,0.087,2.098
	c-0.103,0.141-0.23,0.251-0.345,0.378c-0.849,0.937-1.985,1.507-3.154,1.746c-1.603,0.329-3.229,0.081-4.125-0.547
	c-0.673,0.035-1.44-0.004-2.268-0.101c-0.22-0.025-0.442-0.055-0.669-0.088c-0.009-0.177-0.027-0.353-0.027-0.53
	c0-1.579,0.373-3.078,1.02-4.432c0.248,0.156,0.501,0.316,0.757,0.483c0,0,0.439-0.244,1.034-0.569
	c0.263-0.145,0.557-0.305,0.855-0.468c1.013-0.552,2.097-1.131,2.319-1.206c0.275-0.094,0.687,0.065,1.123,0.332
	c0.521,0.316,1.078,0.781,1.486,1.149c0.36,0.325,0.605,0.574,0.605,0.574S141.356,345.649,141.866,346.357z"></path>
<path id="color_x5F_4" fill="#000000" d="M422.477,234.601c0.094,0.417,0.143,0.842,0.152,1.272
	c-0.179,0.009-0.355,0.007-0.536-0.013h-0.002h-0.001l-0.039-0.007c-0.062-0.007-0.306-0.03-0.631-0.06
	c-0.109-0.009-0.227-0.02-0.35-0.029c-0.762-0.063-1.727-0.134-2.039-0.123c-0.055,0.002-0.095,0.006-0.104,0.014
	c-0.008,0.005-0.003,0.012,0.017,0.021c0.003,0.01,0.005,0.021,0.008,0.03c0.095,0.3,0.158,0.597,0.204,0.89
	c0.009,0.058,0.021,0.116,0.029,0.173c0.002,0.016,0.006,0.033,0.008,0.049c0.033,0.275,0.038,0.543,0.027,0.804
	c-0.004,0.081-0.017,0.158-0.024,0.237c-0.021,0.209-0.056,0.41-0.105,0.604c-0.021,0.079-0.04,0.158-0.065,0.235
	c-0.082,0.251-0.183,0.492-0.318,0.709c-0.047-0.182-0.12-0.352-0.203-0.516c-0.014-0.026-0.019-0.058-0.033-0.084
	c-0.103-0.186-0.23-0.356-0.384-0.504c-0.314-0.305-0.757-0.491-1.2-0.516c-0.381-0.021-0.762,0.074-1.065,0.334
	c-0.004,0.003-0.006,0.008-0.01,0.011c-0.104,0.09-0.179,0.194-0.238,0.304c-0.013,0.023-0.028,0.047-0.039,0.072
	c-0.042,0.093-0.072,0.189-0.087,0.291l0.001,0.027l0.013,0.246c0.242,0.377,0.44,0.768,0.619,1.165
	c0.033,0.026,0.059,0.061,0.093,0.085c0.051,0.039,0.107,0.07,0.161,0.104c0.152,0.098,0.312,0.183,0.482,0.237
	c0.001,0,0.001,0.001,0.002,0.001c-0.057,0.01-0.116,0.009-0.174,0.015c-0.118,0.014-0.235,0.029-0.357,0.031c0,0,0,0.001,0,0.002
	c0.087,0.227,0.139,0.461,0.205,0.693c0.271,0.725,0.686,1.773,1.281,3.136c0.547,1.251,1.244,2.758,2.118,4.507
	c0.781,1.563,0.326,3.572,0.198,4.057c-0.019,0.07-0.03,0.11-0.03,0.11s-4.5-7.833-9.834-4.333
	c-1.089,0.715-1.635,2.193-1.957,3.991c-0.282,1.576-0.394,3.396-0.539,5.177c-0.231,2.843-0.557,5.574-1.838,6.998
	c-0.361,0.401-0.753,0.746-1.163,1.041c-2.998,2.156-7.078,1.478-8.837-2.041c-2-4-1.999-10.167,2.334-15.5s7.547-4.37,8.667-7.666
	c0.021-0.063,1.302-3.576,3.58-7.676c0.014-0.086,0.022-0.17,0.041-0.258c-0.002-0.002-0.002-0.006,0-0.006
	c0.201-0.367,0.44-0.719,0.721-1.052c0.7-0.829,1.56-1.443,2.498-1.827c2.153-0.887,4.706-0.577,6.607,1.021
	c0.781,0.657,1.373,1.469,1.757,2.347C422.261,233.81,422.387,234.204,422.477,234.601z M511.372,235.551
	c-0.09-0.396-0.217-0.79-0.38-1.168c-0.384-0.878-0.976-1.689-1.757-2.347c-1.901-1.598-4.454-1.908-6.607-1.021
	c-0.938,0.384-1.798,0.997-2.498,1.827c-0.28,0.333-0.52,0.685-0.721,1.053c-0.003,0-0.003,0.003,0,0.006
	c-0.086,0.41-0.125,0.811-0.146,1.182c-0.04,0.865,0.173,1.778,0.457,2.533c0.112,0.302,0.237,0.576,0.361,0.814
	c-0.042,2.209-0.545,4.157-2.187,5.736c-0.613,0.589,0.318,1.518,0.93,0.931c1.505-1.447,2.21-3.205,2.461-5.148
	c0.051,0.046,0.103,0.086,0.153,0.13c-0.075,0.823-0.266,1.6-0.52,2.354c-0.157,0.47-0.348,0.929-0.57,1.377
	c-0.308,0.616-0.652,1.222-1.077,1.806c-0.195,0.269-0.137,0.529,0.033,0.711c0.265,0.282,0.802,0.367,1.103-0.047
	c1.167-1.605,1.914-3.344,2.226-5.233c0.278,1.699-0.096,3.385-0.714,5.056c-0.295,0.797,0.978,1.139,1.27,0.35
	c0.49-1.324,0.82-2.685,0.852-4.049c0.445,1.309,0.519,2.699,0.182,4.11c-0.197,0.825,1.072,1.175,1.27,0.35
	c0.423-1.771,0.316-3.554-0.31-5.2c0.065-0.002,0.128-0.013,0.192-0.018c0.113-0.007,0.229-0.01,0.339-0.029
	c0,0-0.001,0-0.002-0.001c-0.148-0.048-0.288-0.118-0.423-0.198c-0.075-0.046-0.151-0.09-0.221-0.145
	c-0.034-0.023-0.061-0.058-0.093-0.084c-0.179-0.397-0.378-0.789-0.619-1.166c-0.004-0.006-0.009-0.011-0.013-0.016
	c-0.005-0.006-0.01-0.012-0.014-0.018c-0.001-0.027,0.004-0.054,0.004-0.081c0.001-0.04,0.002-0.079,0.007-0.118
	c0.013-0.115,0.042-0.227,0.089-0.332c0.011-0.025,0.025-0.047,0.039-0.071c0.06-0.109,0.134-0.214,0.238-0.304
	c0.004-0.004,0.006-0.008,0.01-0.011c0.658-0.563,1.682-0.384,2.266,0.182c0.307,0.296,0.51,0.683,0.62,1.104
	c0.136-0.218,0.236-0.458,0.319-0.71c0.024-0.076,0.044-0.154,0.064-0.233c0.051-0.195,0.085-0.399,0.105-0.609
	c0.008-0.077,0.021-0.152,0.023-0.231c0.012-0.262,0.007-0.529-0.026-0.806c-0.002-0.017-0.007-0.034-0.009-0.052
	c-0.007-0.055-0.019-0.11-0.027-0.165c-0.046-0.295-0.11-0.593-0.205-0.895c-0.003-0.011-0.005-0.021-0.008-0.03
	c-0.02-0.009-0.024-0.016-0.018-0.021c0.01-0.008,0.051-0.011,0.104-0.013c0.312-0.012,1.276,0.059,2.04,0.123
	c0.491,0.041,0.897,0.078,0.979,0.088l0.014,0.002l0.026,0.004h0.002c0.18,0.02,0.357,0.022,0.536,0.014
	C511.514,236.394,511.466,235.968,511.372,235.551z M95.152,216.075c-0.48-0.225-1.072-0.396-1.796-0.5
	c-0.355-0.053-5.895-2.481-8.441,2.638c0,0-0.405,1.425-0.325,3.248c-0.221,0.825-0.6,1.791-1.277,2.845
	c-1.956,3.043-1.304,0.652-6.738,3.913c-3.728,2.236-9.347,3.261-8.694,13.26c0.651,9.999,12.607,10.868,12.607,10.868
	s0.041-0.087,0.112-0.237c0.399-0.846,1.841-3.913,3.458-7.446c0.297-0.648,0.6-1.311,0.903-1.979
	c1.158-2.552,2.319-5.166,3.188-7.242c0.133-0.318,0.262-0.628,0.38-0.919c0.321-0.788,0.603-1.504,0.854-2.163
	c1.618-4.245,1.868-5.876,1.868-5.876l-1.376-1.651c-0.012-0.066-0.033-0.126-0.038-0.197c-0.02-0.265,0.157-0.513,0.388-0.711
	c0.678-0.565,1.725-0.382,2.322,0.185c0.316,0.296,0.521,0.684,0.64,1.105c0.624-0.975,0.696-2.349,0.242-3.751
	c-0.053-0.02,0.007-0.032,0.145-0.032c0.624,0,2.799,0.191,3.035,0.213c0.013,0.001,0.045,0.004,0.045,0.004
	S98.562,217.641,95.152,216.075z M233.62,233.76c-0.384-0.878-0.977-1.689-1.757-2.347c-1.901-1.598-4.454-1.908-6.607-1.021
	c-0.939,0.384-1.798,0.997-2.498,1.827c-0.28,0.333-0.52,0.685-0.721,1.052c-0.003,0-0.003,0.004,0,0.006
	c-0.086,0.411-0.125,0.812-0.146,1.183c-0.041,0.865,0.173,1.778,0.457,2.533c0.112,0.302,0.237,0.576,0.361,0.814
	c-0.042,2.209-0.545,4.157-2.187,5.736c-0.613,0.589,0.318,1.518,0.93,0.931c1.505-1.447,2.21-3.205,2.461-5.149
	c0.051,0.047,0.103,0.086,0.153,0.131c-0.075,0.822-0.266,1.597-0.518,2.35c-0.159,0.474-0.35,0.937-0.576,1.389
	c-0.306,0.613-0.65,1.217-1.073,1.799c-0.195,0.269-0.137,0.529,0.033,0.711c0.264,0.282,0.802,0.367,1.103-0.047
	c1.167-1.605,1.914-3.344,2.226-5.233c0.278,1.699-0.096,3.384-0.714,5.056c-0.295,0.797,0.978,1.139,1.27,0.35
	c0.49-1.324,0.82-2.685,0.852-4.049c0.445,1.309,0.519,2.699,0.182,4.109c-0.197,0.826,1.072,1.176,1.27,0.351
	c0.423-1.771,0.316-3.554-0.31-5.2v-0.001c0.06-0.001,0.118-0.012,0.177-0.016c0.119-0.007,0.239-0.01,0.354-0.03
	c-0.001,0-0.002-0.001-0.004-0.002c-0.149-0.048-0.291-0.119-0.427-0.201c-0.073-0.045-0.147-0.088-0.215-0.141
	c-0.034-0.023-0.061-0.058-0.093-0.084c-0.179-0.397-0.378-0.789-0.619-1.166c-0.004-0.007-0.009-0.012-0.014-0.018
	c-0.004-0.005-0.009-0.01-0.013-0.016c-0.001-0.025,0.004-0.051,0.004-0.076c0.001-0.043,0.001-0.085,0.007-0.127
	c0.013-0.113,0.042-0.223,0.088-0.327c0.012-0.025,0.027-0.049,0.041-0.073c0.061-0.111,0.136-0.218,0.243-0.309
	c0.002-0.002,0.003-0.004,0.005-0.006c0.658-0.562,1.682-0.383,2.266,0.182c0.307,0.297,0.51,0.684,0.62,1.104
	c0.136-0.218,0.236-0.46,0.319-0.712c0.024-0.074,0.043-0.15,0.063-0.227c0.051-0.199,0.086-0.406,0.107-0.62
	c0.007-0.074,0.019-0.146,0.022-0.223c0.012-0.263,0.007-0.531-0.026-0.809c-0.002-0.018-0.007-0.036-0.009-0.054
	c-0.007-0.053-0.019-0.107-0.027-0.162c-0.045-0.293-0.109-0.591-0.203-0.891c-0.004-0.012-0.006-0.023-0.01-0.035
	c-0.02-0.009-0.024-0.016-0.017-0.021c0.021-0.015,0.135-0.018,0.307-0.013c0.058,0.001,0.122,0.004,0.191,0.007
	c0.47,0.021,1.18,0.076,1.747,0.124c0.445,0.038,0.801,0.071,0.878,0.08l0.038,0.006h0.001h0.003c0.18,0.02,0.357,0.022,0.536,0.014
	c-0.011-0.431-0.059-0.855-0.152-1.272C233.91,234.531,233.783,234.137,233.62,233.76z"></path>
<path id="color_x5F_3" fill="#595959" d="M423.606,305.668l-0.004,0.26c0.001,0.013,0.004,0.041,0.004,0.041l-0.004,0.003
	l-0.447,32.412h-3.363c-0.499-1.539-3.816-11.867-4.852-17.391c-0.861-4.591,0.282-7.931,1.989-10.302l-0.016,0.011
	c0,0-0.976-1.889-2.44-4.503c-0.404,1.735-0.783,2.915-0.913,3.302c0.083,0.069,0.132,0.113,0.132,0.113l-22.884,20.617
	c-0.02-0.069-0.03-0.109-0.03-0.109l-3.299-1.703c0.917-1.449,7.647-12.063,11.073-16.568c2.182-2.869,4.426-4.202,6.496-4.675
	c-0.82-5.306-2.263-13.086-4.093-16.639c-1.907-3.7-0.106-7.337,1.441-9.485c0.108-0.348,0.191-0.557,0.191-0.557l0.41-0.227
	c0.214-0.262,0.408-0.486,0.571-0.664c-0.043,0.144-0.088,0.28-0.133,0.42c-0.503,1.605-1.088,3.027-1.622,4.165
	c-0.857,1.827-1.576,2.937-1.576,2.937h1.757h12.931h3.406c0.576,1.309,1.138,2.609,1.649,3.837
	c2.655,6.366,3.452,13.263,3.597,14.714C423.595,305.672,423.606,305.668,423.606,305.668z M512.502,306.618
	c0,0-0.012,0.004-0.027,0.01c-0.145-1.452-0.941-8.349-3.597-14.715c-0.294-0.705-0.606-1.438-0.927-2.179h-3.938h-12.602h-2.184
	c0.131,0.579,0.32,1.165,0.623,1.753c2.328,4.518,4.026,15.867,4.619,20.271c-1.986,1.278-3.763,3.607-4.494,7.773
	c-0.978,5.574-2.092,18.091-2.241,19.802h3.712c0,0,0.03,0.032,0.077,0.083l10.88-28.814c0,0,0.468-1.316,0.965-3.453
	c1.465,2.615,2.44,4.503,2.44,4.503l0.015-0.011c-1.707,2.371-2.85,5.711-1.988,10.301c1.035,5.523,4.353,15.852,4.852,17.392h3.363
	l0.447-32.412l0.004-0.003c0,0-0.002-0.028-0.004-0.041L512.502,306.618z M170.746,278.805c-0.152-1.526-0.993-8.792-3.788-15.499
	c-0.314-0.754-0.648-1.478-0.991-2.18h-6.524h-10.836h-3.855c0.304,5.789-1.505,16.051-2.308,20.242
	c-2.411,0.613-4.963,2.347-7.086,6.264c-3.052,5.633-8.997,20.535-8.997,20.535l0.094,0.031l0.18-0.4l3.614,1.21
	c0,0,0.027,0.062,0.072,0.159l20.435-26.305c0,0,3.552-4.53,5.987-10.926c3.68,5.764,6.984,12.161,6.984,12.161l0.013-0.009
	c-1.797,2.496-3,6.014-2.093,10.847c1.029,5.486,4.196,15.479,4.994,17.959h3.663l0.466-33.781l0.004-0.003
	c0,0-0.003-0.029-0.004-0.043l0.004-0.272C170.774,278.795,170.763,278.799,170.746,278.805z M92.231,256.451
	c0.233-1.017,1.468-5.475,1.829-6.325c2.446,3.743,5.356,7.141,7.842,8.209c-0.104-0.08-0.203-0.159-0.286-0.236
	c-1.104-1.029-0.407-5.693,2.865-5.302c0.028,0.003,0.062,0.01,0.095,0.017c-0.216-0.252-1.894-2.206-3.935-4.708
	c2.811,0.121,5.323-0.022,6.954-0.546c0.611-0.197,1.104-0.443,1.434-0.754c1.062-1-2.395-2.464-5.21-3.441
	c-1.759-0.611-3.269-1.033-3.269-1.033s-2.691-0.674-5.278-1.159c-0.767-1.071-1.438-2.07-1.931-2.911
	c-0.743-1.592-1.459-2.845-2.144-3.829c-0.634-0.911-1.241-1.589-1.816-2.072c-0.251,0.659-0.532,1.375-0.854,2.163
	c-0.118,0.291-0.247,0.601-0.38,0.919c-0.87,2.076-2.031,4.69-3.188,7.242c-0.303,0.669-0.605,1.331-0.903,1.979
	c-1.618,3.533-3.06,6.601-3.458,7.446c-0.101,2.483-0.135,4.919-0.132,7.157c0.007,4.307-2.863,9.383-2.863,9.383h17.229
	l0.001,0.001C93.468,265.502,91.442,259.889,92.231,256.451z M244.768,276.059c-0.016-0.01-0.034-0.021-0.05-0.03
	c-0.198-0.121-0.389-0.235-0.57-0.343c-0.005-0.003-0.01-0.006-0.015-0.009c-0.173-0.102-0.335-0.197-0.487-0.285
	c-0.017-0.01-0.033-0.019-0.05-0.029c-0.137-0.078-0.265-0.152-0.379-0.217c-0.016-0.008-0.031-0.018-0.046-0.025
	c-0.113-0.064-0.216-0.121-0.299-0.168c-0.004-0.003-0.009-0.006-0.014-0.008c-0.085-0.047-0.152-0.084-0.199-0.11
	c-0.004-0.002-0.01-0.006-0.014-0.008c-0.043-0.023-0.07-0.038-0.07-0.038s-3.65-2.37-6.811-4.129
	c-0.373-0.208-0.737-0.405-1.089-0.592c-0.621-0.327-1.201-0.613-1.702-0.832v0.002c-0.047-0.021-0.083-0.032-0.129-0.051
	c1.675-7.298-0.458-11.067-0.458-11.067c0.005-0.441-0.209-1.498-0.573-1.836c-0.42-0.989-1.794-6.332-1.794-6.332l-1.504-0.766
	l-6.625-3.374l-4.428,4.585c-1.467,0.919-2.255,2.94-2.395,4.317c-0.038,0.377-7.78,34.514-7.78,34.514h5.452h1.349h13.578h2.965
	h5.931c0,0-1.724-6.154-3.03-11.134c1.381,0.587,2.863,1.146,4.356,1.635c0.857,0.282,1.715,0.538,2.561,0.767
	c0.591,0.158,1.178,0.304,1.749,0.43c0.677,0.149,1.339,0.276,1.968,0.371c0.024,0.004,0.048,0.006,0.073,0.009
	c-0.01-0.177-0.028-0.353-0.028-0.53c0-1.579,0.374-3.078,1.02-4.432C245.071,276.245,244.918,276.151,244.768,276.059z
	 M122.259,374.544c-0.145-1.452-0.942-8.349-3.597-14.715c-0.679-1.631-1.445-3.389-2.219-5.123l-3.006-0.068l-12.959-0.295
	l-1.464-0.033c-0.347,1.582-0.286,3.33,0.623,5.094c2.327,4.518,4.025,15.866,4.618,20.271c-1.986,1.277-3.761,3.607-4.493,7.773
	c-1.052,5.99-2.259,20.003-2.259,20.003h3.762l10.924-28.934c0,0,0.468-1.317,0.965-3.452c1.466,2.614,2.441,4.503,2.441,4.503
	l0.014-0.01c-1.707,2.37-2.85,5.71-1.989,10.3c1.121,5.978,4.917,17.593,4.917,17.593h3.296l0.449-32.613l0.004-0.003
	c0,0-0.002-0.028-0.004-0.041l0.004-0.26C122.286,374.534,122.274,374.538,122.259,374.544z"></path>
<path id="color_x5F_2" fill="#4a90e2" d="M131.285,412.12c0.048,1.271-2.53,1.209-2.53,1.209h-3.488h-7.896l0.562-5.645h3.812
	c0,0,1.876,2.043,2.713,2.377c0.219,0.088,0.488,0.154,0.79,0.21C127.389,410.66,131.221,410.408,131.285,412.12z M103.511,410.062
	c-0.838-0.334-2.714-2.377-2.714-2.377h-3.811l-0.563,5.645h11.384c0,0,2.578,0.062,2.53-1.209
	C110.265,410.167,105.286,410.771,103.511,410.062z M420.847,239.124c0.176,0.02,0.339-0.197,0.366-0.482
	c0.029-0.285-0.092-0.532-0.266-0.551c-0.177-0.02-0.34,0.197-0.368,0.48C420.552,238.858,420.673,239.104,420.847,239.124z
	 M420.597,282.559c0.559,0.707,1.133,1.395,1.715,2.051c0.405,0.458,0.814,0.902,1.222,1.324c0.483,0.496,0.966,0.967,1.438,1.393
	c0.018,0.016,0.037,0.031,0.056,0.047c0.089-0.151,0.17-0.309,0.269-0.457c0.87-1.318,2.009-2.362,3.293-3.137
	c0.001,0,0.001,0,0.001,0c-0.044-0.097-0.088-0.188-0.132-0.284c-0.083-0.179-0.164-0.351-0.244-0.518
	c-0.047-0.1-0.096-0.202-0.142-0.297c-0.044-0.09-0.084-0.172-0.126-0.256c-0.042-0.086-0.085-0.174-0.125-0.253
	c-0.04-0.081-0.078-0.156-0.115-0.23c-0.034-0.067-0.068-0.136-0.1-0.196c-0.035-0.069-0.068-0.135-0.1-0.195
	c-0.026-0.053-0.052-0.102-0.075-0.146c-0.026-0.051-0.053-0.102-0.073-0.143c-0.022-0.042-0.042-0.078-0.059-0.109
	c-0.012-0.023-0.028-0.055-0.037-0.07c-0.016-0.031-0.031-0.06-0.031-0.06s-1.739-3.991-3.407-7.201
	c-0.196-0.379-0.391-0.743-0.582-1.092c-0.338-0.617-0.664-1.175-0.963-1.633c-0.302-0.461-0.57-0.821-0.795-1.031
	c-0.054-0.233-0.122-0.465-0.221-0.692l-2.061-4.752c4.251-5.984,2.69-7.236,2.69-7.236c0.002-0.229-0.919-2.322-1.803-4.277
	c-0.019,0.07-0.03,0.11-0.03,0.11s-4.5-7.833-9.834-4.333c-1.089,0.715-1.635,2.193-1.957,3.991
	c-0.282,1.576-0.394,3.396-0.539,5.177c-0.231,2.843-0.557,5.574-1.838,6.998c-0.361,0.401-0.753,0.746-1.163,1.041
	c0.123,2.808,0.114,5.809-0.17,8.626c-0.175,1.733-0.541,3.385-0.988,4.888c-0.043,0.144-0.088,0.28-0.133,0.42
	c-0.503,1.605-1.088,3.027-1.622,4.165c-0.857,1.827-1.576,2.937-1.576,2.937h1.757h12.931h3.406h0.601c0,0-0.564-3.854-1.021-8.254
	C418.728,280.098,419.64,281.354,420.597,282.559z M426.212,340.761c-0.837-0.334-2.713-2.377-2.713-2.377h-0.344h-3.363h-0.104
	l-0.563,5.645h11.385c0,0,2.577,0.062,2.53-1.209C432.967,340.867,427.988,341.47,426.212,340.761z M392.101,333.479
	c-0.521-0.6-1.149-2.743-1.292-3.247c-0.02-0.069-0.03-0.109-0.03-0.109l-3.299-1.703l-0.088-0.045l-3.088,4.758l10.116,5.221
	c0,0,2.262,1.236,2.802,0.086C398.054,336.671,393.353,334.923,392.101,333.479z M509.742,240.074
	c0.176,0.019,0.339-0.197,0.366-0.482c0.029-0.286-0.092-0.532-0.267-0.551c-0.176-0.02-0.34,0.197-0.367,0.481
	C509.447,239.808,509.568,240.056,509.742,240.074z M521.525,276.313c-0.018-0.011-0.034-0.021-0.053-0.03
	c-0.154-0.092-0.301-0.178-0.437-0.256c-0.038-0.022-0.073-0.043-0.109-0.063c-0.111-0.063-0.218-0.125-0.313-0.179
	c-0.036-0.021-0.071-0.04-0.104-0.059c-0.083-0.047-0.159-0.09-0.226-0.127c-0.027-0.015-0.059-0.032-0.082-0.046
	c-0.068-0.037-0.128-0.07-0.169-0.093c-0.005-0.002-0.013-0.007-0.018-0.01c-0.043-0.023-0.07-0.038-0.07-0.038
	s-3.65-2.371-6.811-4.13c-0.373-0.207-0.737-0.405-1.089-0.592c-0.621-0.327-1.201-0.613-1.702-0.832v0.002
	c-0.047-0.021-0.083-0.031-0.129-0.051c1.675-7.298-0.459-11.067-0.459-11.067c0.005-0.441-0.208-1.498-0.573-1.836
	c-0.42-0.989-1.794-6.331-1.794-6.331l-1.504-0.766l-6.625-3.374l-4.428,4.584c-1.467,0.92-2.255,2.94-2.395,4.317
	c-0.038,0.377-3.946,34.397-3.946,34.397h0.736h2.184h12.602h3.938h0.539c0,0,0.314-6.779,0.596-11.836
	c1.844,0.882,3.998,1.742,6.172,2.454c0.857,0.281,1.715,0.538,2.561,0.766c0.591,0.158,1.178,0.304,1.749,0.43
	c0.677,0.15,1.34,0.276,1.968,0.371c0.024,0.004,0.049,0.006,0.073,0.009c-0.01-0.177-0.028-0.353-0.028-0.53
	c0-1.578,0.374-3.077,1.02-4.431v-0.001C522.22,276.728,521.857,276.509,521.525,276.313z M515.107,341.711
	c-0.837-0.334-2.713-2.377-2.713-2.377h-0.344h-3.363h-0.104l-0.563,5.646h11.384c0,0,2.578,0.061,2.531-1.209
	C521.862,341.817,516.884,342.42,515.107,341.711z M494.161,341.711c-0.741-0.295-2.284-1.917-2.637-2.294
	c-0.047-0.051-0.077-0.083-0.077-0.083h-3.712h-0.099l-0.563,5.646h11.384c0,0,2.578,0.061,2.53-1.209
	C500.915,341.817,495.937,342.42,494.161,341.711z M150.025,216.161c0.03-0.068,0.063-0.136,0.102-0.199
	c0.061-1.244,0.267-3.041,0.967-3.445c0.6-0.346,1.188,1.881,1.289,2.285c0.01,0.04,0.017,0.068,0.017,0.068
	s0.005-0.029,0.012-0.068c0.033-0.187,0.125-0.748,0.135-1.196l1.728,0.022c-0.009,0.078-0.023,0.154-0.023,0.234v0.016
	c0,0.335,0.089,0.646,0.232,0.924c0.337,0.652,1.01,1.104,1.796,1.104c0.783,0,1.457-0.451,1.794-1.104
	c0.144-0.278,0.233-0.589,0.233-0.924v-0.016c0-0.063-0.013-0.122-0.019-0.184l1.348,0.018c-0.004,0.056-0.017,0.109-0.017,0.166
	v0.016c0,0.865,0.544,1.599,1.308,1.89c0.224,0.085,0.465,0.138,0.72,0.138c1.119,0,2.028-0.907,2.028-2.027v-0.016
	c0-1.119-0.909-2.026-2.028-2.026c-0.247,0-0.48,0.051-0.699,0.131c-0.586,0.217-1.039,0.693-1.227,1.292l-1.522-0.02
	c-0.265-0.813-1.021-1.403-1.919-1.403c-0.884,0-1.627,0.567-1.905,1.354l-1.811-0.022c0.043-0.56,0.249-1.362,1.239-2.444
	c0.581-0.635,0.534-1.631,0.325-2.504c0.677,0.667,1.979,1.638,4.36,2.504c1.981,0.719,2.365,0.584,2.438,0.523
	c0.007,0,0.014,0.001,0.021,0.002c0.687,0.068,1.422,0.062,2.054-0.127c1.778-0.529,1.789-2.873-0.358-3.743
	c-2.149-0.87-2.128,0.233-2.128,0.233l-1.822-0.928c-0.963-0.732-2.157-1.174-3.46-1.174c-0.345,0-0.681,0.035-1.009,0.095
	c-0.127,0.022-0.247,0.063-0.372,0.095c-0.158,0.04-0.315,0.082-0.468,0.135l-0.002-0.014c-0.073,0.021-0.146,0.051-0.215,0.075
	c-2.136,0.827-3.647,2.899-3.647,5.329v3.437c0,0.501,0.084,0.978,0.206,1.439C149.827,216.117,149.925,216.145,150.025,216.161z
	 M183.654,238.721c-2.309-0.06-5.214,0.332-5.214,0.332s-6.893,0.339-9.9,1.032c-0.357-2.209-0.846-4.062-0.846-4.062
	s-0.57-1.86-1.34-3.923c-1.126-6.107-6.019-8.145-7.838-8.145l-0.292,0.009l-7.904,0.235l-2.703,0.081
	c-1.184,0-2.984,0.775-4.246,2.659c-3.595,2.91-8.144,9.381-9.991,14.703c-0.024,0.026-0.055,0.047-0.076,0.075
	c-1.899,2.695-3.635,13.536-2.533,18.854c1.068-0.492,2.321-0.3,3.255,0.452c0.979-2.091,1.785-4.909,1.785-4.909
	s2.427-6.376,3.015-9.431c1.366-1.046,2.649-2.223,3.458-2.999l0.079,17.44h2.387h3.855h10.836h6.524h1.902l-0.916-13.738
	c0.154,0.007,0.309,0.01,0.461-0.006c0.191-0.02,0.359-0.08,0.509-0.172c4.303-0.173,12.787-2.605,16.624-5.329
	C183.668,241.101,183.342,239.877,183.654,238.721z M132.067,312.122c-0.586-0.496-1.49-2.398-1.747-2.955
	c-0.045-0.098-0.072-0.159-0.072-0.159l-3.614-1.21l-0.18,0.4l-2.145,4.774l10.797,3.611c0,0,2.424,0.876,2.782-0.343
	C138.438,314.365,133.526,313.357,132.067,312.122z M173.108,315.271c-0.838-0.335-2.713-2.377-2.713-2.377h-0.092h-3.663h-0.057
	l-0.563,5.646h11.384c0,0,2.577,0.062,2.53-1.209C179.862,315.378,174.884,315.98,173.108,315.271z M75.413,322.665
	c-0.14-0.227-0.263-0.628-0.368-1.078c-0.167-0.721-0.287-1.565-0.348-2.051c-0.03-0.241-0.047-0.396-0.047-0.396l-3.061-2.272
	l-0.124,0.136l-3.691,4.063l0.431,0.319l8.711,6.464c0,0,2.033,1.587,2.753,0.537C80.773,326.774,76.416,324.292,75.413,322.665z
	 M99.967,328.959c0.067-0.121,0.104-0.26,0.098-0.421c-0.072-1.952-5.051-1.348-6.827-2.058c-0.643-0.257-1.892-1.516-2.439-2.088
	c-0.165-0.173-0.273-0.29-0.273-0.29h-3.812l-0.019,0.186l-0.421,4.226l-0.123,1.235h11.384
	C97.534,329.749,99.5,329.796,99.967,328.959z M91.782,300.256l1.114-0.005l2.518-0.01c2.608-12.752,1.739-24.635-0.58-31.592
	H77.604c-3.052,6.342,4.977,20.116,3.608,30.143c-0.068,0.502-0.143,1.004-0.22,1.507l1.31-0.005l4.992-0.021L91.782,300.256z
	 M95.375,225.079c0.181,0.02,0.348-0.199,0.377-0.486c0.031-0.286-0.095-0.535-0.274-0.552c-0.179-0.021-0.348,0.197-0.375,0.484
	C95.075,224.813,95.198,225.06,95.375,225.079z M246.909,276.317c0.038-0.021,0.07-0.039,0.109-0.061
	c0.017-0.01,0.036-0.02,0.053-0.029c1.151-0.632,2.838-1.549,3.122-1.645c0.276-0.094,0.687,0.065,1.123,0.332
	c0.521,0.316,1.079,0.781,1.486,1.15c0.36,0.324,0.606,0.573,0.606,0.573s0.79,0.472,1.3,1.18c0.42,0.583,0.649,1.323,0.087,2.099
	c-0.863,1.184-2.172,1.852-3.499,2.123c-1.602,0.329-3.229,0.082-4.125-0.547c-0.031,0.002-0.069-0.002-0.101,0
	c-0.055,0.002-0.117-0.002-0.174,0l-0.116,52.369c0,0,0.103,0.037,0.29,0.102c0.933,0.325,4.259,1.444,10.657,3.236
	c0.82,0.23,1.674,0.467,2.597,0.719c7.637,2.083,7.526,1.557,24.23,2.898v-7.115V207.005l-37.484-3.724L246.909,276.317z
	 M232.37,239.45c0.176,0.02,0.339-0.196,0.366-0.482c0.029-0.285-0.093-0.531-0.267-0.55c-0.177-0.02-0.34,0.197-0.367,0.48
	C232.075,239.185,232.195,239.432,232.37,239.45z M237.735,341.088c-0.837-0.334-2.713-2.377-2.713-2.377h-0.344l0.031-2.255
	l0.416-30.157l0.004-0.003c0,0-0.002-0.028-0.004-0.041l0.004-0.26c0,0-0.012,0.004-0.027,0.01
	c-0.145-1.452-0.941-8.35-3.596-14.715c-0.278-0.668-0.574-1.361-0.877-2.063h-2.965h-13.578h-1.349
	c0.001,0.028-0.003,0.054-0.001,0.082c0.303,5.074-2.729,16.142-3.968,20.41c-2.333,0.367-4.899,1.779-7.251,5.295
	c-1.211,1.81-2.855,4.552-4.468,7.326c-2.58,4.438-5.074,8.955-5.584,9.881l-0.09-0.04l-2.796,4.936l10.413,4.601
	c0,0,2.334,1.098,2.803-0.083c0.723-1.816-4.074-3.277-5.412-4.644c-0.556-0.566-1.312-2.665-1.485-3.162l10.222-10.395
	l11.375-11.567c0,0,3.87-4.097,6.752-10.07c2.872,4.738,5.192,9.232,5.192,9.232l0.015-0.011c-1.707,2.371-2.85,5.711-1.988,10.301
	c0.646,3.444,2.179,8.757,3.363,12.644c0.715,2.347,1.301,4.169,1.489,4.748h-0.104l-0.457,4.581l-0.106,1.063h11.384
	c0,0,1.285,0.028,2.023-0.401c0.307-0.18,0.521-0.436,0.507-0.808C244.49,341.194,239.512,341.797,237.735,341.088z
	 M119.259,307.438c-0.026,0.286,0.094,0.533,0.268,0.552c0.176,0.02,0.339-0.197,0.367-0.482c0.029-0.285-0.093-0.532-0.267-0.55
	C119.45,306.938,119.287,307.154,119.259,307.438z M132.189,344.761c-0.169-0.104-0.333-0.205-0.493-0.301
	c-0.122-0.074-0.243-0.147-0.357-0.215c-0.07-0.043-0.135-0.08-0.202-0.119c-0.101-0.06-0.199-0.117-0.291-0.171
	c-0.062-0.035-0.118-0.068-0.176-0.101c-0.09-0.053-0.175-0.102-0.254-0.146c-0.047-0.026-0.093-0.053-0.136-0.076
	c-0.075-0.043-0.14-0.079-0.2-0.113c-0.032-0.018-0.065-0.036-0.093-0.052c-0.07-0.038-0.125-0.069-0.167-0.092
	c-0.005-0.003-0.013-0.007-0.018-0.01c-0.043-0.023-0.07-0.038-0.07-0.038s-3.65-2.37-6.811-4.13
	c-0.373-0.207-0.737-0.405-1.089-0.591c-0.621-0.328-1.201-0.613-1.702-0.832v0.002c-0.171-0.074-0.317-0.128-0.468-0.186
	l-1.089-2.512l-0.665-1.533c2.582-3.857,3.879-4.902,3.879-4.902c0.005-0.441-2.454-3.483-2.818-3.821
	c-0.201-0.474-0.621-1.947-1.004-3.354c-0.417-1.528-0.79-2.979-0.79-2.979l-1.504-0.766l-6.626-3.374l-4.427,4.585
	c-0.939,0.589-1.597,1.629-1.987,2.662c-0.22,0.581-0.357,1.159-0.407,1.654c-0.01,0.101,0.339,2.695,0.581,6.287
	c0.257,3.81,0.394,8.74-0.146,13.017c-0.883,6.989-4.348,11.738-4.348,11.738l0.702,0.016l1.464,0.033l12.959,0.295l3.006,0.068
	l0.998,0.022c0,0-0.882-5.727-1.53-10.526c0.094,0.06,0.182,0.119,0.281,0.18c0.271,0.166,0.562,0.334,0.866,0.502
	c2.146,1.191,5.049,2.423,7.985,3.384c0.857,0.282,1.715,0.538,2.561,0.766c0.591,0.159,1.178,0.304,1.749,0.431
	c0.677,0.149,1.339,0.276,1.968,0.37c0.024,0.004,0.048,0.006,0.072,0.01c-0.009-0.177-0.027-0.353-0.027-0.53
	c0-1.579,0.373-3.078,1.02-4.432C132.318,344.841,132.254,344.802,132.189,344.761z M103.473,315.296
	c2.139-2.838,4.457-6.964,5.998-9.869c0.013,0.035,0.022,0.072,0.035,0.105c0.111,0.302,0.236,0.576,0.361,0.814
	c-0.003,0.174-0.015,0.343-0.024,0.515c0.275,0.269,0.465,0.643,0.48,1.132c0.01,0.295,0.26,0.556,0.587,0.784
	c0.064-0.3,0.121-0.603,0.161-0.913c0.05,0.047,0.102,0.086,0.153,0.131c-0.028,0.307-0.074,0.606-0.127,0.904
	c0.055,0.033,0.112,0.064,0.168,0.096c0.369,0.21,0.758,0.385,1.028,0.52c0.039-0.185,0.094-0.364,0.125-0.552
	c0.035,0.216,0.06,0.431,0.074,0.646c0.774,0.4,1.716,0.388,2.52,0.724c0.075,0.031,0.15,0.068,0.225,0.105
	c-0.076-0.29-0.163-0.576-0.271-0.858v-0.001c0.091-0.001,0.179-0.016,0.268-0.023c0.088-0.008,0.178-0.009,0.264-0.023
	c-0.001,0-0.001-0.001-0.002-0.001c-0.147-0.047-0.286-0.115-0.419-0.195c-0.077-0.046-0.154-0.091-0.225-0.146
	c-0.034-0.023-0.061-0.058-0.093-0.084c-0.18-0.397-0.378-0.789-0.62-1.166c-0.004-0.006-0.008-0.012-0.013-0.016
	c-0.004-0.006-0.009-0.012-0.014-0.019c-0.001-0.027,0.004-0.054,0.004-0.081c0-0.041,0.002-0.079,0.006-0.119
	c0.013-0.113,0.042-0.224,0.089-0.329c0.012-0.026,0.027-0.05,0.041-0.075c0.06-0.108,0.134-0.212,0.237-0.302
	c0.004-0.003,0.006-0.007,0.01-0.011c0.302-0.258,0.68-0.354,1.058-0.334c0.446,0.023,0.891,0.209,1.208,0.516
	c0.153,0.148,0.28,0.318,0.383,0.506c0.015,0.025,0.02,0.057,0.033,0.083c0.083,0.164,0.156,0.335,0.203,0.516
	c0.136-0.217,0.236-0.458,0.319-0.709c0.025-0.077,0.045-0.157,0.065-0.236c0.05-0.193,0.084-0.394,0.104-0.602
	c0.008-0.08,0.021-0.158,0.024-0.241c0.011-0.26,0.006-0.527-0.027-0.802c-0.002-0.015-0.006-0.03-0.008-0.046
	c-0.007-0.059-0.021-0.12-0.029-0.18c-0.046-0.292-0.109-0.588-0.203-0.887c-0.003-0.01-0.005-0.021-0.008-0.03
	c-0.02-0.009-0.024-0.015-0.017-0.021c0.104-0.077,2.89,0.172,3.122,0.199l0.038,0.006h0.002h0.003
	c0.18,0.02,0.357,0.021,0.535,0.014c-0.01-0.431-0.059-0.855-0.151-1.273c-0.09-0.396-0.217-0.79-0.381-1.167
	c-0.384-0.878-0.976-1.689-1.757-2.347c-1.9-1.599-4.453-1.908-6.606-1.021c-0.679,0.278-1.313,0.68-1.878,1.191
	c-1.293-0.301-3.203-0.078-4.997,2.701c-3.098,4.797-7.227,15.352-7.227,15.352S99.86,320.094,103.473,315.296z"></path>
<path id="color_x5F_1" fill="#0984E3" d="M537.575,344.084H376.189v-0.191V160.86h-0.078c0-5.401-28.887-9.781-64.519-9.781
	s-64.518,4.38-64.518,9.781h-0.004v42.421l37.484,3.724v126.697v7.115c-16.704-1.342-16.594-0.815-24.23-2.898
	c-0.922-0.252-1.777-0.488-2.597-0.719c-6.398-1.792-9.725-2.911-10.657-3.236v8.756l-0.029-1
	c-0.474,0.014-47.407,1.379-56.94,0.428c-2.393-0.239-3.958-0.853-4.784-1.876c-1.262-1.563-0.96-4.228-0.579-7.601
	c0.206-1.815,0.438-3.873,0.438-6.033c0-3.251-0.883-5.703-2.624-7.287c-2.108-1.918-4.727-1.848-5.179-1.811l-53.379-0.641
	l-0.024,2l53.422,0.641l0.053,0.001l0.053-0.006c0.019-0.001,2.115-0.155,3.708,1.295c1.307,1.189,1.97,3.144,1.97,5.808
	c0,2.048-0.216,3.96-0.425,5.809c-0.417,3.686-0.777,6.868,1.011,9.082c1.179,1.461,3.188,2.314,6.14,2.609
	c2.563,0.256,7.655,0.352,13.792,0.351c16.915,0,41.749-0.721,43.377-0.768v0.575v0.025h0.19h0.85
	c0.052,0.044,0.1,0.088,0.156,0.132c2.714,2.124,9.963,4.003,20.155,5.396c-20.772-0.3-113.311-1.63-122.826-1.63
	c-3.038,0-4.981-0.48-5.776-1.428c-0.861-1.024-0.542-2.836-0.173-4.935c0.234-1.332,0.477-2.709,0.477-4.146
	c0-6.513-8.375-8.11-8.732-8.175l-0.088-0.017H49.226v2h81.888c0.785,0.164,7.009,1.612,7.009,6.191c0,1.262-0.227,2.552-0.446,3.8
	c-0.437,2.482-0.849,4.827,0.611,6.566c1.227,1.461,3.549,2.142,7.308,2.142c10.658,0,125.755,1.673,126.917,1.689l0.022-1.542
	c0.397,0.046,0.806,0.09,1.21,0.135c-0.092,0.706-0.183,1.45-0.27,2.238c-0.858,7.72-8.397,7.847-8.692,7.849
	c-3.493-0.078-85.661-1.922-96.318,0.017c-11.369,2.066-11.501,11.567-11.498,11.746c0.01,0.115,0.942,11.745-0.738,27.038
	c-1.57,14.303-9.471,13.666-9.801,13.634l-93.319-0.007v2h93.159c0.079,0.006,0.217,0.015,0.406,0.015
	c0.985,0,3.341-0.224,5.707-2.111c3.181-2.536,5.145-7.016,5.836-13.312c1.702-15.497,0.752-27.306,0.746-27.34
	c0-0.079,0.113-7.924,9.858-9.696c10.458-1.899,95.062-0.002,95.938,0.017c0.097,0,9.646-0.111,10.703-9.628
	c0.092-0.824,0.183-1.562,0.272-2.249c10.255,1.043,22.583,1.652,35.857,1.652c27.49,0,50.94-2.608,60.229-6.28h165.753V344.084z
	 M317.721,263.454c-3.24,0-5.869-2.628-5.869-5.869s2.629-5.869,5.869-5.869c3.241,0,5.869,2.628,5.869,5.869
	S320.962,263.454,317.721,263.454z M339.892,263.454c-3.241,0-5.869-2.628-5.869-5.869s2.628-5.869,5.869-5.869
	s5.868,2.628,5.868,5.869S343.133,263.454,339.892,263.454z"></path>
</svg>