<?xml version="1.0" standalone="no"?>
<svg version="1.1" id="Layer_1" xmlns="http://www.w3.org/2000/svg" xmlns:xlink="http://www.w3.org/1999/xlink" x="0px" y="0px" width="595.28px" height="595.28px" viewBox="0 0 595.28 595.28" enable-background="new 0 0 595.28 595.28" xml:space="preserve">
<path id="color_x5F_9" fill="#FDF187" d="M293.505,305.394l-15.694,0.014l-11.618,74.23h40.062L293.505,305.394z M278.256,377.093
	v-15.947h16.4v15.947H278.256z"></path>
<path id="color_x5F_8" fill="#ED1C24" d="M137.574,275.614l5.257,3.541c-1.392,1.355-2.855,2.749-3.764,3.607
	c-0.094,0.088-0.188,0.177-0.269,0.253c-0.34,0.333-0.569,0.539-0.621,0.591c0.021-0.052,0.156-0.347,0.296-0.762
	c0.051-0.15,0.101-0.32,0.147-0.496c0.262-0.974,0.396-2.244-0.45-2.795c-1.458-0.946-2.885,1.583-2.737,1.657c0,0,0,0,0,0.007
	c0.026,0.026-0.005,0.167-0.053,0.354c-0.182,0.701-0.681,2.256,0.037,2.723c0.926,0.6-1.566,3.632-2.446,2.67l-0.009-0.007
	c-0.134-0.545-0.203-1.102-0.235-1.661c-0.049-0.85,0.007-1.706,0.198-2.541c0.187-0.827,0.496-1.626,0.926-2.388
	c0.252-0.444,0.548-0.88,0.879-1.287L137.574,275.614z M95.424,438.262c-0.98-0.41-3.146-2.857-3.146-2.857l-4.495-0.08
	l-0.778,6.643l13.418,0.237c0,0,3.036,0.126,3.005-1.373C103.381,438.528,97.503,439.136,95.424,438.262z M134.407,438.427
	c-0.981-0.412-3.148-2.858-3.148-2.858l-4.493-0.081l-0.779,6.643l13.417,0.237c0,0,3.037,0.126,3.007-1.372
	C142.365,438.691,136.487,439.299,134.407,438.427z M428.63,285.126c-0.479,1.424-1.193,3.022-2.279,4.603
	c-0.689,1.002-1.35,1.675-1.901,2.117c-0.659,0.527-1.162,0.716-1.339,0.662c0,0,0.952-2.801,1.075-4.952
	c0.053-0.914-0.042-1.713-0.427-2.126c-0.389-0.418-1.381,0.802-2.277,2.126c-0.804,1.187-1.53,2.458-1.675,2.715
	c-0.425,2.551,3.304,2.237,3.304,2.237s-2.734,4.627-6.205,3.663c-1.184-0.329-2.787-0.691-4.384-1.144
	c-3.088-0.875-6.146-2.089-6.068-4.071c0.119-3.006,1.652-5.281,1.652-5.281s0.028-0.009,0.036-0.012
	c0.188-0.066,2.396-0.803,5.151,0.059c1.84,0.575,3.25,1.234,4.301,1.833c0.684,0.39,1.219,0.754,1.609,1.053
	c0.132-0.276,0.31-0.638,0.502-1.053c0.64-1.379,1.435-3.37,1.212-4.982l5.643,1.869L428.63,285.126z M411.906,290.193
	c0,0,0.192,0.915,0.615,1.182c0.012,0.007,0.021,0.019,0.033,0.025c0.731,0.386,1.41,0.451,2.256,0.282
	c0.847-0.169,1.129-1.298,1.129-1.298s0,0-0.826-0.15c-0.827-0.151-1.262-0.752-1.262-0.752s0,0-0.508,0.451
	c-0.229,0.204-0.545,0.273-0.822,0.292C412.187,290.248,411.906,290.193,411.906,290.193z"></path>
<path id="color_x5F_7" fill="#417505" d="M388.912,302.123c-7.603,9.858-4.457,8.196-12.048,24.929
	c-5.176,11.414-15.756,13.805-21.964,14.172c3.597-4.704,7.036-9.521,10.361-14.415c0.057-0.011,0.107-0.01,0.166-0.038
	c2.55-1.195,5.173-2.247,7.375-4.05c0.643-0.531-0.128-1.572-0.777-1.043c-1.63,1.335-3.498,2.243-5.393,3.114
	c6.944-10.373,13.339-21.115,19.323-32.068c0.396-0.737-0.802-1.227-1.196-0.502c-5.054,9.253-10.412,18.342-16.138,27.193
	c0.391-4.101,1.125-8.167,1.056-12.302c-0.013-0.833-1.298-0.669-1.285,0.157c0.074,4.265-0.77,8.461-1.123,12.694
	c-0.035,0.392,0.24,0.633,0.541,0.697c-4.539,6.943-9.303,13.739-14.364,20.321c-0.492,1.392-1.229,2.734-1.87,3.951
	c-0.989,1.875-2.054,3.742-2.964,5.671h-2.509c0.661-1.496,1.423-2.95,2.191-4.395c0.795-1.482,1.947-3.216,2.682-4.995
	c-0.586-0.043-0.922-0.087-0.922-0.087s-6.91-11.588,4.623-25.24c7.567-8.955,16.911-11.557,21.354-22.511
	c4.444-10.954,14.595-20.826,20.992-15.827C403.419,282.553,396.512,292.265,388.912,302.123z M349.26,313.742
	c3.689-2.565,9.662-8.646,9.3-21.051c-0.343-11.715-6.03-19.576-2.687-30.912c3.348-11.336,1.553-25.388-6.564-25.457
	c-8.12-0.072-8.762,11.831-8.958,24.276c-0.195,12.445-1.615,9.188-6.102,27.011c-3.06,12.153,3.729,20.61,8.355,24.766
	c0.114-5.922,0.427-11.833,0.871-17.733c-0.037-0.043-0.077-0.076-0.104-0.133c-1.252-2.522-2.647-4.984-3.245-7.761
	c-0.177-0.815,1.075-1.151,1.254-0.332c0.44,2.06,1.339,3.931,2.282,5.794c1.029-12.441,2.714-24.829,4.857-37.124
	c0.143-0.822,1.389-0.462,1.246,0.353c-1.811,10.387-3.281,20.835-4.312,31.324c2.25-3.454,4.203-7.09,6.835-10.282
	c0.531-0.646,1.435,0.288,0.908,0.924c-2.713,3.291-4.668,7.098-7.027,10.631c-0.218,0.33-0.581,0.35-0.854,0.209
	c-0.79,8.385-1.303,16.792-1.433,25.218c1.513,1.224,2.574,1.854,2.574,1.854s0.129-0.051,0.354-0.155
	c-1.383,11.842-4.437,23.47-3.575,35.442h2.323C344.667,338.172,347.973,326.067,349.26,313.742z M330.004,323.792
	c2.121,4.606,4.137,9.262,6.003,13.984c2.475-4.721,5.396-13.55-0.696-22.399c-8.936-12.979-9.104-9.933-12.984-19.875
	c-3.879-9.942-7.956-19.312-14.459-16.827c-6.499,2.487-3.74,14.312,2.342,22.418c6.08,8.106,3.857,16.122,7.09,25.64
	c3.734,11.005,11.287,13.689,14.721,14.346c1.028,3.12,1.83,6.304,2.499,9.526h2.339c-0.688-3.372-1.526-6.694-2.591-9.957
	c0.27-0.383,0.631-0.924,1.041-1.615c-2.628-6.73-5.556-13.333-8.696-19.834c-0.178,0.193-0.477,0.288-0.75,0.089
	c-2.953-2.133-5.664-4.607-8.828-6.439c-0.613-0.356-0.166-1.375,0.453-1.014c3.071,1.779,5.729,4.114,8.568,6.215
	c-3.965-8.119-8.274-16.074-12.836-23.876c-0.359-0.615,0.533-1.272,0.894-0.659c5.404,9.241,10.464,18.689,15.013,28.375
	c0.198-1.775,0.36-3.55,0.1-5.338c-0.102-0.708,1.004-0.814,1.108-0.107c0.349,2.408-0.037,4.808-0.285,7.204
	C330.042,323.707,330.019,323.748,330.004,323.792z"></path>
<path id="color_x5F_6" fill="#4a90e2" d="M134.896,338.879l-7.344,16.666l-0.07-0.019l-10.459-2.764l-13.811-3.651l-9.265-2.449
	l-0.604-0.16l18.03-41.443c0.137,3.213,0.616,6.267,1.018,8.349c0.862,4.882,2.83,9.944,5.543,12.925
	c0.002,0.016,0.002,0.03,0.005,0.043C118.872,329.81,128.094,336.998,134.896,338.879z M145.836,303.475l-1.529-0.826l-6.159-3.327
	l1.177-1.891l-1.507-0.938l-9.051-5.63l-0.731-0.455l-1.608,2.584l-2.945-1.591c-0.514-0.277-1.091-0.383-1.699-0.352
	c1.456,0.439,2.746,1.503,3.524,3.542c0.418,1.093,3.155,23.754,2.536,27.348c2.351,1.027,8.164,9.069,8.164,9.069
	s0.71,0.764,1.553,1.825l4.361-9.897l4.26-9.667c1.477-2.732,1.896-5.584,1.306-7.573
	C147.189,304.696,146.643,303.91,145.836,303.475z M438.216,325.443l-3.896-4.778c-5.407-7.639-6.47-15.83,2.91-18.681
	c-0.752-0.399-1.578-0.621-2.446-0.621h-10.334v-2.68h-11.928h-1.436v2.68h-8.674c-2.063,0-3.888,1.252-5.04,3.18
	c-0.798,1.334-1.276,2.989-1.276,4.789l3.791,21.188l1.934,10.809l-0.289,18.58h0.694h18.619c2.304-2.472,5.578-4.026,9.224-4.026
	c1.623,0,3.17,0.317,4.595,0.876c0.479,0.188,0.949,0.395,1.398,0.637l-0.478-17.238L438.216,325.443z"></path>
<path id="color_x5F_5" fill="#e89c7c" d="M145.836,303.475l-1.529-0.826C144.839,302.801,145.354,303.066,145.836,303.475z
	 M157.393,324.674c-0.023-0.083-0.045-0.16-0.064-0.227c-0.063-0.212-0.106-0.339-0.106-0.339s-6.3-12.954-9.735-18.412
	c0.591,1.989,0.171,4.841-1.306,7.573l-4.26,9.667c1.561,2.118,3.294,4.091,5.05,5.695c-0.608,4.342,1.823,21.1,1.823,21.1
	s-0.069,1.734,0.019,3.762c-0.024,0.008-0.05,0.008-0.075,0.016c-2.66,0.854-4.136,3.673-3.296,6.299
	c0.842,2.626,3.681,4.065,6.343,3.213s4.138-3.672,3.296-6.298c-0.184-0.572-0.476-1.074-0.825-1.522
	c2.523-6.606,3.745-18.581,3.592-25.798C158.115,327.648,157.661,325.633,157.393,324.674z M137.817,296.494l-9.051-5.63
	l3.961-5.568c0.032,0.559,0.102,1.115,0.235,1.661l0.009,0.007c0.88,0.962,3.372-2.07,2.446-2.67
	c-0.718-0.467-0.219-2.022-0.037-2.723c0.048-0.187,0.079-0.327,0.053-0.354c0-0.007,0-0.007,0-0.007
	c-0.147-0.074,1.279-2.604,2.737-1.657c0.846,0.552,0.712,1.821,0.45,2.795c-0.047,0.176-0.097,0.346-0.147,0.496
	c-0.14,0.415-0.274,0.71-0.296,0.762c0.052-0.052,0.281-0.258,0.621-0.591c0.081-0.076,0.175-0.165,0.269-0.253
	c0.908-0.858,2.372-2.251,3.764-3.607l1.729,1.164v0l8.227,5.541c-0.147,0.215-0.299,0.427-0.468,0.632l-3.445,4.2
	c-2.804,3.417-5.496,5.969-8.795,4.26c-0.263-0.134-0.534-0.308-0.808-0.5l-0.383,0.539L137.817,296.494z M147.75,287.886
	c0,0.406,0.327,0.734,0.733,0.734c0.405,0,0.735-0.329,0.735-0.734s-0.33-0.735-0.735-0.735
	C148.077,287.151,147.75,287.48,147.75,287.886z M142.639,284.37c0,0.406,0.327,0.735,0.735,0.735c0.405,0,0.734-0.329,0.734-0.735
	c0-0.405-0.329-0.734-0.734-0.734C142.966,283.636,142.639,283.965,142.639,284.37z M145.425,334.992
	c-1.694-2.046-4.691-2.358-6.835-0.784c-0.341-0.487-0.695-0.954-1.03-1.375c-0.843-1.061-1.553-1.825-1.553-1.825
	s-5.813-8.042-8.164-9.069c0.619-3.594-2.118-26.255-2.536-27.348c-0.778-2.039-2.068-3.103-3.524-3.542
	c-3.369-1.016-7.63,1.336-8.513,2.862c-1.706,2.935-2.065,7.165-1.896,11.148c0.137,3.213,0.616,6.267,1.018,8.349
	c0.862,4.882,2.83,9.944,5.543,12.925c0.002,0.016,0.002,0.03,0.005,0.043c0.934,3.432,10.155,10.621,16.957,12.501
	c0.593,0.164,1.167,0.289,1.716,0.366c0.153,0.785,0.476,1.545,1.02,2.202c1.759,2.124,4.931,2.402,7.082,0.62
	C146.866,340.283,147.183,337.117,145.425,334.992z M397.372,304.542c-0.042,0.049-0.09,0.086-0.132,0.136
	c-2.346,2.836-7.498,16.163-7.766,17.546c-2.65,1.337-6.684,4.993-10.36,9.121c-2.251,2.528-4.366,5.232-5.945,7.688
	c-0.755-0.264-1.58-0.361-2.427-0.208c-2.594,0.467-4.32,2.918-3.86,5.477c0.462,2.557,2.935,4.253,5.527,3.787
	c1.848-0.333,3.239-1.681,3.729-3.351c5.854-2.126,14.294-6.518,15.659-7.932c2.974-1.496,5.698-3.7,8.09-6.288l-3.791-21.188
	C396.096,307.531,396.574,305.876,397.372,304.542z M416.905,296.17c-1.184-0.329-2.787-0.691-4.384-1.144v3.655h11.928v-6.836
	c-0.659,0.527-1.162,0.716-1.339,0.662C423.11,292.507,420.376,297.135,416.905,296.17z M413.293,285.722
	c-2.755-0.862-4.964-0.125-5.151-0.059c0.141-0.528,0.301-1.07,0.474-1.622l1.527-4.885c0.015-0.046,0.034-0.088,0.05-0.134
	l8.322,2.755l2.402,0.795c0.223,1.613-0.572,3.604-1.212,4.982c-0.192,0.415-0.37,0.776-0.502,1.053
	c-0.391-0.298-0.926-0.663-1.609-1.053C416.543,286.956,415.133,286.297,413.293,285.722z M417.271,284.975
	c0.275,0.12,0.646-0.146,0.836-0.587c0.188-0.442,0.117-0.899-0.157-1.018c-0.278-0.12-0.649,0.144-0.837,0.585
	C416.924,284.399,416.998,284.857,417.271,284.975z M412.026,281.519c-0.274-0.12-0.649,0.143-0.835,0.585
	c-0.189,0.444-0.117,0.9,0.156,1.019c0.275,0.12,0.647-0.145,0.836-0.586C412.373,282.093,412.299,281.637,412.026,281.519z
	 M423.759,285.429c-0.389-0.418-1.381,0.802-2.277,2.126c-0.804,1.187-1.53,2.458-1.675,2.715c-0.425,2.551,3.304,2.237,3.304,2.237
	s0.952-2.801,1.075-4.952C424.238,286.641,424.144,285.842,423.759,285.429z M454.885,329.608
	c-0.005-0.012-1.722-8.639-4.152-12.629c-2.266-3.859-7.972-16.675-13.503-14.996c-9.38,2.851-8.317,11.042-2.91,18.681l3.896,4.778
	l1.993,2.444c0,0,2.23,2.593,4.907,4.75c-1.023,2.19-0.128,11.501-0.128,11.501s-0.054,1.97,0.175,3.957
	c-0.587-0.122-1.205-0.141-1.833-0.028c-2.591,0.467-4.318,2.919-3.858,5.477c0.462,2.557,2.936,4.254,5.526,3.787
	c2.594-0.467,4.322-2.919,3.862-5.478c-0.033-0.186-0.1-0.356-0.154-0.533C453.526,347.33,456.61,333.125,454.885,329.608z
	 M412.555,291.4c0.731,0.386,1.41,0.451,2.256,0.282c0.847-0.169,1.129-1.298,1.129-1.298s0,0-0.826-0.15
	c-0.827-0.151-1.262-0.752-1.262-0.752s0,0-0.508,0.451c-0.229,0.204-0.545,0.273-0.822,0.292c-0.335,0.022-0.615-0.032-0.615-0.032
	s0.192,0.915,0.615,1.182C412.533,291.382,412.543,291.394,412.555,291.4z"></path>
<path id="color_x5F_4" fill="#00CEC9" d="M144.108,284.37c0,0.406-0.329,0.735-0.734,0.735c-0.408,0-0.735-0.329-0.735-0.735
	c0-0.405,0.327-0.734,0.735-0.734C143.779,283.636,144.108,283.965,144.108,284.37z M148.483,287.151
	c-0.406,0-0.733,0.329-0.733,0.735s0.327,0.734,0.733,0.734c0.405,0,0.735-0.329,0.735-0.734S148.889,287.151,148.483,287.151z
	 M440.402,416.068c0.099-6.333-1.516-10.475-3.742-13.195c-0.627-4.866-1.722-14.035-2.269-22.53
	c-1.125,0.411-2.322,0.665-3.57,0.738l-10.293,14.143c1.58,7.055,3.356,14.941,4.918,21.863h14.959
	C440.399,416.717,440.397,416.37,440.402,416.068z M400.952,377.093c-0.092,5.496,0.157,10.999,0.439,15.221l11.077-15.221H400.952z
	 M408.241,412.108c0.193,0.88,0.304,1.792,0.304,2.729c0,0.769-0.08,1.519-0.212,2.25h7.262c0.004-0.463,0.014-0.892,0.034-1.233
	c0.309-5.056-0.444-8.791-1.696-11.568L408.241,412.108z M417.95,283.371c-0.278-0.12-0.649,0.144-0.837,0.585
	c-0.189,0.443-0.115,0.901,0.158,1.019c0.275,0.12,0.646-0.146,0.836-0.587C418.295,283.946,418.225,283.489,417.95,283.371z
	 M411.348,283.123c0.275,0.12,0.647-0.145,0.836-0.586c0.189-0.443,0.115-0.899-0.157-1.018c-0.274-0.12-0.649,0.143-0.835,0.585
	C411.002,282.548,411.074,283.004,411.348,283.123z"></path>
<path id="color_x5F_3" fill="#c9253b" d="M318.106,361.146h16.4v15.947h-16.4V361.146z M448.369,377.093h16.4v-15.947h-16.4V377.093
	z M469.673,377.093h16.4v-15.947h-16.4V377.093z M491.073,361.146v15.947h16.4v-15.947H491.073z M278.256,377.093h16.4v-15.947
	h-16.4V377.093z"></path>
<path id="color_x5F_2" fill="#254c72" d="M144.247,372.299l39.689-23.155v5.935v1.16l-34.718,20.255l-1.884,1.099L144.247,372.299z
	 M203.063,304.643l0.778,0.542l1.441-1.976l-4.135-3.014l-22.803,31.265l4.135,3.016l1.457-1.998v-0.729h0.531l0.021-0.03
	l-0.196-0.137L203.063,304.643z M206.192,431.156h-12v11.215h65.062v-11.215h-14.062H206.192z M262.125,395.773h4.067h104h4.691
	v-5.607H262.125V395.773z M201.85,359.785c0-7.139,5.237-13.04,12.077-14.109c0.727-0.113,1.464-0.189,2.222-0.189
	c4.187,0,7.941,1.811,10.557,4.68c2.316,2.541,3.741,5.91,3.741,9.619c0,3.502-1.264,6.706-3.354,9.192
	c-2.623,3.12-6.55,5.106-10.944,5.106c-3.174,0-6.097-1.047-8.469-2.796C204.149,368.683,201.85,364.508,201.85,359.785z
	 M208.335,359.785c0,2.636,1.309,4.961,3.308,6.376c1.274,0.902,2.826,1.437,4.506,1.437c2.748,0,5.161-1.422,6.554-3.567
	c0.793-1.223,1.259-2.679,1.259-4.245c0-1.625-0.497-3.133-1.345-4.383c-1.271-1.873-3.336-3.164-5.71-3.393
	c-0.249-0.024-0.502-0.038-0.758-0.038C211.833,351.972,208.335,355.471,208.335,359.785z M244.776,306.166
	c-0.073-0.498-0.124-1.004-0.124-1.523c0-5.727,4.642-10.37,10.369-10.37c0.494,0,0.977,0.046,1.452,0.113
	c2.726,0.383,5.107,1.821,6.723,3.894c1.369,1.758,2.193,3.962,2.193,6.363c0,5.726-4.643,10.369-10.368,10.369
	c-0.282,0-0.559-0.02-0.835-0.042C249.359,314.584,245.476,310.897,244.776,306.166z M249.354,304.643
	c0,3.129,2.537,5.666,5.667,5.666c3.128,0,5.665-2.536,5.665-5.666c0-3.129-2.537-5.667-5.665-5.667
	C251.892,298.977,249.354,301.514,249.354,304.643z M408.241,412.108c0.193,0.88,0.304,1.792,0.304,2.729
	c0,0.769-0.08,1.519-0.212,2.25c-0.52,2.883-2.016,5.422-4.139,7.267c-2.215,1.927-5.102,3.102-8.268,3.102
	c-6.201,0-11.346-4.475-12.407-10.369c-0.132-0.731-0.212-1.481-0.212-2.25c0-6.338,4.677-11.57,10.766-12.468
	c0.606-0.09,1.223-0.151,1.854-0.151c2.369,0,4.577,0.665,6.472,1.801C405.325,405.774,407.482,408.674,408.241,412.108z
	 M398.438,421.253c1.871-0.733,3.34-2.258,4-4.166c0.244-0.706,0.383-1.461,0.383-2.25c0-3.808-3.088-6.896-6.895-6.896
	c-3.668,0-6.659,2.867-6.875,6.48c-0.009,0.138-0.021,0.275-0.021,0.416c0,0.789,0.139,1.544,0.383,2.25
	c0.934,2.702,3.494,4.645,6.514,4.645C396.813,421.732,397.659,421.559,398.438,421.253z M442.687,368.5
	c0,5.447-3.459,10.075-8.295,11.842c-1.125,0.411-2.322,0.665-3.57,0.738c-0.251,0.015-0.499,0.038-0.753,0.038
	c-3.646,0-6.921-1.555-9.224-4.026c-1.758-1.887-2.943-4.307-3.283-6.997c-0.066-0.524-0.112-1.054-0.112-1.596
	c0-3.052,1.083-5.851,2.886-8.033c0.162-0.195,0.338-0.376,0.51-0.561c2.304-2.472,5.578-4.026,9.224-4.026
	c1.623,0,3.17,0.317,4.595,0.876c0.479,0.188,0.949,0.395,1.398,0.637C440.006,359.527,442.687,363.701,442.687,368.5z
	 M436.782,366.954c-0.037-0.162-0.075-0.322-0.123-0.479c-0.365-1.189-1.048-2.237-1.943-3.057
	c-1.227-1.123-2.854-1.813-4.647-1.813c-0.2,0-0.398,0.013-0.595,0.03c-3.529,0.302-6.302,3.259-6.302,6.866
	c0,3.809,3.088,6.895,6.896,6.895c1.507,0,2.897-0.489,4.032-1.311c1.201-0.869,2.113-2.109,2.559-3.559
	c0.197-0.641,0.304-1.321,0.304-2.026C436.963,367.968,436.896,367.452,436.782,366.954z M446.342,384.559v11.215h2.027h61.008
	h2.026v-11.215H446.342z"></path>
<path id="color_x5F_1" fill="#b5b5b4" d="M127.481,355.526c3.885,10.76,8.616,26.731,7.63,31.278c0,0.002-3.853,48.765-3.853,48.765
	l-4.493-0.081c0,0-10.212-41.291-6.387-48.914c0.13-0.256-4.784-7.38-7.426-11.486c-2.182,9.437-4.384,18.929-4.384,18.929
	l-16.292,41.387l-4.495-0.08c0,0,3.486-43.628,5.848-46.514c1.372-10.641,1.034-26.042-0.47-33.11
	c-0.604-2.837-0.169-5.969,0.787-9.039l9.265,2.449l13.811,3.651L127.481,355.526z M152.786,285.859l8.118,5.468
	c0.352,0.235,0.854,0.102,1.121-0.298c0.271-0.4,0.204-0.915-0.145-1.15l-6.165-4.152c2.943-5.469,1.822-12.016-2.801-15.129
	c-4.97-3.347-12.099-1.458-15.921,4.218c-0.063,0.095-0.114,0.193-0.176,0.288l0.756,0.509l5.257,3.541l1.729,1.164v0
	L152.786,285.859z M402.139,276.357l8.054,2.666l8.322,2.755l2.402,0.795l0.296,0.098h0.001l5.346,1.771l2.07,0.685l1.616,0.535
	c0.039-0.109,0.084-0.212,0.123-0.322c2.191-6.623-0.73-13.551-6.53-15.47c-5.396-1.787-11.375,1.394-13.948,7.179l-7.193-2.382
	c-0.408-0.135-0.864,0.133-1.018,0.601C401.523,275.734,401.73,276.221,402.139,276.357z M227.093,368.977
	c-2.623,3.12-6.55,5.106-10.944,5.106c-3.174,0-6.097-1.047-8.469-2.796l8.068,41.869h-9.556v18h39v-18h-9.586L227.093,368.977z
	 M244.776,306.166l-30.85,39.51c0.727-0.113,1.464-0.189,2.222-0.189c4.187,0,7.941,1.811,10.557,4.68l27.481-35.196
	C249.359,314.584,245.476,310.897,244.776,306.166z M277.811,305.408l15.694-0.014l-0.04-44.499l-15.693,0.013l0.006,6.674
	l-21.304,26.805c2.726,0.383,5.107,1.821,6.723,3.894l14.592-18.36L277.811,305.408z M266.192,442.371h104v-46.597h-104V442.371z
	 M425.446,417.087h-9.852h-7.262c-0.52,2.883-2.016,5.422-4.139,7.267c-2.215,1.927-5.102,3.102-8.268,3.102
	c-6.201,0-11.346-4.475-12.407-10.369h-0.327v25.283H444.2v-25.283h-3.795H425.446z M448.369,395.773v46.597h61.008v-46.597H448.369
	z M400.952,377.093h11.517l-11.077,15.221l-7.318,10.056c0.606-0.09,1.223-0.151,1.854-0.151c2.369,0,4.577,0.665,6.472,1.801
	c2.927,1.756,5.084,4.655,5.843,8.089l5.691-7.822l6.596-9.062l10.293-14.143c-0.251,0.015-0.499,0.038-0.753,0.038
	c-3.646,0-6.921-1.555-9.224-4.026c-1.758-1.887-2.943-4.307-3.283-6.997c-0.066-0.524-0.112-1.054-0.112-1.596
	c0-3.052,1.083-5.851,2.886-8.033c0.162-0.195,0.338-0.376,0.51-0.561h-18.619h-0.694h-31.339v4.935h-8.44v-7.884v-4.147v-2.206
	h-13.14h-2.509h-0.544h-2.323h-6.379h-2.339h-5.383v6.353h26.264v22.68h-26.264v6.353h32.616v-0.563v-5.789v-8.443h8.44v5.898
	H400.952z M203.841,305.185l-0.778-0.542l-18.77,26.939l0.196,0.137l0.043,0.03h-0.064h-0.531v0.729v16.667v5.935v1.16
	l-34.718,20.255v65.712h40.846v-77.624v-12.427v-18.137l18.026-25.873L203.841,305.185z"></path>
</svg>