<?xml version="1.0" standalone="no"?>
<svg version="1.1" id="Layer_1" xmlns="http://www.w3.org/2000/svg" xmlns:xlink="http://www.w3.org/1999/xlink" x="0px" y="0px" width="595.28px" height="595.28px" viewBox="0 0 595.28 595.28" enable-background="new 0 0 595.28 595.28" xml:space="preserve">
<path id="color_x5F_6" fill="#7ed321" d="M151.647,250.221h0.754v37.186c-0.418,0.049-0.843,0.082-1.268,0.117
	c-0.554,0.047-1.108,0.074-1.677,0.088c-0.24,0.014-0.486,0.021-0.726,0.021l-1.486-23.279v-0.004l-0.28-4.369v-0.004l-0.274-4.299
	h-1.267h-0.555l-0.458,4.299l0,0.004l-0.718,6.782v0.001l-2.157,20.293c-0.343-0.055-0.671-0.123-1.007-0.191v-18.576v-8.309v-6.315
	v-1.28v-2.164H151.647z M453.915,250.021l-0.491-1.012c-1.651-0.014-2.256-0.807-2.256-0.807l-0.292-0.751l-0.456,0.456v0.707
	h-0.707l-7.794,7.803l-2.917-9.119h-0.001l-4.403-0.043l-0.015,0.129c-2.227-0.541-5.917,0.771-7.898,3.928
	c-1.665,2.652-4.123,13.01-4.123,13.01s-1.211,5.838-1.514,10.658c0.274,0.238,0.548,0.469,0.829,0.693
	c1.175,0.957,2.4,1.852,3.683,2.674c0.274,0.172,0.548,0.346,0.829,0.512c1.391-1.688,2.789-4.137,4.087-6.941
	c1.369,3.178,2.674,6.977,2.724,10.033v0.201c1.499,0.563,3.042,1.031,4.613,1.398c2.608-2.805,5.03-5.607,6.147-7.432
	c3.157-5.145,8.007-19.941,9.953-26.096C453.914,250.022,453.915,250.021,453.915,250.021z M467.918,267.023
	c0-0.002-0.001-0.004-0.002-0.006c-0.252-0.898-0.525-1.797-0.798-2.688c-1.874-6.004-4.188-11.482-5.767-13.494
	c-0.828-1.506-2.046-2.615-3.474-3.111h-0.001c-0.391,0.197-0.757,0.362-1.107,0.508c0,0.002,0,0.002-0.001,0.004
	c-0.238,0.857-0.728,2.606-1.34,4.904c0,0,0,0.001,0,0.002c-1.139,4.311-2.703,10.561-3.87,16.441
	c-1.269,6.377-2.062,12.33-1.341,14.932c1.448-0.107,2.868-0.295,4.26-0.555c-0.462-1.91-0.75-3.611-0.707-4.793
	c0.094-2.637,1.629-7.213,3.395-11.646c0.08-0.223,0.174-0.439,0.26-0.662c0.065,0.164,0.123,0.33,0.188,0.496
	c1.749,4.663,3.828,9.771,4.774,12.083c0.002-0.01,0.002-0.022,0.004-0.032c0.179-0.906,0.97-1.888,2.857-2.953
	c0.622-0.351,1.367-0.711,2.244-1.08c0.646-0.272,1.358-0.549,2.159-0.832C469.238,272.168,468.635,269.594,467.918,267.023z
	 M152.401,250.221h-0.754h-11.119v2.164v1.28v6.315v8.309v18.576c0.336,0.068,0.664,0.137,1.007,0.191l2.157-20.293v-0.001
	l0.718-6.782l0-0.004l0.458-4.299h0.555h1.267l0.274,4.299v0.004l0.28,4.369v0.004l1.486,23.279c0.239,0,0.485-0.008,0.726-0.021
	c0.568-0.014,1.123-0.041,1.677-0.088c0.425-0.035,0.85-0.068,1.268-0.117 M453.915,250.021l-0.491-1.012
	c-1.651-0.014-2.256-0.807-2.256-0.807l-0.292-0.751l-0.456,0.456v0.707h-0.707l-7.794,7.803l-2.917-9.119h-0.001l-4.403-0.043
	l-0.015,0.129c-2.227-0.541-5.917,0.771-7.898,3.928c-1.665,2.652-4.123,13.01-4.123,13.01s-1.211,5.838-1.514,10.658
	c0.274,0.238,0.548,0.469,0.829,0.693c1.175,0.957,2.4,1.852,3.683,2.674c0.274,0.172,0.548,0.346,0.829,0.512
	c1.391-1.688,2.789-4.137,4.087-6.941c1.369,3.178,2.674,6.977,2.724,10.033v0.201c1.499,0.563,3.042,1.031,4.613,1.398
	c2.608-2.805,5.03-5.607,6.147-7.432c3.157-5.145,8.007-19.941,9.953-26.096C453.914,250.022,453.915,250.021,453.915,250.021z
	 M467.918,267.023c0-0.002-0.001-0.004-0.002-0.006c-0.252-0.898-0.525-1.797-0.798-2.688c-1.874-6.004-4.188-11.482-5.767-13.494
	c-0.828-1.506-2.046-2.615-3.474-3.111h-0.001c-0.391,0.197-0.757,0.362-1.107,0.508c0,0.002,0,0.002-0.001,0.004
	c-0.238,0.857-0.728,2.606-1.34,4.904c0,0,0,0.001,0,0.002c-1.139,4.311-2.703,10.561-3.87,16.441
	c-1.269,6.377-2.062,12.33-1.341,14.932c1.448-0.107,2.868-0.295,4.26-0.555c-0.462-1.91-0.75-3.611-0.707-4.793
	c0.094-2.637,1.629-7.213,3.395-11.646c0.08-0.223,0.174-0.439,0.26-0.662c0.065,0.164,0.123,0.33,0.188,0.496
	c1.749,4.663,3.828,9.771,4.774,12.083c0.002-0.01,0.002-0.022,0.004-0.032c0.179-0.906,0.97-1.888,2.857-2.953
	c0.622-0.351,1.367-0.711,2.244-1.08c0.646-0.272,1.358-0.549,2.159-0.832C469.238,272.168,468.635,269.594,467.918,267.023z"></path>
<path id="color_x5F_5" fill="#e2e2e2" d="M89.971,387.131h116.412V178.92H89.971V387.131z M179.177,360.639h-62
	c-0.829,0-1.5-0.672-1.5-1.5s0.671-1.5,1.5-1.5h62c0.828,0,1.5,0.672,1.5,1.5S180.005,360.639,179.177,360.639z M179.177,347.639
	h-62c-0.829,0-1.5-0.672-1.5-1.5s0.671-1.5,1.5-1.5h62c0.828,0,1.5,0.672,1.5,1.5S180.005,347.639,179.177,347.639z
	 M179.177,334.639h-62c-0.829,0-1.5-0.672-1.5-1.5s0.671-1.5,1.5-1.5h62c0.828,0,1.5,0.672,1.5,1.5S180.005,334.639,179.177,334.639
	z M116.677,308.508c0-2.977,2.412-5.389,5.388-5.389h52.224c2.976,0,5.389,2.412,5.389,5.389c0,2.975-2.413,5.389-5.389,5.389
	h-52.224C119.089,313.896,116.677,311.482,116.677,308.508z M148.177,211.639c20.985,0,38,17.014,38,38
	c0,8.332-2.685,16.043-7.237,22.307c-0.869,1.191-1.801,2.336-2.794,3.418c-0.28,0.301-0.562,0.602-0.862,0.896
	c-1.431,1.465-2.992,2.82-4.649,4.039c-0.089,0.063-0.185,0.131-0.28,0.199c-0.123,0.088-0.247,0.178-0.37,0.26
	c-0.027-0.268-3.313,1.691-3.313,1.691c0.226-0.021,0.466-0.035,0.705-0.035h0.041c-0.198,0.117-0.404,0.234-0.603,0.344
	c-0.308,0.178-0.616,0.342-0.924,0.506c-0.315,0.164-0.63,0.328-0.952,0.486l-0.021,0.199c-0.034-0.041-0.068-0.09-0.109-0.137
	c-0.616,0.301-1.239,0.588-1.876,0.855c-2.465,1.039-5.053,1.82-7.751,2.326c-0.91,0.172-1.842,0.309-2.779,0.412
	c-0.418,0.049-0.843,0.082-1.268,0.117c-0.554,0.047-1.108,0.074-1.677,0.088c-0.24,0.014-0.486,0.021-0.726,0.021
	c-0.186,0.006-0.37,0.006-0.555,0.006c-2.267,0-4.484-0.199-6.642-0.582c-0.343-0.055-0.671-0.123-1.007-0.191
	c-0.396-0.082-0.787-0.164-1.178-0.26c-1.492-0.35-2.957-0.795-4.382-1.328c-1.096-0.404-2.163-0.857-3.204-1.355
	c-1.123-0.535-2.212-1.131-3.267-1.773c-0.267-0.158-0.526-0.322-0.787-0.486c-0.39-0.246-0.767-0.5-1.144-0.768
	c-0.109,0.117-0.226,0.227-0.335,0.336l-0.041-0.604c-0.678-0.479-1.335-0.979-1.979-1.506c-0.268-0.211-0.527-0.432-0.788-0.656
	c-1.369-1.164-2.643-2.438-3.827-3.787c-0.219-0.246-0.432-0.5-0.644-0.754c-0.521-0.623-1.021-1.266-1.506-1.93
	c-4.574-6.271-7.271-14.002-7.271-22.355C110.177,228.652,127.191,211.639,148.177,211.639z M467.553,278.793
	c-0.118,0.108-0.224,0.209-0.31,0.295C467.194,279.065,467.244,278.994,467.553,278.793z M388.897,178.92v208.211H505.31V178.92
	H388.897z M478.104,360.639h-62c-0.829,0-1.5-0.672-1.5-1.5s0.671-1.5,1.5-1.5h62c0.828,0,1.5,0.672,1.5,1.5
	S478.932,360.639,478.104,360.639z M478.104,347.639h-62c-0.829,0-1.5-0.672-1.5-1.5s0.671-1.5,1.5-1.5h62
	c0.828,0,1.5,0.672,1.5,1.5S478.932,347.639,478.104,347.639z M478.104,334.639h-62c-0.829,0-1.5-0.672-1.5-1.5s0.671-1.5,1.5-1.5
	h62c0.828,0,1.5,0.672,1.5,1.5S478.932,334.639,478.104,334.639z M415.604,307.508c0-2.977,2.412-5.389,5.388-5.389h52.224
	c2.976,0,5.389,2.412,5.389,5.389c0,2.975-2.413,5.389-5.389,5.389h-52.224C418.016,312.896,415.604,310.482,415.604,307.508z
	 M479.485,268.119c-0.915,1.256-1.896,2.459-2.94,3.598c-1.759,1.91-3.705,3.654-5.802,5.195c-0.069,0.049-0.145,0.103-0.219,0.156
	l0.017,0.051c-0.133,0.07-0.251,0.135-0.375,0.201c-0.036,0.025-0.072,0.052-0.108,0.076c0-0.004-0.001-0.009-0.001-0.013
	c-0.882,0.586-2.954,1.956-3.057,2.026c-0.002-0.02,0.015-0.053,0.041-0.092c-0.107,0.062-0.214,0.123-0.319,0.182
	c-0.324,0.188-0.649,0.361-0.974,0.533c-1.016,0.533-2.054,1.031-3.113,1.479c-2.595,1.094-5.319,1.916-8.158,2.449
	c-1.392,0.26-2.812,0.447-4.26,0.555c-0.584,0.051-1.167,0.08-1.766,0.094c-0.447,0.023-0.894,0.029-1.348,0.029
	c-3.2,0-6.307-0.375-9.29-1.088c-1.571-0.367-3.114-0.836-4.613-1.398c-1.153-0.426-2.277-0.9-3.373-1.426
	c-1.182-0.563-2.327-1.189-3.438-1.867c-0.281-0.166-0.555-0.34-0.829-0.512c-1.282-0.822-2.508-1.717-3.683-2.674
	c-0.281-0.225-0.555-0.455-0.829-0.693c-1.441-1.225-2.781-2.564-4.028-3.984c-0.23-0.26-0.454-0.527-0.678-0.793
	c-5.772-6.934-9.239-15.848-9.239-25.564c0-22.09,17.91-40,40-40s40,17.91,40,40C487.104,253.41,484.278,261.525,479.485,268.119z
	 M463.709,273.287c-0.396-0.49-0.648-1.037-0.786-1.629L463.709,273.287z M452.653,247.422l2.075,0.02
	c-0.079,0.238-0.238,0.764-0.474,1.51c0,0.002-0.001,0.004-0.001,0.006c-0.102,0.316-0.208,0.668-0.338,1.064l-0.491-1.012
	c-1.651-0.014-2.256-0.807-2.256-0.807l-0.292-0.751l0.045-0.046h0.001L452.653,247.422z M457.871,247.725h0.006
	c-0.391,0.197-0.757,0.362-1.107,0.508c0.107-0.38,0.164-0.582,0.164-0.582l-1.196-0.201l0.526,0.008
	C456.818,247.457,457.359,247.551,457.871,247.725z M461.136,266.059l2.998-1.102c-0.015,0.043-0.115,0.244-0.26,0.561
	c0,0,0,0,0,0.008l-2.58,0.943L461.136,266.059L461.136,266.059z M461.294,266.469L461.294,266.469l0.324,0.834
	c0,0,0.4,0.516,1.422,0.723c0,0.003-0.001,0.005-0.002,0.008c-0.273,1.146-0.41,2.451-0.115,3.625l-2.385-4.908L461.294,266.469z
	 M449.714,248.615l0.707-0.707v0.707H449.714z M450.421,247.398l0.147,0.003l-0.147-0.001l-1.572-0.015l1.57,0.013H450.421z
	 M228.366,406.861h50.961c1.626-8.842,9.359-15.545,18.671-15.545s17.044,6.703,18.671,15.545h50.246V159.055H228.366V406.861z
	 M335.556,368.594h-75.831c-1.013,0-1.834-0.672-1.834-1.5s0.821-1.5,1.834-1.5h75.831c1.014,0,1.834,0.672,1.834,1.5
	S336.569,368.594,335.556,368.594z M335.556,355.594h-75.831c-1.013,0-1.834-0.672-1.834-1.5s0.821-1.5,1.834-1.5h75.831
	c1.014,0,1.834,0.672,1.834,1.5S336.569,355.594,335.556,355.594z M335.556,342.594h-75.831c-1.013,0-1.834-0.672-1.834-1.5
	s0.821-1.5,1.834-1.5h75.831c1.014,0,1.834,0.672,1.834,1.5S336.569,342.594,335.556,342.594z M329.14,296.594
	c3.59,0,6.5,2.91,6.5,6.5s-2.91,6.5-6.5,6.5h-63c-3.59,0-6.5-2.91-6.5-6.5s2.91-6.5,6.5-6.5H329.14z M297.64,168.594
	c30.65,0,55.5,24.85,55.5,55.5c0,12.17-3.92,23.43-10.57,32.58c-3.9,5.369-8.73,10.01-14.27,13.689c-1.54,1.02-3.14,1.971-4.79,2.84
	c-7.72,4.08-16.53,6.391-25.87,6.391c-0.197,0-0.39-0.015-0.586-0.017c-0.181,0.002-0.358,0.017-0.539,0.017
	c-8.58,0-16.71-1.951-23.97-5.43l-0.064-0.617c-1.621-0.826-3.205-1.711-4.73-2.684c-0.216-0.139-0.421-0.292-0.635-0.434
	c-0.164,0.143-0.327,0.296-0.49,0.434c-1.78-1.141-3.48-2.381-5.11-3.711c-2.43-1.959-4.68-4.139-6.74-6.488
	c-0.32-0.361-0.63-0.73-0.94-1.102c0.39,0.09,0.76,0.182,1.11,0.271c0.016-0.078,0.033-0.153,0.049-0.23
	c-0.011-0.014-0.023-0.027-0.035-0.041c-8.01-9.619-12.82-21.988-12.82-35.469C242.14,193.443,266.99,168.594,297.64,168.594z"></path>
<path id="color_x5F_4" fill="#ffc179" d="M150.545,235.924c-0.854-0.494-1.691,2.678-1.835,3.254
	c-0.015,0.057-0.024,0.098-0.024,0.098s-0.007-0.041-0.018-0.098c-0.049-0.281-0.195-1.163-0.195-1.814
	c0-0.781-0.04-2.088-1.785-3.994c-0.229-0.25-0.387-0.541-0.494-0.855h-9.528c-0.1,0.508-0.155,1.033-0.155,1.57v4.895
	c0,4.08,0.442,7.446,3.877,8.039l0.141,3.203h11.119V243.1c0.104-0.176,0.217-0.346,0.308-0.529
	C151.955,242.57,152.099,236.818,150.545,235.924z M138.713,237.361c-0.279-0.029-0.472-0.426-0.429-0.887
	c0.044-0.455,0.307-0.803,0.589-0.771c0.28,0.029,0.475,0.426,0.429,0.885C139.256,237.043,138.995,237.391,138.713,237.361z
	 M144.73,235.703c0.279,0.029,0.475,0.426,0.429,0.885c-0.045,0.455-0.307,0.803-0.589,0.773c-0.279-0.029-0.472-0.426-0.43-0.887
	C144.187,236.02,144.448,235.672,144.73,235.703z M470.524,277.068l-0.117-0.345l-0.741-2.188c-0.006,0.002-0.012,0.004-0.018,0.006
	c-0.801,0.283-1.513,0.56-2.159,0.832c-0.877,0.369-1.622,0.729-2.244,1.08c-1.887,1.065-2.678,2.047-2.857,2.953
	c-0.002,0.01-0.002,0.022-0.004,0.032c-0.059,0.295-0.081,0.622-0.045,0.962c0.028,0.268,0.129,0.627,0.295,1.068
	c1.06-0.447,2.098-0.945,3.113-1.479c0.319-0.169,0.639-0.341,0.958-0.524c0.005-0.003,0.011-0.006,0.016-0.009
	c0.125-0.069,0.252-0.143,0.38-0.215c-0.024,0.027-0.045,0.055-0.061,0.076c-0.026,0.039-0.043,0.072-0.041,0.092
	c0.104-0.07,2.175-1.44,3.057-2.026c0.011-0.008,0.025-0.017,0.037-0.024c0.023-0.013,0.049-0.026,0.073-0.039
	c0.123-0.066,0.242-0.131,0.375-0.201L470.524,277.068z M467.244,279.088c-0.05-0.022,0-0.094,0.31-0.295
	C467.435,278.901,467.329,279.002,467.244,279.088z M450.568,247.401l-0.147-0.001l-1.572-0.015l1.57,0.013h0.002v-1.119v-8.535
	c0.107-0.182,0.226-0.357,0.319-0.549c0,0,0.151-6.01-1.473-6.945c-0.061-0.035-0.122-0.053-0.183-0.054
	c-0.826-0.02-1.596,2.894-1.736,3.454c-0.015,0.06-0.025,0.102-0.025,0.102s-0.008-0.043-0.018-0.102
	c-0.051-0.293-0.204-1.217-0.204-1.896c0-0.816-0.041-2.182-1.865-4.174c-1.135-1.24-0.665-3.404-0.148-4.864l-0.024,0.011
	c0,0-5.363,1.354-8.08,3.424c-1.257,0.957-1.972,2.225-2.383,3.313v3.979c0,4.699,0.547,8.504,5.246,8.504h1.974v5.375l-2.818-0.025
	l0,0.002l2.917,9.119l7.794-7.803l0.707-0.707l0.456-0.456l0.045-0.046l0.002-0.002h-0.066L450.568,247.401z M436.902,231.752
	c-0.29-0.031-0.494-0.445-0.447-0.926c0.046-0.477,0.319-0.838,0.616-0.807c0.292,0.031,0.496,0.443,0.448,0.924
	C437.471,231.42,437.198,231.783,436.902,231.752z M443.192,230.02c0.291,0.031,0.495,0.443,0.447,0.924
	c-0.048,0.477-0.319,0.84-0.616,0.809c-0.29-0.031-0.493-0.445-0.446-0.926C442.622,230.35,442.896,229.988,443.192,230.02z
	 M304.122,202.996c-1.245-0.717-2.465,3.908-2.673,4.738c-0.02,0.081-0.034,0.139-0.034,0.139s-0.01-0.059-0.025-0.139
	c-0.071-0.405-0.284-1.693-0.284-2.643c0-1.139-0.059-3.039-2.6-5.813c-0.333-0.363-0.563-0.787-0.717-1.244h-13.867
	c-0.145,0.739-0.225,1.502-0.225,2.283v7.125c0,5.937,0.642,10.836,5.643,11.697v7.813h16.387v-13.469
	c0.158-0.266,0.308-0.536,0.445-0.814C306.171,212.67,306.383,204.299,304.122,202.996z M286.902,205.09
	c-0.407-0.045-0.688-0.621-0.624-1.289c0.064-0.664,0.445-1.17,0.856-1.125c0.408,0.043,0.69,0.619,0.624,1.287
	C287.692,204.627,287.313,205.133,286.902,205.09z M295.659,202.676c0.408,0.043,0.69,0.619,0.624,1.287
	c-0.065,0.664-0.445,1.17-0.856,1.127c-0.406-0.045-0.688-0.621-0.624-1.289C294.867,203.137,295.248,202.631,295.659,202.676z"></path>
<path id="color_x5F_3" fill="#222222" d="M154.349,229.59c0,0,1.296,4.404-0.259,9.52c-0.742,2.438-1.602,2.379-2.135,3.461
	c0,0,0.144-5.752-1.41-6.646c-0.854-0.494-1.691,2.678-1.835,3.254c-0.015,0.057-0.024,0.098-0.024,0.098s-0.007-0.041-0.018-0.098
	c-0.049-0.281-0.195-1.163-0.195-1.814c0-0.781-0.04-2.088-1.785-3.994c-0.229-0.25-0.387-0.541-0.494-0.855h-9.528h-0.001
	c0,0-0.359-2.205,1.01-4.486c1.63-2.717,10.141-4.824,14.607-1.369c0.944,0.73,1.259,1.234,1.293,1.582
	C153.847,228.618,154.106,229.059,154.349,229.59z M147.245,264.35l-0.28-4.369v-0.004l-0.274-4.299h-1.267h-0.555l-0.458,4.299
	l0,0.004l-0.718,6.782v0.001l-2.157,20.293c2.157,0.383,4.375,0.582,6.642,0.582c0.185,0,0.369,0,0.555-0.006l-1.486-23.279V264.35z
	 M474.656,270.822c-2.702-1.816-1.787-5.643-1.023-7.711c0-0.008,0.007-0.008,0.007-0.008c0.003-0.009,0.006-0.016,0.009-0.024
	c2.424-2.47,2.397-4.511,2.128-5.806c-1.021-4.934-7.714-5.971-9.769-7.354c-3.811-2.566-0.426-9.117-0.426-9.117l-0.404,0.148
	c0.368-1.116,0.296-2.062,0.148-2.777c-1.021-4.934-7.714-5.969-9.77-7.352c-0.791-0.533-1.376-1.1-1.82-1.662
	c0.175-3.23-0.495-5.529-0.495-5.529c-1.375-3.014-3.247-3.504-5.301-3.408c-3.353-0.535-10.071-1.365-12.034,0.174
	c-5.95,4.662-1.847,11.357-1.847,11.357s0.063-1.023,0.541-2.29c0.411-1.089,1.126-2.356,2.383-3.313
	c2.717-2.07,8.08-3.424,8.08-3.424l0.024-0.011c-0.517,1.46-0.987,3.624,0.148,4.864c1.824,1.992,1.865,3.357,1.865,4.174
	c0,0.68,0.152,1.604,0.204,1.896c0.01,0.059,0.018,0.102,0.018,0.102s0.01-0.042,0.025-0.102c0.14-0.561,0.91-3.474,1.736-3.454
	c0.061,0.001,0.122,0.019,0.183,0.054c1.624,0.936,1.473,6.945,1.473,6.945c-0.094,0.191-0.212,0.367-0.319,0.549v8.535l0.437,1.125
	h0.066l-0.002,0.002h0.001l1.73,0.016l2.075,0.02c0.029-0.1,0.043-0.15,0.043-0.15l0.951,0.158h0.015l0.526,0.008
	c0.555,0,1.096,0.094,1.607,0.268h0.006h0.001c1.428,0.496,2.646,1.605,3.474,3.111c1.579,2.012,3.893,7.49,5.767,13.494
	c0.273,0.891,0.545,1.789,0.798,2.688c0.001,0.002,0.001,0.004,0.002,0.006c0.717,2.57,1.32,5.145,1.731,7.518
	c0.006-0.002,0.012-0.004,0.018-0.006l0.741,2.188l0.117,0.345c0.074-0.054,0.149-0.107,0.219-0.156
	c2.097-1.541,4.043-3.285,5.802-5.195C475.767,271.406,475.104,271.125,474.656,270.822z M466.706,279.466
	c-0.319,0.184-0.639,0.355-0.958,0.524c-1.016,0.533-2.054,1.031-3.113,1.479c-0.166-0.441-0.267-0.801-0.295-1.068
	c-0.036-0.34-0.014-0.667,0.045-0.962c-0.946-2.312-3.025-7.42-4.774-12.083l-0.447,0.166c-1.766,4.434-3.301,9.01-3.395,11.646
	c-0.043,1.182,0.245,2.883,0.707,4.793c2.839-0.533,5.563-1.355,8.158-2.449c1.06-0.447,2.098-0.945,3.113-1.479
	c0.324-0.172,0.649-0.346,0.974-0.533c0.105-0.059,0.212-0.12,0.319-0.182c0.016-0.021,0.037-0.049,0.061-0.076
	c-0.127,0.072-0.255,0.146-0.38,0.215C466.716,279.46,466.711,279.463,466.706,279.466z M470.057,277.384
	c0,0.004,0.001,0.009,0.001,0.013c0.036-0.024,0.072-0.051,0.108-0.076c-0.024,0.013-0.05,0.026-0.073,0.039
	C470.083,277.367,470.068,277.376,470.057,277.384z M283.922,198.035h13.867c0.155,0.457,0.384,0.881,0.717,1.244
	c2.541,2.773,2.6,4.674,2.6,5.813c0,0.949,0.213,2.237,0.284,2.643c0.015,0.08,0.025,0.139,0.025,0.139s0.014-0.058,0.034-0.139
	c0.208-0.83,1.428-5.455,2.673-4.738c2.262,1.303,2.05,9.674,2.05,9.674c0.777-1.576,2.03-1.488,3.108-5.039
	c2.262-7.443,0.377-13.852,0.377-13.852c-2.45-5.371-6.031-4.994-9.834-4.506c0,0-2.74-2.504-6.306-5.262
	c-6.499-5.027-12.286-0.119-12.789,4.463c-0.503,4.584,3.191,9.561,3.191,9.561H283.922z M297.998,391.316
	c-9.312,0-17.044,6.703-18.671,15.545c-0.207,1.122-0.329,2.273-0.329,3.455c0,3.096,0.756,6.01,2.07,8.592
	c3.138,6.171,9.533,10.408,16.93,10.408s13.792-4.237,16.93-10.408c1.313-2.582,2.07-5.496,2.07-8.592
	c0-1.182-0.123-2.333-0.329-3.455C315.042,398.02,307.31,391.316,297.998,391.316z"></path>
<path id="color_x5F_2" fill="#417505" d="M145.159,236.588c-0.045,0.455-0.307,0.803-0.589,0.773
	c-0.279-0.029-0.472-0.426-0.43-0.887c0.046-0.455,0.308-0.803,0.59-0.771C145.01,235.732,145.205,236.129,145.159,236.588z
	 M138.873,235.703c-0.282-0.031-0.545,0.316-0.589,0.771c-0.043,0.461,0.149,0.857,0.429,0.887c0.282,0.029,0.543-0.318,0.589-0.773
	C139.348,236.129,139.153,235.732,138.873,235.703z M295.659,202.676c-0.411-0.045-0.792,0.461-0.856,1.125
	c-0.063,0.668,0.218,1.244,0.624,1.289c0.411,0.043,0.791-0.463,0.856-1.127C296.349,203.295,296.067,202.719,295.659,202.676z
	 M287.134,202.676c-0.411-0.045-0.792,0.461-0.856,1.125c-0.064,0.668,0.217,1.244,0.624,1.289c0.411,0.043,0.79-0.463,0.856-1.127
	C287.825,203.295,287.542,202.719,287.134,202.676z M130.847,252.385c-1.417,0-2.711,0.629-3.73,1.896
	c-0.336,0.24-0.658,0.52-0.959,0.842c-2.403,2.541-7.915,14.043-7.915,14.043s-0.363,1.145-0.794,2.828
	c0.485,0.664,0.985,1.307,1.506,1.93c0.212,0.254,0.425,0.508,0.644,0.754c1.185,1.35,2.458,2.623,3.827,3.787
	c0.261,0.225,0.521,0.445,0.788,0.656c0.644,0.527,1.301,1.027,1.979,1.506l0.041,0.604c0.109-0.109,0.226-0.219,0.335-0.336
	c0.377,0.268,0.754,0.521,1.144,0.768c0.261,0.164,0.521,0.328,0.787,0.486c1.055,0.643,2.144,1.238,3.267,1.773
	c1.041,0.498,2.108,0.951,3.204,1.355c1.425,0.533,2.89,0.979,4.382,1.328c0.391,0.096,0.781,0.178,1.178,0.26v-18.576v-8.309
	v-6.315v-1.28h-0.141H130.847z M175.017,275.15c0,0,0.109,0.418,0.267,1.109c-1.431,1.465-2.992,2.82-4.649,4.039
	c-0.089,0.063-0.185,0.131-0.28,0.199c-0.123,0.088-0.247,0.178-0.37,0.26c-0.027-0.268-3.313,1.691-3.313,1.691
	c0.226-0.021,0.466-0.035,0.705-0.035h0.041c-0.198,0.117-0.404,0.234-0.603,0.344c-0.308,0.178-0.616,0.342-0.924,0.506
	c-0.315,0.164-0.63,0.328-0.952,0.486l-0.021,0.199c-0.034-0.041-0.068-0.09-0.109-0.137c-0.616,0.301-1.239,0.588-1.876,0.855
	c-2.465,1.039-5.053,1.82-7.751,2.326c-0.91,0.172-1.842,0.309-2.779,0.412v-35.021h8.996c2.561,0,4.731,2.053,5.58,4.936
	c0.274,0.281,0.548,0.617,0.815,0.994C168.396,259.17,175.017,275.15,175.017,275.15z M442.577,230.826
	c0.045-0.477,0.318-0.838,0.615-0.807c0.291,0.031,0.495,0.443,0.447,0.924c-0.048,0.477-0.319,0.84-0.616,0.809
	C442.733,231.721,442.53,231.307,442.577,230.826z M437.52,230.943c-0.049,0.477-0.321,0.84-0.617,0.809
	c-0.29-0.031-0.494-0.445-0.447-0.926c0.046-0.477,0.319-0.838,0.616-0.807C437.363,230.051,437.567,230.463,437.52,230.943z
	 M456.934,247.65c0,0-0.057,0.202-0.164,0.582c0,0.002,0,0.002-0.001,0.004c-0.238,0.857-0.728,2.606-1.34,4.904
	c0,0,0,0.001,0,0.002c-1.139,4.311-2.703,10.561-3.87,16.441c-1.269,6.377-2.062,12.33-1.341,14.932
	c-0.584,0.051-1.167,0.08-1.766,0.094c-0.447,0.023-0.894,0.029-1.348,0.029c-3.2,0-6.307-0.375-9.29-1.088
	c2.608-2.805,5.03-5.607,6.147-7.432c3.157-5.145,8.007-19.941,9.953-26.096c0-0.001,0-0.002,0.001-0.002
	c0.129-0.396,0.236-0.748,0.338-1.064c0-0.002,0.001-0.004,0.001-0.006c0.236-0.746,0.395-1.271,0.474-1.51
	c0.029-0.1,0.043-0.15,0.043-0.15l0.951,0.158h0.015L456.934,247.65z M374.35,161.037v243.977c0,7.672-6.222,13.895-13.895,13.895
	h-45.527c1.313-2.582,2.07-5.496,2.07-8.592c0-1.182-0.123-2.333-0.329-3.455h50.246V159.055H228.366v247.807h50.961
	c-0.207,1.122-0.329,2.273-0.329,3.455c0,3.096,0.756,6.01,2.07,8.592h-46.242c-7.674,0-13.895-6.223-13.895-13.895V161.037
	c0-7.676,6.221-13.895,13.895-13.895h125.629C368.128,147.143,374.35,153.361,374.35,161.037z M322.385,273.203
	c-7.571,4.001-16.193,6.286-25.331,6.374c-0.181,0.002-0.358,0.017-0.539,0.017c-8.58,0-16.71-1.951-23.97-5.43l-0.064-0.617
	l-0.815-7.783c-1.482,1.753-3.014,3.322-4.55,4.666c-0.164,0.143-0.327,0.296-0.49,0.434c-1.78-1.141-3.48-2.381-5.11-3.711
	c-2.43-1.959-4.68-4.139-6.74-6.488c-0.32-0.361-0.63-0.73-0.94-1.102c0.39,0.09,0.76,0.182,1.11,0.271
	c0.016-0.078,0.033-0.153,0.049-0.23c0.952-4.487,2.121-8.221,2.121-8.221s8.02-16.74,11.52-20.439c0.16-0.17,0.31-0.32,0.48-0.471
	c0.01-0.01,0.01-0.02,0.02-0.029c1.58-2.141,3.82-3.49,6.32-3.49h13.884h16.387h14.199c2.75,0,5.2,1.65,6.79,4.199v0.012
	c6.54,4.27,11.17,15.18,13.21,20.789c0.58,1.529,1.1,3.109,1.52,4.721c-3.9,5.369-8.73,10.01-14.27,13.689
	c-1.48-1.9-2.7-3.75-3.42-4.891L322.385,273.203z"></path>
<path id="color_x5F_1" fill="#396606" d="M512.555,448.139v-20.113H388.612v-24h123.943v-20.113l32.113,32.113L512.555,448.139z
	 M82.725,383.912l-32.113,32.113l32.113,32.113v-20.113h123.943v-24H82.725V383.912z"></path>
</svg>