<?xml version="1.0" standalone="no"?>
<svg version="1.1" id="Layer_1" xmlns="http://www.w3.org/2000/svg" xmlns:xlink="http://www.w3.org/1999/xlink" x="0px" y="0px" width="595.28px" height="595.28px" viewBox="0 0 595.28 595.28" enable-background="new 0 0 595.28 595.28" xml:space="preserve">
<path id="color_x5F_5" fill="#efbc98" d="M261.748,306.047c-0.009-0.026-0.021-0.063-0.021-0.063l0.004-0.14
	C261.737,305.912,261.741,305.977,261.748,306.047z M267.142,304.219c-0.119-0.021-0.236-0.027-0.355-0.045
	c0.891,0.213,1.883,0.457,2.962,0.732C268.909,304.616,268.046,304.373,267.142,304.219z M244.735,355.252l8.219-12.193
	c-2.803-2.104-4.873-5.064-5.871-8.429c0,0,1.654-11.424,5.031-12.667c2.039-0.755,2.545,7.254,2.545,7.254s0.801-2.163,1.064-3.707
	c0.266-1.548,0.785-4.115,4.883-7.297c2.279-1.77,2.367-5.356,1.998-8.19c-0.022-0.172-0.048-0.335-0.073-0.5
	c0.056,0.154,0.113,0.309,0.177,0.464c1.081,2.658,3.256,5.495,7.588,7.307c9.063,3.791,10.114,4.475,10.198,4.598
	c-0.004,0.014-0.009,0.027-0.009,0.027s0.027,0,0.009-0.027c0.022-0.068,0.097-0.305,0.193-0.672
	c-0.035,0.611-0.097,1.225-0.202,1.843l-1.65,9.682c-1.378,8.067-3.387,14.571-10.379,14.583l-1.813,10.618l-8.944,21.259
	L244.735,355.252z M275.026,328.801c0.563,0.035,1.078-0.684,1.146-1.607c0.066-0.918-0.334-1.691-0.902-1.729
	c-0.564-0.032-1.082,0.685-1.148,1.604C274.06,327.988,274.456,328.766,275.026,328.801z M263.442,326.822
	c0.563,0.035,1.08-0.683,1.146-1.605c0.068-0.919-0.332-1.693-0.902-1.73c-0.563-0.031-1.082,0.685-1.146,1.605
	C262.476,326.01,262.874,326.789,263.442,326.822z M374.728,294.475l1.967,11.041l-14.664,12.72l-2.354-2.238l-5.265-6.853
	l-0.021,0.004l-0.539-2.979c-7.123,0.089-9.152-6.455-10.539-14.584l-1.65-9.683c-0.081-0.474-0.131-0.946-0.17-1.416
	c0.106,0.176,0.17,0.272,0.17,0.272s2.381-0.498,13.439-5.123c2.14-0.895,3.492-2,4.336-3.193c0.163,1.821,0.732,3.547,2.104,4.611
	c4.096,3.182,4.617,5.75,4.883,7.297c0.094,0.553,0.258,1.184,0.428,1.767c0.307,1.048,0.637,1.94,0.637,1.94
	s0.063-0.966,0.227-2.189c0.31-2.311,0.984-5.559,2.318-5.064c1.081,0.398,1.984,1.841,2.715,3.616
	c0.123,0.3,0.242,0.608,0.355,0.924c1.313,3.653,1.961,8.128,1.961,8.128C374.963,293.811,374.85,294.145,374.728,294.475z
	 M357.556,284.059c0.068,0.923,0.584,1.642,1.146,1.606c0.57-0.034,0.967-0.813,0.904-1.731c-0.064-0.92-0.584-1.637-1.146-1.604
	C357.89,282.366,357.489,283.141,357.556,284.059z M348.022,285.911c-0.064-0.92-0.584-1.636-1.146-1.604
	c-0.568,0.038-0.969,0.812-0.902,1.729c0.066,0.923,0.584,1.643,1.146,1.607C347.69,287.608,348.087,286.83,348.022,285.911z
	 M355.005,263.062c-2.211,0.377-4.236,1.184-6.015,2.316c3.209-0.938,6.249-1.871,8.379-2.534
	C356.586,262.861,355.797,262.926,355.005,263.062z M317.265,370.228c-0.082,0.06-0.17,0.137-0.253,0.2
	c-8.771,6.669-24.093,38.059-21.618,50.473c-2.559-0.42-5.127-0.771-7.648-1.047c-6.047-0.664-11.787-0.902-16.293-0.643
	c-1.424,0.082-2.711,0.217-3.858,0.4c-1.177,0.188-2.213,0.423-3.036,0.722c-0.531,0.193-1.035,0.558-1.49,1.05
	c-8.234-1.321-16.094-1.751-21.24-0.736c-1.861,0.366-3.384,0.913-4.42,1.686c-2.455,1.832-3.306,7.208-0.151,11.244
	c1.188,1.52,2.94,2.851,5.395,3.729h25.64h4.307h17.312h23.85c1.184-0.14,2.361-0.306,3.485-0.502
	c-2.297-1.445-3.383-4.269-2.547-7.517l0.806-3.137c-4.044-1.655-9.028-3.063-14.323-4.173c5.178-4.236,12.074-14.029,12.074-14.029
	s5.283-6.285,10.212-12.799l1.935-7.531c0.583-2.266,2-4.32,3.833-5.85c0.813-0.678,1.705-1.255,2.647-1.695
	c0.065-0.03,0.132-0.056,0.197-0.084c0.004-0.105,0.015-0.213,0.016-0.316C332.142,371.537,320.554,367.876,317.265,370.228z
	 M433.675,301.497c1.568-1.462,2.555-3.538,2.555-5.851c0-4.42-3.584-8.003-8.004-8.003s-8.002,3.583-8.002,8.003
	c0,3.842,2.707,7.048,6.316,7.822c-0.83,6.557-0.707,15.338-0.707,15.338s-0.314,5.618-0.486,12.188
	c-0.195,7.52-0.204,16.285,0.662,19.301c0.061,0.209,0.127,0.407,0.193,0.607c1.126,3.416,3.105,5.543,5.293,6.694
	c1.156,0.608,2.367,0.945,3.54,1.058c0.474,0.045,0.939,0.055,1.394,0.029c2.088-0.113,3.905-0.933,4.828-2.161
	c1.341-1.784,2.033-4.981,2.23-8.987C444.144,334.193,439.215,311.764,433.675,301.497z M171.929,268.155
	c-0.792-0.136-1.581-0.2-2.363-0.218c2.129,0.663,5.166,1.595,8.373,2.532C176.161,269.338,174.137,268.532,171.929,268.155z
	 M170.946,311.079l-0.598-0.103l1.107,4.59l-6.59,7.73l-14.628-12.688l1.966-11.038c-0.122-0.33-0.235-0.665-0.336-1.004
	c0,0,0.649-4.477,1.963-8.131c0.109-0.305,0.225-0.602,0.344-0.891c0.732-1.789,1.64-3.246,2.727-3.646
	c1.57-0.582,2.229,4.025,2.449,6.178c0.065,0.643,0.094,1.076,0.094,1.076s0.133-0.359,0.306-0.88
	c0.256-0.771,0.604-1.905,0.761-2.827c0.266-1.547,0.785-4.115,4.881-7.297c1.372-1.064,1.941-2.79,2.104-4.611
	c0.843,1.193,2.196,2.299,4.337,3.193c11.059,4.624,13.439,5.123,13.439,5.123s0.063-0.097,0.17-0.272
	c-0.039,0.47-0.089,0.942-0.17,1.416l-1.65,9.683C182.103,305.574,179.839,312.597,170.946,311.079z M179.812,292.736
	c0.563,0.035,1.08-0.684,1.148-1.606c0.066-0.918-0.334-1.691-0.904-1.729c-0.563-0.031-1.082,0.685-1.146,1.604
	C178.845,291.924,179.243,292.701,179.812,292.736z M168.229,290.759c0.563,0.035,1.078-0.684,1.146-1.606
	c0.068-0.919-0.334-1.692-0.902-1.729c-0.564-0.032-1.082,0.685-1.146,1.604C167.263,289.945,167.661,290.725,168.229,290.759z
	 M199.079,357.133c-3.395-7.964-7.539-16.3-7.539-16.3s-0.889-2.251-2.232-5.212c-0.994-2.191-2.238-4.768-3.557-7.115
	c1.852-1.467,3.043-3.729,3.043-6.273c0-0.237-0.016-0.471-0.035-0.703c-0.003-0.026-0.002-0.055-0.004-0.081
	c-0.395-4.052-3.81-7.219-7.965-7.219c-1.263,0-2.453,0.301-3.515,0.821c-2.655,1.303-4.487,4.024-4.487,7.182
	c0,2.582,1.228,4.873,3.126,6.336c-1.416,8.425,0.368,21.732,3.351,32.723c2.075,7.647,4.731,14.174,7.295,17.146
	c2.92,3.381,17.418,2.014,16.861-8.418C203.293,367.639,201.354,362.469,199.079,357.133z M135.226,378.977
	c-0.772,0-1.517,0.115-2.224,0.319c-1.604-2.779-3.634-5.808-5.939-8.892c-4.618-6.181-10.31-12.555-15.752-17.508
	c-5.793-5.271-11.304-8.93-14.927-8.984c-0.864-0.013-1.799,0.279-2.695,0.816c-3.624,2.166-6.617,8.371-1.727,15.053
	c3.471,4.744,24.779,19.43,24.779,19.43s3.892,3.104,8.242,6.073c0.743,0.507,1.498,1.008,2.25,1.491
	c-0.001,0.068-0.01,0.135-0.01,0.204c0,4.42,3.582,8.004,8.002,8.004s8.004-3.584,8.004-8.004S139.646,378.977,135.226,378.977z"></path>
<path id="color_x5F_3" fill="#d34f62" d="M436.321,418.884c-5.49-3.834-13.859-11.984-12.186-25.376
	c2.455-19.637,4.402-16.339,2.975-29.668c-0.295-2.756-0.564-5.486-0.732-8.097c1.763,0.854,3.47,1.477,5.117,1.854
	c1.156,0.608,2.367,0.945,3.54,1.058c-0.602,12.833-0.743,25.7-0.233,38.536c-1.252-1.864-2.455-3.749-3.201-5.893
	c-0.295-0.85-1.588-0.327-1.297,0.521c1.006,2.891,2.822,5.337,4.49,7.867c0.039,0.061,0.084,0.088,0.131,0.129
	C435.222,406.181,435.667,412.539,436.321,418.884z M458.657,399.854c0,0,1.326,0.021,3.406-0.252
	c4.625-7.81,8.887-15.817,12.881-23.958c-0.328-0.026-0.65-0.249-0.668-0.675c-0.174-4.57,0.172-9.164-0.465-13.715
	c-0.125-0.88,1.23-1.229,1.352-0.337c0.619,4.412,0.369,8.849,0.49,13.288c4.955-10.209,9.49-20.63,13.674-31.186
	c0.33-0.827,1.676-0.457,1.346,0.381c-4.955,12.491-10.381,24.813-16.439,36.813c1.914-1.18,3.793-2.392,5.355-4.034
	c0.623-0.65,1.582,0.359,0.963,1.012c-2.109,2.21-4.779,3.686-7.348,5.297c-0.057,0.037-0.115,0.045-0.168,0.063
	c-2.918,5.668-5.957,11.27-9.186,16.771c6.588-1.212,17.58-5.151,21.613-18.033c5.914-18.888,2.775-16.695,9.602-28.231
	c6.83-11.537,12.938-22.827,5.445-27.33c-7.49-4.506-17.049,7.384-20.357,19.676c-3.313,12.289-12.957,16.303-19.869,26.865
	c-7.316,11.183-5.258,20.129-3.313,24.559c-5.926,12.396-9.746,25.787-18.043,36.891c0.375-2.152,0.518-4.352,0.648-6.537
	c0.107-1.809,0.025-4.05,0.352-6.098c0.563,0.291,0.895,0.438,0.895,0.438s12.869-6.744,9.967-25.773
	c-1.906-12.48-9.02-20.13-6.934-32.688c0.867-5.223,0.721-10.826-0.369-15.523c-0.197,4.006-0.89,7.203-2.23,8.987
	c-0.923,1.229-2.74,2.048-4.828,2.161c-0.509,10.809-0.688,21.638-0.426,32.45c1.951-3.983,3.563-8.13,5.955-11.887
	c0.48-0.758,1.572,0.116,1.094,0.867c-2.471,3.874-4.061,8.2-6.117,12.288c-0.189,0.379-0.574,0.445-0.891,0.336
	c0.258,8.928,0.809,17.851,1.75,26.74c-0.334,1.555-0.414,3.203-0.51,4.682c-0.264,4.071-0.266,8.258-1.529,12.174
	c-0.125,0.387-0.063,0.717,0.105,0.971h2.137c0.056-0.09,0.105-0.188,0.143-0.301c0.037-0.118,0.064-0.237,0.102-0.354
	c0.527,0.31,1.297,0.314,1.781-0.297c8.719-10.965,12.602-24.332,18.395-36.842C458.567,399.735,458.657,399.854,458.657,399.854z
	 M444.687,445.315c0.188-0.218,0.383-0.427,0.572-0.644h-2.556C442.917,445.533,443.962,446.156,444.687,445.315z M513.288,390.26
	c-4.572-5.943-13.588,0.361-22.748,7.307c-9.158,6.945-7.598,4.052-23.105,10.939c-10.578,4.694-12.865,14.443-13.252,20.168
	c4.371-3.281,8.844-6.422,13.387-9.458c0.01-0.048,0.014-0.099,0.039-0.153c1.121-2.342,2.117-4.762,3.791-6.776
	c0.496-0.589,1.451,0.129,0.957,0.722c-1.242,1.496-2.096,3.215-2.91,4.958c9.627-6.331,19.594-12.157,29.754-17.598
	c0.676-0.36,1.123,0.746,0.449,1.107c-8.58,4.595-17.014,9.474-25.225,14.692c3.787-0.328,7.545-0.978,11.363-0.881
	c0.771,0.02,0.611,1.207-0.152,1.185c-3.938-0.098-7.816,0.646-11.732,0.943c-0.359,0.026-0.582-0.228-0.637-0.503
	c-6.543,4.2-12.947,8.611-19.146,13.309c-0.016,0.867,0.012,1.568,0.043,2.07c-1.873,1.595-3.665,3.274-5.404,5.014h3.522
	c1.206-1.148,2.432-2.274,3.704-3.352c3.521,1.33,11.967,3.117,21.588-4.885c8.324-6.915,10.801-15.527,20.943-19.545
	C508.663,405.504,517.854,396.201,513.288,390.26z M295.708,202.566h12.08v28h-12.08c-0.91,2.99-2.105,5.856-3.553,8.567
	l8.545,8.546l-19.799,19.799l-8.545-8.546c-2.711,1.448-5.578,2.644-8.568,3.554v12.08h-28v-12.08
	c-2.99-0.91-5.855-2.105-8.566-3.553l-8.545,8.545l-19.801-19.799l8.547-8.546c-1.449-2.711-2.645-5.577-3.555-8.567h-12.08v-28
	h12.08c0.91-2.99,2.105-5.856,3.555-8.567l-8.547-8.546l19.799-19.799l8.547,8.546c2.711-1.448,5.576-2.644,8.566-3.554v-12.08h28
	v12.08c2.99,0.91,5.857,2.105,8.568,3.554l8.545-8.546l19.799,19.799l-8.545,8.546C293.603,196.711,294.798,199.576,295.708,202.566
	z M265.788,216.566c0-8.837-7.164-16-16-16s-16,7.163-16,16c0,8.836,7.164,16,16,16S265.788,225.402,265.788,216.566z
	 M376.083,177.635h7.705v17.863h-7.705c-0.582,1.907-1.344,3.735-2.268,5.465l5.451,5.451l-12.631,12.631l-5.451-5.452
	c-1.729,0.925-3.557,1.687-5.465,2.268v7.706h-17.863v-7.706c-1.906-0.581-3.734-1.343-5.465-2.267l-5.451,5.451l-12.631-12.631
	l5.451-5.451c-0.924-1.729-1.686-3.558-2.266-5.465h-7.707v-17.863h7.707c0.58-1.907,1.342-3.735,2.266-5.465l-5.451-5.451
	l12.631-12.631l5.451,5.452c1.73-0.925,3.559-1.687,5.465-2.268v-7.706h17.863v7.706c1.908,0.581,3.736,1.343,5.465,2.268
	l5.451-5.452l12.631,12.631l-5.451,5.451C374.739,173.9,375.501,175.728,376.083,177.635z M356.995,186.566
	c0-5.638-4.57-10.207-10.207-10.207s-10.207,4.569-10.207,10.207c0,5.637,4.57,10.207,10.207,10.207
	S356.995,192.203,356.995,186.566z M419.489,206.542c-0.752,0-1.365,0.609-1.365,1.364v12.154c0,0.751,0.613,1.359,1.365,1.359
	c0.754,0,1.365-0.608,1.365-1.359v-12.154C420.854,207.151,420.243,206.542,419.489,206.542z M419.489,242.988
	c-0.752,0-1.365,0.609-1.365,1.363v12.153c0,0.751,0.613,1.362,1.365,1.362c0.754,0,1.365-0.611,1.365-1.362v-12.153
	C420.854,243.598,420.243,242.988,419.489,242.988z M430.269,232.205c0,0.754,0.613,1.361,1.367,1.361h12.152
	c0.752,0,1.363-0.607,1.363-1.361c0-0.755-0.611-1.363-1.363-1.363h-12.152C430.882,230.842,430.269,231.45,430.269,232.205z
	 M408.704,232.205c0-0.755-0.609-1.363-1.363-1.363h-12.15c-0.754,0-1.365,0.608-1.365,1.363c0,0.754,0.611,1.361,1.365,1.361h12.15
	C408.095,233.566,408.704,232.959,408.704,232.205z M429.04,224.58l8.594-8.593c0.535-0.532,0.535-1.396,0-1.93
	c-0.533-0.534-1.396-0.534-1.926,0l-8.594,8.594c-0.533,0.535-0.533,1.396,0,1.929C427.646,225.112,428.509,225.112,429.04,224.58z
	 M409.938,239.83l-8.598,8.591c-0.527,0.534-0.527,1.396,0,1.93c0.537,0.533,1.396,0.533,1.928,0l8.596-8.593
	c0.531-0.532,0.531-1.396,0-1.928C411.333,239.297,410.468,239.297,409.938,239.83z M435.708,250.351
	c0.529,0.533,1.393,0.533,1.926,0c0.535-0.534,0.535-1.396,0-1.93l-8.594-8.591c-0.531-0.533-1.395-0.533-1.926,0
	c-0.533,0.532-0.533,1.396,0,1.928L435.708,250.351z M403.269,214.058c-0.531-0.534-1.391-0.534-1.928,0
	c-0.527,0.534-0.527,1.397,0,1.93l8.598,8.593c0.529,0.532,1.395,0.532,1.926,0c0.531-0.533,0.531-1.394,0-1.929L403.269,214.058z
	 M115.567,206.542c-0.752,0-1.365,0.609-1.365,1.364v12.154c0,0.751,0.613,1.359,1.365,1.359c0.754,0,1.365-0.608,1.365-1.359
	v-12.154C116.933,207.151,116.321,206.542,115.567,206.542z M115.567,242.988c-0.752,0-1.365,0.609-1.365,1.363v12.153
	c0,0.751,0.613,1.362,1.365,1.362c0.754,0,1.365-0.611,1.365-1.362v-12.153C116.933,243.598,116.321,242.988,115.567,242.988z
	 M139.868,230.842h-12.152c-0.756,0-1.369,0.608-1.369,1.363c0,0.754,0.613,1.361,1.369,1.361h12.152
	c0.75,0,1.361-0.607,1.361-1.361C141.229,231.45,140.618,230.842,139.868,230.842z M104.784,232.205
	c0-0.755-0.611-1.363-1.363-1.363h-12.15c-0.756,0-1.365,0.608-1.365,1.363c0,0.754,0.609,1.361,1.365,1.361h12.15
	C104.173,233.566,104.784,232.959,104.784,232.205z M125.118,224.58l8.594-8.593c0.535-0.532,0.535-1.396,0-1.93
	c-0.531-0.534-1.396-0.534-1.926,0l-8.594,8.594c-0.533,0.535-0.533,1.396,0,1.929C123.726,225.112,124.587,225.112,125.118,224.58z
	 M106.017,239.83l-8.598,8.591c-0.527,0.534-0.527,1.396,0,1.93c0.537,0.533,1.396,0.533,1.93,0l8.596-8.593
	c0.531-0.532,0.531-1.396,0-1.928C107.413,239.297,106.546,239.297,106.017,239.83z M125.118,239.83
	c-0.531-0.533-1.393-0.533-1.926,0c-0.533,0.532-0.533,1.396,0,1.928l8.594,8.593c0.529,0.533,1.395,0.533,1.926,0
	c0.535-0.534,0.535-1.396,0-1.93L125.118,239.83z M99.349,214.058c-0.533-0.534-1.393-0.534-1.93,0c-0.527,0.534-0.527,1.397,0,1.93
	l8.598,8.593c0.529,0.532,1.396,0.532,1.928,0c0.531-0.533,0.531-1.394,0-1.929L99.349,214.058z"></path>
<path id="color_x5F_2" fill="#000000" d="M281.251,312.166l-0.701-0.602c-0.931-2.369-2.816-4.486-6.398-5.484
	c-1.588-0.441-3.06-0.83-4.403-1.174c-1.079-0.275-2.071-0.52-2.962-0.732c-3.129-0.75-5.008-1.118-5.008-1.118
	c-5.053-1.546-10.473-1.632-15.049,5.097c0,0-1.55,3.174-2.412,8.113l-0.43,0.146l-8.396,36.213l8.619,1.472l0.625,1.155
	l8.219-12.193c-2.803-2.104-4.873-5.064-5.871-8.429c0,0,1.654-11.424,5.031-12.667c2.039-0.755,2.545,7.254,2.545,7.254
	s0.801-2.163,1.064-3.707c0.266-1.548,0.785-4.115,4.883-7.297c2.279-1.77,2.367-5.356,1.998-8.19
	c-0.022-0.172-0.048-0.335-0.073-0.5c0.056,0.154,0.113,0.309,0.177,0.464c1.081,2.658,3.256,5.495,7.588,7.307
	c9.063,3.791,10.114,4.475,10.198,4.598c0.022-0.068,0.097-0.305,0.193-0.672c-0.035,0.611-0.097,1.225-0.202,1.843l-1.65,9.682
	c-1.378,8.067-3.387,14.571-10.379,14.583l-1.813,10.618l0.001-0.002l8.674,1.482c3.004,0.513,5.488,2.429,7.167,5.148
	c0.009,0.006,0.018,0.013,0.026,0.019c2.377,1.738,4.688,13.562,5.654,27.072c2.997-3.141,6.215-7.516,8.371-13.264
	c5.094-13.587,0.848-27.173-5.945-36.514C283.796,332.545,281.251,312.166,281.251,312.166z M261.728,305.983l0.004-0.14
	c0.006,0.068,0.01,0.133,0.017,0.203C261.739,306.021,261.728,305.983,261.728,305.983z M280.485,321.918
	c0,0,0.005-0.014,0.009-0.027C280.513,321.918,280.485,321.918,280.485,321.918z M185.442,285.581
	c-0.106,0.176-0.17,0.272-0.17,0.272s-2.381-0.499-13.439-5.123c-2.141-0.895-3.494-2-4.337-3.193
	c-0.163,1.821-0.732,3.547-2.104,4.611c-4.096,3.182-4.615,5.75-4.881,7.297c-0.157,0.922-0.505,2.057-0.761,2.827
	c-0.173,0.521-0.306,0.88-0.306,0.88s-0.028-0.434-0.094-1.076c-0.221-2.152-0.879-6.76-2.449-6.178
	c-1.087,0.4-1.994,1.857-2.727,3.646c-0.119,0.289-0.234,0.586-0.344,0.891c-1.313,3.654-1.963,8.131-1.963,8.131
	c-0.689-2.322-2.412-2.491-3.053-7.565c-1.004-7.931,0.987-14.54,2.068-17.396c-2.773-1.82-4.609-4.953-4.609-8.518
	c0-5.626,4.563-10.187,10.188-10.187s10.186,4.561,10.186,10.187c0,0.642-0.066,1.267-0.18,1.875
	c0.032,0.01,0.065,0.019,0.098,0.028c0,0,1.161,0.372,3,0.946c2.129,0.663,5.166,1.595,8.373,2.532
	c1.35,0.394,2.728,0.789,4.08,1.165C191.696,274.33,186.485,283.849,185.442,285.581z M406.47,387.617l-0.154,0.6l-0.331,1.289
	l-10.218,39.78c-0.948,3.689-4.098,6.823-7.679,8.019h-25.71h-44.126c-0.355-0.143-0.696-0.305-1.009-0.502
	c-2.297-1.445-3.383-4.269-2.547-7.517l0.806-3.137l7.963-31.001l1.935-7.531c0.583-2.266,2-4.32,3.833-5.85
	c0.813-0.678,1.705-1.255,2.647-1.695c0.065-0.03,0.132-0.056,0.197-0.084c1.301-0.579,2.684-0.913,4.061-0.913h20.48h43.502
	c2.675,0,4.744,1.23,5.817,3.154c0.044,0.079,0.08,0.164,0.12,0.246C406.773,383.907,406.967,385.685,406.47,387.617z
	 M331.271,271.999c0-4.722,3.828-8.55,8.551-8.55c2.484,0,4.715,1.066,6.277,2.76c0.966-0.273,1.936-0.552,2.892-0.831
	c3.209-0.938,6.249-1.871,8.379-2.534c1.838-0.573,2.999-0.946,2.999-0.946c5.053-1.545,10.473-1.632,15.047,5.097
	c0,0,4.049,8.272,2.703,18.913c-0.643,5.074-2.363,5.243-3.055,7.565c0,0-0.648-4.475-1.961-8.128
	c-0.113-0.315-0.232-0.624-0.355-0.924c-0.73-1.775-1.634-3.218-2.715-3.616c-1.334-0.494-2.009,2.754-2.318,5.064
	c-0.164,1.224-0.227,2.189-0.227,2.189s-0.33-0.893-0.637-1.94c-0.17-0.583-0.334-1.214-0.428-1.767
	c-0.266-1.547-0.787-4.115-4.883-7.297c-1.371-1.064-1.94-2.79-2.104-4.611c-0.844,1.193-2.196,2.299-4.336,3.193
	c-11.059,4.625-13.439,5.123-13.439,5.123s-0.063-0.097-0.17-0.272c-0.017-0.028-0.037-0.063-0.057-0.096
	c-0.522,0.101-1.061,0.157-1.613,0.157C335.099,280.549,331.271,276.722,331.271,271.999z M173.483,402.164l7.335,35.141h-73.422
	c0.275-1.287,0.617-2.881,1.042-4.865c1.43-6.668,6.289-18.015,9.475-25.057c1.68-3.713,2.895-6.23,2.895-6.23l52.389-0.364
	L173.483,402.164z"></path>
<path id="color_x5F_1" fill="#0984E3" d="M262.54,325.092c0.064-0.921,0.584-1.637,1.146-1.605c0.57,0.037,0.971,0.812,0.902,1.73
	c-0.066,0.923-0.584,1.641-1.146,1.605C262.874,326.789,262.476,326.01,262.54,325.092z M275.026,328.801
	c0.563,0.035,1.078-0.684,1.146-1.607c0.066-0.918-0.334-1.691-0.902-1.729c-0.564-0.032-1.082,0.685-1.148,1.604
	C274.06,327.988,274.456,328.766,275.026,328.801z M358.702,285.665c0.57-0.034,0.967-0.813,0.904-1.731
	c-0.064-0.92-0.584-1.637-1.146-1.604c-0.57,0.037-0.971,0.812-0.904,1.729C357.624,284.981,358.14,285.7,358.702,285.665z
	 M347.12,287.644c0.57-0.035,0.967-0.813,0.902-1.732c-0.064-0.92-0.584-1.636-1.146-1.604c-0.568,0.038-0.969,0.812-0.902,1.729
	C346.04,286.959,346.558,287.679,347.12,287.644z M332.093,379.672c3.063-5.785,10.459-20.044,13.582-28.569l10.943,27.973h43.502
	c2.675,0,4.744,1.23,5.817,3.154l-2.823-44.651c8.096,7.664,16.107,14.699,23.264,18.165c1.763,0.854,3.47,1.477,5.117,1.854
	c-2.188-1.151-4.167-3.278-5.293-6.694c-0.066-0.2-0.133-0.398-0.193-0.607c-0.866-3.016-0.857-11.781-0.662-19.301
	c-8.051-7.778-25.911-24.704-30.914-26.697c-1.326-0.527-2.51-0.748-3.57-0.736c-1.125-0.217-2.279-0.248-3.438-0.051l-10.48,1.789
	l-0.25,0.217l-14.664,12.72l-0.381,0.33l-1.974-2.568l-5.265-6.853l-0.021,0.004l-8.652,1.479c-3.042,0.52-5.553,2.478-7.23,5.254
	c-6.17,6.739-16.07,36.25-21.242,53.255c-0.135,0.443-0.21,0.872-0.253,1.292c0.083-0.063,0.171-0.141,0.253-0.2
	C320.554,367.876,332.142,371.537,332.093,379.672z M168.229,290.759c0.563,0.035,1.078-0.684,1.146-1.606
	c0.068-0.919-0.334-1.692-0.902-1.729c-0.564-0.032-1.082,0.685-1.146,1.604C167.263,289.945,167.661,290.725,168.229,290.759z
	 M179.812,292.736c0.563,0.035,1.08-0.684,1.148-1.606c0.066-0.918-0.334-1.691-0.904-1.729c-0.563-0.031-1.082,0.685-1.146,1.604
	C178.845,291.924,179.243,292.701,179.812,292.736z M191.54,340.833c0,0,4.145,8.336,7.539,16.3
	c-3.667-14.556-6.515-30.337-10.324-35.685c0.002,0.026,0.001,0.055,0.004,0.081c0.02,0.232,0.035,0.466,0.035,0.703
	c0,2.545-1.191,4.807-3.043,6.273c1.318,2.348,2.563,4.924,3.557,7.115C190.651,338.582,191.54,340.833,191.54,340.833z
	 M111.311,352.896c4.629-3.114,9.481-7.445,14.581-12.26l1.171,29.768c2.306,3.084,4.335,6.112,5.939,8.892
	c0.707-0.204,1.451-0.319,2.224-0.319c4.42,0,8.004,3.583,8.004,8.003s-3.584,8.004-8.004,8.004s-8.002-3.584-8.002-8.004
	c0-0.069,0.009-0.136,0.01-0.204c-0.752-0.483-1.507-0.984-2.25-1.491l-7.07,22.099c1.68-3.713,2.895-6.23,2.895-6.23l52.389-0.364
	l0.287,1.376l-1.932-21.159l7.713-19.714c-2.982-10.99-4.767-24.298-3.351-32.723c-1.898-1.463-3.126-3.754-3.126-6.336
	c0-3.157,1.832-5.879,4.487-7.182l-4.755-0.813l-7.236,9.421l-0.418-0.362l-14.628-12.688l-0.249-0.216l-10.48-1.789
	c-1.158-0.197-2.313-0.166-3.438,0.051c-1.061-0.012-2.245,0.208-3.572,0.736c-6.52,2.598-34.906,30.586-34.906,30.586
	s-2,2.049-3.904,4.752c0.896-0.537,1.831-0.829,2.695-0.816C100.007,343.967,105.518,347.625,111.311,352.896z M452.281,437.305
	h-3.522h-10.762h-2.137h-22.574l-6.16-55.072l-1.068,0.243c0.716,1.432,0.909,3.209,0.412,5.142l-0.154,0.6l-0.331,1.289
	l-10.218,39.78c-0.948,3.689-4.098,6.823-7.679,8.019h-25.71h-44.126h-4.494h-23.85h-17.312h-4.307h-25.64
	c-2.454-0.878-4.206-2.209-5.395-3.729c-3.154-4.036-2.304-9.412,0.151-11.244c1.036-0.772,2.559-1.319,4.42-1.686
	c5.146-1.015,13.006-0.585,21.24,0.736c0.455-0.492,0.959-0.856,1.49-1.05c0.823-0.299,1.859-0.534,3.036-0.722
	c1.147-0.184,2.435-0.318,3.858-0.4c4.506-0.26,10.246-0.021,16.293,0.643c1.111-8.269,1.102-18.648,0.42-28.189
	c-0.967-13.511-3.277-25.334-5.654-27.072c-0.009-0.006-0.018-0.013-0.026-0.019c-1.679-2.72-4.163-4.636-7.167-5.148l-8.674-1.482
	l-0.001,0.002l-8.944,21.259l-12.963-23.951l-0.625-1.155l-8.619-1.472l-1.861-0.318c-6.512-1.111-12.941,4.735-14.361,13.06
	l-3.348,71.938h-35.103h-73.422H80.788v7.367h361.915h2.556h17.529v-7.367H452.281z"></path>
</svg>