<?xml version="1.0" standalone="no"?>
<svg version="1.1" id="Layer_1" xmlns="http://www.w3.org/2000/svg" xmlns:xlink="http://www.w3.org/1999/xlink" x="0px" y="0px" viewBox="0 0 595.28 595.28" enable-background="new 0 0 595.28 595.28" xml:space="preserve">
<path id="color_x5F_6" fill="#50B86B" d="M339.422,388.132c-0.539-1.418-0.284-2.92,0.51-4.054c1.361,0.312,2.551,1.276,3.09,2.665
	c0.538,1.418,0.283,2.92-0.539,4.054C341.123,390.485,339.932,389.522,339.422,388.132z M344.723,384.873
	c0.794-1.134,1.049-2.665,0.539-4.054c-0.539-1.417-1.729-2.381-3.09-2.693c-0.822,1.134-1.077,2.636-0.539,4.054
	C342.172,383.569,343.362,384.561,344.723,384.873z M347.359,379.147c0.822-1.134,1.077-2.665,0.539-4.054
	c-0.539-1.417-1.701-2.381-3.09-2.693c-0.794,1.134-1.049,2.636-0.539,4.054C344.808,377.843,345.998,378.807,347.359,379.147z
	 M356.798,364.974c0.935-1.021,1.361-2.494,1.021-3.968c-0.369-1.446-1.417-2.551-2.75-3.033c-0.935,1.021-1.361,2.495-1.02,3.969
	C354.417,363.386,355.466,364.492,356.798,364.974z M360.483,361.204c0.992-0.992,1.502-2.438,1.219-3.912
	c-0.312-1.474-1.304-2.636-2.608-3.175c-0.992,0.992-1.502,2.438-1.191,3.912C358.187,359.503,359.208,360.665,360.483,361.204z
	 M287.455,382.221c-0.005,0.001-0.009,0.002-0.014,0.002h0.004L287.455,382.221z M287.964,382.132
	c-0.019,0.003-0.037,0.005-0.055,0.007h0.017L287.964,382.132z M328.794,398.508v-0.028h0.028c0.296-0.42,1.65-2.091,3.627-3.489
	c-2.247,1.588-3.671,3.509-3.711,3.562c0,0.003,0,0.01,0,0.01l0.028-0.028L328.794,398.508z M330.381,383.481
	c0.056,0.083,0.111,0.167,0.167,0.25c-0.068-0.105-0.135-0.209-0.208-0.312C330.353,383.44,330.367,383.46,330.381,383.481z
	 M310.91,386.258c1.066-2.951,2.891-7.57,6.442-8.531c-3.554,0.956-5.381,5.574-6.448,8.528
	C310.906,386.256,310.908,386.257,310.91,386.258z M332.489,394.963c0.255-0.179,0.522-0.352,0.797-0.519
	C333.01,394.611,332.745,394.784,332.489,394.963z M362.014,360.07c0.085-0.085,0.142-0.142,0.227-0.227
	C362.241,359.843,362.156,359.928,362.014,360.07z M329.295,382.181c0.105,0.107,0.211,0.214,0.311,0.325
	c-0.057-0.081-0.135-0.162-0.216-0.216C329.363,382.249,329.329,382.219,329.295,382.181z M289.851,381.886
	c-0.001,0-0.002,0-0.003,0h0.002L289.851,381.886z M349.854,374.441c0.822-1.134,1.077-2.636,0.539-4.053
	c-0.51-1.417-1.701-2.381-3.061-2.693c-0.822,1.134-1.077,2.636-0.539,4.054C347.302,373.166,348.493,374.13,349.854,374.441z
	 M385.031,380.111c0.482-1.446,0.17-2.948-0.709-4.025c-1.332,0.369-2.494,1.361-2.948,2.807c-0.482,1.417-0.17,2.919,0.68,4.025
	C383.416,382.548,384.55,381.528,385.031,380.111z M375.989,387.084c-1.361-0.624-2.891-0.482-4.082,0.255
	c0.227,1.389,1.134,2.636,2.494,3.26c1.389,0.624,2.891,0.454,4.082-0.284C378.257,388.927,377.378,387.679,375.989,387.084z
	 M383.954,382.662c0.114,0,0.199-0.028,0.312-0.057C384.266,382.605,384.153,382.633,383.954,382.662z M384.861,386.715
	c1.304,0.794,2.835,0.822,4.11,0.227c-0.085-1.417-0.794-2.75-2.098-3.515c-1.276-0.793-2.806-0.822-4.082-0.227
	C382.849,384.589,383.586,385.95,384.861,386.715z M388.461,382.152c1.134-0.539,1.871-1.616,2.041-2.778
	c-1.021-0.596-2.296-0.709-3.43-0.17c-1.162,0.539-1.899,1.616-2.069,2.778C386.024,382.577,387.299,382.69,388.461,382.152z
	 M379.277,388.7c1.219,0.851,2.75,0.992,4.054,0.482c0.057-1.389-0.595-2.778-1.814-3.657c-1.219-0.85-2.75-0.992-4.053-0.51
	C377.406,386.432,378.058,387.821,379.277,388.7z M361.022,369.396c-0.879-1.077-2.268-1.729-3.77-1.587
	c-1.502,0.142-2.75,1.021-3.402,2.239c0.85,1.105,2.239,1.757,3.742,1.616C359.094,371.522,360.342,370.643,361.022,369.396z
	 M364.282,388.813c0.227-1.502-0.34-2.919-1.361-3.855c-1.276,0.567-2.239,1.757-2.466,3.26c-0.227,1.474,0.312,2.892,1.361,3.855
	C363.091,391.478,364.055,390.287,364.282,388.813z M379.816,381.443c0.425-1.445,0.028-2.948-0.879-3.997
	c-1.332,0.425-2.41,1.502-2.835,2.948c-0.397,1.446-0.028,2.92,0.879,3.997C378.313,383.938,379.419,382.889,379.816,381.443z
	 M361.306,363.755c-1.502-0.142-2.891,0.482-3.798,1.559c0.652,1.219,1.899,2.126,3.401,2.296c1.502,0.142,2.891-0.482,3.77-1.559
	C364.027,364.804,362.808,363.897,361.306,363.755z M355.324,391.903c-0.227,1.474,0.34,2.92,1.361,3.855
	c1.276-0.595,2.239-1.786,2.466-3.26s-0.312-2.919-1.332-3.855C356.543,389.238,355.579,390.4,355.324,391.903z M364.934,385.355
	c-0.227,1.474,0.34,2.919,1.361,3.855c1.276-0.595,2.239-1.757,2.466-3.26c0.227-1.474-0.312-2.92-1.361-3.855
	C366.153,382.69,365.189,383.881,364.934,385.355z M365.671,357.405c0.737-1.049,0.85-2.324,0.425-3.43
	c-1.191-0.029-2.353,0.51-3.09,1.53c-0.737,1.049-0.85,2.325-0.425,3.43C363.772,358.964,364.934,358.426,365.671,357.405z
	 M361.277,361.09c0.737,1.19,2.013,2.013,3.543,2.041c1.502,0.057,2.835-0.68,3.657-1.814c-0.737-1.19-2.041-2.012-3.543-2.041
	C363.432,359.219,362.071,359.957,361.277,361.09z M65.425,367.894c-1.304,0.793-2.013,2.126-2.098,3.543
	c1.276,0.595,2.806,0.567,4.082-0.227c1.304-0.765,2.041-2.126,2.098-3.515C68.231,367.1,66.701,367.128,65.425,367.894z
	 M68.345,367.156c-0.114-0.028-0.199-0.028-0.312-0.057C68.033,367.099,68.147,367.128,68.345,367.156z M77.898,375.093
	c1.361-0.624,2.239-1.871,2.466-3.26c-1.162-0.737-2.693-0.878-4.054-0.283c-1.389,0.624-2.268,1.871-2.494,3.26
	C75.006,375.547,76.509,375.717,77.898,375.093z M70.244,367.412c0.85-1.105,1.162-2.608,0.68-4.025
	c-0.454-1.445-1.616-2.466-2.948-2.834c-0.879,1.105-1.191,2.608-0.709,4.025C67.75,366.022,68.883,367.043,70.244,367.412z
	 M75.318,368.857c0.907-1.049,1.276-2.523,0.879-3.997c-0.425-1.446-1.502-2.495-2.835-2.919c-0.907,1.049-1.304,2.522-0.879,3.997
	C72.88,367.383,73.986,368.432,75.318,368.857z M63.838,366.646c1.162,0.539,2.438,0.425,3.458-0.17
	c-0.17-1.162-0.907-2.239-2.069-2.778c-1.134-0.539-2.409-0.454-3.43,0.17C61.967,365.03,62.704,366.107,63.838,366.646z
	 M70.783,370.02c-1.219,0.878-1.871,2.268-1.814,3.657c1.304,0.51,2.806,0.368,4.054-0.51c1.219-0.851,1.843-2.239,1.814-3.657
	C73.532,369.027,72.002,369.141,70.783,370.02z M95.614,380.252c1.02-0.964,1.587-2.381,1.332-3.855
	c-0.227-1.502-1.191-2.693-2.466-3.26c-1.02,0.935-1.559,2.353-1.332,3.855C93.375,378.467,94.339,379.657,95.614,380.252z
	 M361.414,360.651c0.117-0.108,0.224-0.221,0.342-0.329C361.657,360.417,361.541,360.528,361.414,360.651z M100.461,384.334
	c1.021-0.936,1.587-2.381,1.361-3.855c-0.227-1.502-1.191-2.693-2.438-3.26c-1.049,0.936-1.616,2.353-1.389,3.827
	C98.222,382.548,99.186,383.739,100.461,384.334z M73.957,399.953C73.929,399.84,73.929,399.896,73.957,399.953L73.957,399.953z
	 M536.931,431.901c-0.255-2.041-6.151-2.807-12.557-1.276c-6.434,1.531-3.855-3.345-4.62-8.22
	c-0.765-4.847-2.835-3.062-13.351,1.559c-10.488,4.62-1.021,3.062-1.531,5.896c-0.51,2.807-4.875,1.531-6.151-1.814
	c-1.275-3.317,0.766-3.317-0.765-6.151c-1.531-2.806-5.896,2.07-6.151,3.345c-0.255,1.276-2.579,6.662-6.661,5.896
	c-4.11-0.766-5.896,0.51-10.261,6.151c-4.365,5.641-11.282,7.682-15.902,1.531c-4.621-6.152-3.856-8.703-6.917-12.558
	c-3.089-3.855-13.606,1.785-18.198,2.834c-4.621,1.02-10.517-4.62-8.986-11.537c1.531-6.945-3.6-6.152-7.682-5.131
	c-4.11,1.021-3.345,4.337-6.945,1.531c-3.572-2.835,0.255-5.896,0.51-8.986c0.255-3.062-2.806-3.062-6.406,0
	c-3.571,3.09-3.316,7.199-6.661,2.324c-3.317-4.875-9.496-4.875-12.813,5.386c-0.284,0.85-0.595,1.644-0.964,2.381
	c-1.502-0.567-2.834-1.446-4.025-2.636c-3.004-3.004-6.009,0.652-8.447,4.394c-0.737-3.316-2.721-4.79-7.597-7.228
	c-3.969-1.985-8.476-0.114-11.169,1.445c-0.567-0.227-1.134-0.454-1.729-0.652c0.454-1.502,1.19-3.883,2.381-7.653
	c0.34,0.424,0.765,0.821,1.304,1.105c1.332,0.708,2.863,0.652,4.082,0c-0.113-1.389-0.935-2.693-2.239-3.402
	c-0.908-0.482-1.9-0.595-2.835-0.425c0-0.085,0-0.141-0.028-0.198c1.219-1.162,2.438-2.239,3.657-3.26
	c0.17,1.304,0.964,2.523,2.211,3.203c1.304,0.736,2.835,0.68,4.082,0.028c-0.113-1.389-0.935-2.693-2.239-3.43
	c-1.134-0.595-2.381-0.652-3.515-0.255c1.53-1.219,3.033-2.352,4.535-3.373c0.17,1.361,0.935,2.637,2.239,3.345
	c1.332,0.708,2.863,0.68,4.11,0.028c-0.142-1.418-0.936-2.722-2.268-3.43c-1.219-0.652-2.607-0.652-3.798-0.142
	c1.446-0.963,2.835-1.842,4.224-2.636c0.141,1.361,0.935,2.636,2.239,3.317c1.304,0.736,2.835,0.68,4.082,0.028
	c-0.141-1.389-0.935-2.693-2.239-3.43c-1.134-0.595-2.409-0.652-3.543-0.255c7.71-4.366,14.201-6.265,16.214-6.775
	c-4.195,0.964-8.107,2.324-11.65,3.94c0.907-0.623,1.587-1.559,1.814-2.721c0.283-1.474-0.199-2.92-1.191-3.912
	c-1.276,0.538-2.296,1.672-2.608,3.146c-0.283,1.445,0.199,2.891,1.134,3.883c-7.597,3.571-13.578,8.135-17.688,11.82
	c-0.028-0.085-0.057-0.17-0.085-0.255c0.482-0.596,0.822-1.304,0.964-2.098c0.227-1.502-0.34-2.92-1.389-3.855
	c-1.162,0.538-2.041,1.587-2.353,2.891c-2.041-1.247-4.791-1.956-7.37-2.324c0.17-0.907,0.312-1.559,0.397-1.843
	c0.794,0.907,2.013,1.474,3.317,1.446c1.503-0.029,2.807-0.823,3.572-2.013c-0.822-1.134-2.155-1.87-3.657-1.842
	c-1.134,0.028-2.126,0.482-2.891,1.19c0.51-1.7,1.077-3.373,1.672-4.96c0.822,1.049,2.098,1.729,3.515,1.701
	c1.503-0.028,2.807-0.822,3.572-1.984c-0.793-1.163-2.126-1.899-3.628-1.871c-1.276,0.029-2.409,0.596-3.203,1.474
	c0.737-1.814,1.502-3.543,2.296-5.159c0.794,1.106,2.126,1.842,3.6,1.814c1.503-0.028,2.807-0.822,3.572-1.984
	c-0.793-1.163-2.126-1.899-3.628-1.871c-1.389,0.028-2.608,0.708-3.402,1.729c0.765-1.531,1.559-3.005,2.381-4.365
	c0.794,1.106,2.098,1.814,3.572,1.814c1.503-0.029,2.835-0.822,3.572-2.013c-0.793-1.134-2.126-1.899-3.628-1.871
	c-1.276,0.028-2.409,0.623-3.203,1.502c4.236-7.094,8.642-11.788,10.43-13.532c-3.024,2.8-5.64,5.798-7.85,8.827
	c0.482-0.964,0.595-2.126,0.227-3.26c-0.453-1.418-1.587-2.438-2.948-2.835c-0.851,1.105-1.191,2.608-0.709,4.025
	c0.453,1.417,1.559,2.438,2.891,2.834c-6.236,8.76-9.354,17.689-10.8,22.933c-1.502-0.17-2.892-0.255-3.997-0.255
	c-1.805,0-3.46,0.638-4.871,1.48c-0.057,1.36-0.085,2.947-0.085,5.185c0,7.058-1.247,10.375,3.742,12.444
	c4.96,2.098,7.058,1.247,7.455,5.414c0.425,4.139-14.117,4.139,1.672,7.455c15.761,3.317,10.233-0.255,17.972,1.956
	c7.767,2.211,3.6,1.105,7.767,6.066c4.138,4.989,7.738,2.778,10.488,2.211c2.778-0.539,4.989-2.466,4.45,1.956
	c-0.567,4.422-1.389,6.095,1.361,6.917c2.778,0.821,3.345-1.673,4.45,1.105c1.105,2.749-2.24,2.494,1.105,4.138
	c3.316,1.673,5.527,0.284,9.666,1.106c4.167,0.85,9.411,4.166,9.411,5.272v0.963h82.035c15.676-0.964,30.076-6.576,41.896-15.449
	c0.113-1.105,0.198-1.927,0.198-2.324C536.94,437.541,537.195,433.941,536.931,431.901z M412.811,456.571v0.018H122.968
	c-29.991-7.086-54.283-28.856-64.913-57.316c0.453-1.021,2.608-5.329,6.463-3.515c4.365,2.041,2.806,5.641,3.6,7.682
	c0.765,2.041,6.661,10.006,6.151,1.275c-0.227-3.515-0.312-4.535-0.312-4.762c0,0.085,0.057,0.057,0.057-1.644
	c0-4.365,3.061-6.406,4.337-5.641c1.304,0.765,1.814,1.275,1.814,4.11c0,2.807,2.296,2.296,2.806-2.041
	c0.51-4.366-4.365-4.876,0.765-7.966c1.984-1.19,3.685-2.211,5.046-2.891c0.227-1.247,0.992-2.381,2.183-3.033
	c1.134-0.595,2.381-0.652,3.515-0.255c-1.531-1.248-3.033-2.353-4.535-3.402c-0.17,1.389-0.935,2.665-2.239,3.374
	c-1.332,0.708-2.863,0.652-4.11,0c0.142-1.389,0.935-2.693,2.268-3.402c1.219-0.652,2.608-0.68,3.798-0.142
	c-1.446-0.964-2.835-1.842-4.224-2.665c-0.142,1.389-0.935,2.636-2.239,3.345c-1.304,0.709-2.835,0.681-4.082,0.028
	c0.142-1.389,0.935-2.693,2.239-3.43c1.134-0.595,2.409-0.652,3.543-0.255c-7.71-4.394-14.202-6.264-16.214-6.803
	c4.195,0.963,8.107,2.353,11.65,3.968c-0.907-0.624-1.587-1.559-1.814-2.721c-0.284-1.474,0.198-2.92,1.191-3.912
	c1.276,0.539,2.296,1.672,2.608,3.146c0.283,1.446-0.198,2.892-1.134,3.884c15.109,7.086,23.896,18.198,23.896,18.198l3.146,3.798
	c1.191-0.085,2.409-0.142,3.572-0.17c-1.304-7.739-2.75-16.271-3.09-17.49c-0.822,0.907-2.013,1.474-3.317,1.446
	c-1.502-0.028-2.806-0.822-3.572-2.013c0.822-1.134,2.154-1.871,3.657-1.843c1.134,0.029,2.126,0.482,2.891,1.191
	c-0.51-1.729-1.077-3.374-1.672-4.961c-0.822,1.049-2.098,1.729-3.515,1.701c-1.502-0.028-2.806-0.822-3.572-1.984
	c0.794-1.162,2.126-1.899,3.628-1.871c1.276,0,2.409,0.595,3.203,1.474c-0.737-1.814-1.502-3.543-2.296-5.159
	c-0.794,1.105-2.126,1.843-3.6,1.814c-1.502-0.028-2.806-0.822-3.572-2.013c0.794-1.134,2.126-1.871,3.628-1.871
	c1.389,0.028,2.608,0.709,3.402,1.758c-0.765-1.559-1.559-3.005-2.381-4.366c-0.794,1.106-2.098,1.814-3.572,1.786
	c-1.502-0.028-2.835-0.822-3.572-1.984c0.794-1.162,2.126-1.899,3.628-1.871c1.276,0.028,2.409,0.595,3.203,1.502
	c-4.535-7.597-9.298-12.444-10.772-13.89c3.175,2.92,5.896,6.038,8.192,9.185c-0.482-0.992-0.595-2.126-0.227-3.26
	c0.454-1.417,1.587-2.438,2.948-2.834c0.85,1.105,1.191,2.608,0.709,4.025c-0.454,1.417-1.559,2.438-2.891,2.806
	c9.666,13.635,11.877,27.609,11.877,27.609l1.956,11.112c1.928,0,3.713,0.113,5.272,0.227c0.765-1.757,1.02-3.486,1.531-5.102
	c1.021-3.316,2.296-6.151,6.151-4.592c0.624,0.255,1.077,0.51,1.417,0.766c6.094-10.091,19.134-21.884,38.863-17.745
	c5.896,1.247,10.375,3.175,13.833,5.442c0.765-2.012,0.652-3.288,4.082-3.855c4.62-0.765,6.406-1.786,6.917,0.51
	s1.304,3.6,3.6,3.855c2.296,0.255,2.041-0.765,6.661-2.324c2.069-0.68,3.798-0.907,5.357-0.595v8.815h2.721
	c1.361-2.381,2.438-2.834,5.783-2.834c4.337,0,4.592,2.069,7.682,4.621c3.061,2.58,4.876,2.296,8.192,0
	c3.345-2.296,1.049-1.531,5.896-4.621c4.876-3.062,4.11-6.661,9.496-5.386c5.386,1.304,2.58,0.765,5.386,3.855
	c2.835,3.09,4.11,6.406,6.406,1.021c2.324-5.386-3.317-8.192,3.09-9.496c6.406-1.275,6.406-1.021,7.172,3.09
	c0.765,4.11,3.6,5.131,5.386,3.855c1.786-1.304,4.11-5.896,5.386-2.834c1.276,3.09-1.276,7.71-1.276,10.261
	c0,2.24,1.729,1.163,3.713,3.203c1.21-0.367,2.478-0.707,3.83-1.004c-0.26,0.065-0.52,0.13-0.779,0.195
	c-0.652,1.275-0.595,2.863-1.814,6.038c-2.069,5.386-8.702,3.317-17.83-1.247c-9.128-4.564-10.375-1.247-12.444,4.564
	c-2.098,5.811-4.167,3.316-14.542,3.316s-24.066,9.95-28.205,17.83c-4.167,7.908-2.495,4.989-5.811,9.978
	c-3.345,4.961-6.236-0.425-9.156-0.425c-2.891,0-2.891,1.672-5.783,8.305c-2.92,6.633-1.672,3.317-5.414,5.811
	c-3.742,2.495-2.069,1.644-8.702,4.564c-6.661,2.891-0.425,3.316-1.672,6.236c-1.247,2.891-7.058,2.466-10.8,4.563
	c-2.976,1.644-4.11,3.572-4.422,4.28H412.811z M92.865,384.221c0.028,0.085,0.085,0.142,0.113,0.255
	c0.397,1.105,0.879,1.587,1.191,2.013c0.397-0.652,0.935-1.19,1.644-1.559c0.992-0.539,2.098-0.652,3.118-0.397
	c-1.276-1.247-2.58-2.409-3.912-3.486C94.849,382.35,94.083,383.541,92.865,384.221z M106.216,393.093
	c-3.146-3.883-5.783-7.058-6.378-7.653c-0.255,1.19-1.021,2.268-2.183,2.891c-1.106,0.596-2.381,0.652-3.487,0.255
	c-0.142,0.425-0.368,0.907-0.68,1.531c-2.041,4.082-4.365,5.896-2.296,7.682c1.106,0.964,2.75,0.737,3.997,0.822
	c1.049-1.077,2.239-2.013,3.572-2.693c1.247-0.652,2.665-1.105,4.139-1.474c-0.34-1.275-0.113-1.672,1.106-1.531
	C104.798,393.008,105.535,393.008,106.216,393.093z M86.005,373.705c1.02-0.936,1.587-2.381,1.361-3.855
	c-0.255-1.502-1.219-2.693-2.466-3.26c-1.049,0.936-1.587,2.353-1.361,3.855C83.765,371.918,84.729,373.109,86.005,373.705z
	 M98.449,354.542c-0.652-1.219-1.899-2.126-3.402-2.24c-1.502-0.142-2.891,0.51-3.77,1.587c0.68,1.248,1.928,2.126,3.43,2.268
	C96.209,356.271,97.598,355.648,98.449,354.542z M107.038,365.314c-0.51,1.389-0.255,2.891,0.539,4.054
	c1.361-0.34,2.551-1.304,3.09-2.722c0.539-1.389,0.283-2.891-0.539-4.025C108.767,362.933,107.576,363.896,107.038,365.314z
	 M104.402,359.56c-0.539,1.417-0.283,2.92,0.539,4.054c1.361-0.312,2.551-1.276,3.09-2.693c0.51-1.389,0.255-2.92-0.539-4.054
	C106.102,357.179,104.94,358.17,104.402,359.56z M102.446,358.936c1.361-0.312,2.551-1.304,3.061-2.693
	c0.539-1.417,0.283-2.92-0.539-4.054c-1.361,0.312-2.551,1.276-3.061,2.693C101.368,356.3,101.624,357.802,102.446,358.936z
	 M95.501,349.468c1.332-0.482,2.381-1.587,2.75-3.062c0.34-1.446-0.085-2.919-1.021-3.94c-1.332,0.482-2.381,1.587-2.75,3.033
	C94.14,346.974,94.565,348.448,95.501,349.468z M285.917,382.503h0.028h0.028v-0.016c-0.005,0.001-0.01,0.002-0.016,0.003
	c-0.019,0.004-0.036,0.009-0.056,0.013H285.917z M109.277,371.238c-0.539,1.417-0.284,2.92,0.539,4.054
	c1.361-0.312,2.551-1.276,3.061-2.693c0.539-1.389,0.283-2.892-0.51-4.054C111.006,368.857,109.816,369.821,109.277,371.238z
	 M94.395,342.523c0.283-1.474-0.198-2.92-1.191-3.912c-1.304,0.539-2.296,1.701-2.608,3.174c-0.283,1.474,0.227,2.92,1.219,3.912
	C93.091,345.16,94.112,343.998,94.395,342.523z M286.228,382.447l0.087-0.022c-0.092,0.018-0.183,0.031-0.276,0.05h0.076
	L286.228,382.447z M87.479,347.626c1.502-0.057,2.806-0.851,3.543-2.041c-0.794-1.134-2.154-1.871-3.657-1.814
	c-1.502,0.028-2.806,0.851-3.543,2.041C84.644,346.945,85.976,347.683,87.479,347.626z M89.378,369.424
	c-1.021,0.964-1.587,2.381-1.361,3.883c0.227,1.474,1.191,2.665,2.466,3.26c1.049-0.964,1.587-2.381,1.361-3.883
	C91.617,371.21,90.654,370.02,89.378,369.424z M90.285,344.564c-0.142-0.142-0.227-0.227-0.227-0.227
	C90.143,344.422,90.2,344.479,90.285,344.564z M90.994,348.25c-1.502,0.142-2.721,1.049-3.373,2.296
	c0.879,1.077,2.268,1.701,3.77,1.531c1.502-0.142,2.75-1.049,3.402-2.268C93.885,348.703,92.496,348.079,90.994,348.25z
	 M89.718,343.431c0.425-1.105,0.312-2.381-0.425-3.43c-0.737-1.021-1.899-1.559-3.09-1.531c-0.425,1.105-0.312,2.381,0.425,3.402
	C87.365,342.92,88.528,343.459,89.718,343.431z"></path>
<path id="color_x5F_5" fill="#FFD2BB" d="M471.573,354.287c-0.765,2.013-4.45,5.953-4.677,6.208
	c-0.198,0.255-5.981,6.718-5.981,6.718l-3.458-4.025c0,0,6.293-5.272,6.378-5.442c0.113-0.142-0.964-1.701-0.907-3.374
	c0.028-1.644,0.822-2.58,1.219-2.834c0.425-0.284,1.672-0.907,1.984-0.737c0.312,0.142,0.312,1.247,0,1.36
	c-0.312,0.085-0.567,0.198-0.737,0.879c-0.142,0.652,0.17,1.021,0.227,1.275c0.057,0.284,3.317-2.013,3.94-2.891
	c0.624-0.879,0.51-4.677,0.822-4.876c0.312-0.198,1.361-0.198,1.502,0.199C472.055,347.172,472.367,352.246,471.573,354.287
	L471.573,354.287z M428.487,329.427L428.487,329.427c-2.296-0.595-4.762-0.425-4.762-0.425s-2.721-0.17-3.515,1.474
	c-0.794,1.672-1.134,2.75-1.134,2.75s-0.255-2.919-0.879-3.175c-0.624-0.255-2.891-0.34-3.175,2.636
	c-0.255,2.977,0.624,3.175,0.794,5.103c0.198,1.928-2.098,3.43-4.224,4.224c-1.644,0.624-2.381-0.17-2.608-0.539
	c0.368,2.665,0.368,4.649,0.255,5.981l0,0c2.013,0.51,4.252,1.248,4.252,1.248s3.146,0.624,6.35,2.239
	c0.794-1.899,1.672-3.458,2.523-3.6c2.211-0.34,5.159,1.162,5.981-0.822c0.822-1.984,1.162-3.401,1.531-3.855
	c0.34-0.482,2.579-0.255,2.806-1.899c0.227-1.645-0.227-6.775,1.162-9.354c0.255-0.482,0.425-1.049,0.539-1.644
	c-0.028,0-0.057,0-0.085,0.028C431.208,330.306,430.783,330.051,428.487,329.427L428.487,329.427z M127.986,444.315L127.986,444.315
	h10.12l3.685-10.63h-11.65L127.986,444.315z M120.049,270.325L120.049,270.325c0.935-1.758,0.822-2.665-0.765-2.778
	c-1.587-0.142-3.373,2.721-3.685,3.26c-0.283,0.567-1.247-1.956-1.531-2.721c-0.283-0.765-0.709-12.472-2.183-11.679
	c-1.474,0.794-1.446,10.829-1.446,12.671c0,1.248,3.628,7.115,6.066,10.942c1.843-0.624,4.025-1.19,6.009-1.701
	C121.098,275.286,119.482,271.345,120.049,270.325L120.049,270.325z M187.967,434.026L187.967,434.026
	c0.312-0.681,0.709-1.587,1.304-2.892c0.085-0.227,0.17-0.454,0.284-0.68l-2.183,0.369L187.967,434.026z M161.633,249.831
	L161.633,249.831c0,4.791-1.701,4.791-4.167,0.624c-2.239-3.827-7.087-1.049-9.553-4.11c0.085,3.26,1.417,4.139,1.559,6.69
	c0.142,2.778,0.142,4.96,0.907,4.96s1.701-0.312,2.013,2.466s1.219,4.167,5.386,4.025c3.232-0.113,4.62,3.771,5.046,5.5
	c0.312-0.057,0.624-0.113,0.964-0.142c0.142-7.937,1.758-13.748,2.013-15.335c0.453-2.92,2.353-4.734,0.822-6.888
	S161.633,245.04,161.633,249.831L161.633,249.831z"></path>
<path id="color_x5F_4" fill="#7ed321" d="M412.811,456.589v-0.963c0-1.106-5.244-4.422-9.411-5.272
	c-4.139-0.822-6.35,0.567-9.666-1.106c-3.345-1.644,0-1.389-1.105-4.138c-1.105-2.778-1.672-0.284-4.45-1.105
	c-2.75-0.822-1.928-2.495-1.361-6.917c0.539-4.422-1.672-2.495-4.45-1.956c-2.75,0.567-6.35,2.778-10.488-2.211
	c-4.167-4.961,0-3.855-7.767-6.066c-7.739-2.211-2.211,1.361-17.972-1.956c-15.789-3.316-1.247-3.316-1.672-7.455
	c-0.397-4.167-2.495-3.316-7.455-5.414c-4.989-2.069-3.742-5.386-3.742-12.444c0-2.24,0.028-3.827,0.085-5.188
	c-2.466,1.474-4.195,3.6-4.535,4.082h-0.028v0.028l0,0l-0.028,0.028l-0.028,0.028l0,0l0,0l0,0l0,0c0,0,0-1.786,2.551-8.703
	c0.057-0.113,0.085-0.227,0.113-0.34c0.057-0.114,0.085-0.199,0.113-0.312s0.057-0.227,0.057-0.312l0,0
	c0.028-0.113,0.057-0.227,0.085-0.312c0-0.113,0.028-0.227,0.028-0.312c0.028-0.113,0.028-0.227,0.028-0.312
	c0.028-0.113,0.028-0.199,0.028-0.312s0-0.198,0-0.312l0,0c0-0.085,0-0.199-0.028-0.284l0,0c0-0.113,0-0.198-0.028-0.312
	c0-0.085-0.028-0.198-0.028-0.283l0,0c-0.028-0.113-0.028-0.198-0.057-0.284c-0.028-0.113-0.057-0.198-0.057-0.283
	c-0.028-0.113-0.057-0.199-0.085-0.284l0,0c-0.028-0.113-0.057-0.198-0.113-0.283c-0.028-0.085-0.057-0.199-0.085-0.284
	c-0.057-0.085-0.085-0.17-0.113-0.255c-0.057-0.113-0.085-0.199-0.142-0.284l0,0c-0.057-0.085-0.085-0.17-0.142-0.255
	s-0.085-0.17-0.142-0.255s-0.113-0.17-0.17-0.255s-0.113-0.17-0.17-0.255s-0.113-0.17-0.17-0.255l0,0
	c-0.057-0.085-0.142-0.17-0.198-0.255l0,0c-0.057-0.057-0.113-0.142-0.198-0.227l0,0c-0.057-0.085-0.142-0.17-0.198-0.227
	c-0.057-0.085-0.142-0.17-0.227-0.227c-0.057-0.085-0.142-0.17-0.198-0.227l0,0c-0.085-0.085-0.17-0.17-0.227-0.227
	c-0.085-0.085-0.17-0.142-0.255-0.227c-0.085-0.057-0.142-0.142-0.227-0.199l0,0c-0.085-0.085-0.17-0.142-0.255-0.227
	c-0.085-0.057-0.17-0.113-0.255-0.198c-0.085-0.057-0.17-0.114-0.255-0.199c-0.085-0.057-0.198-0.113-0.283-0.17
	c-0.085-0.085-0.17-0.142-0.255-0.199l0,0c-0.113-0.057-0.198-0.113-0.284-0.17l0,0c-0.085-0.085-0.198-0.142-0.283-0.198
	c-0.085-0.057-0.198-0.113-0.283-0.17s-0.198-0.113-0.283-0.17c-0.113-0.028-0.198-0.085-0.283-0.142
	c-0.113-0.057-0.198-0.113-0.312-0.17c-0.085-0.028-0.198-0.085-0.284-0.142c-0.113-0.057-0.198-0.085-0.312-0.142
	c-0.085-0.057-0.198-0.085-0.283-0.142c-0.113-0.028-0.198-0.085-0.312-0.113c-0.085-0.057-0.198-0.085-0.312-0.142
	c-0.085-0.028-0.198-0.085-0.283-0.113c-0.113-0.057-0.198-0.085-0.312-0.113c-0.113-0.057-0.198-0.085-0.312-0.113
	c-0.085-0.028-0.198-0.057-0.284-0.114c-0.113-0.028-0.227-0.057-0.312-0.085c-0.113-0.028-0.198-0.057-0.312-0.085
	c-0.085-0.028-0.198-0.057-0.283-0.085c-0.113-0.028-0.198-0.057-0.312-0.085c-0.085-0.028-0.198-0.028-0.283-0.057
	c-0.113-0.028-0.198-0.057-0.312-0.057c-0.085-0.028-0.198-0.057-0.283-0.085c-0.085,0-0.198-0.028-0.284-0.028
	c-0.085-0.028-0.198-0.028-0.283-0.057c-0.085,0-0.198-0.028-0.283-0.028s-0.198-0.028-0.283-0.028s-0.17-0.028-0.255-0.028
	c-0.113,0-0.198,0-0.284,0c-4.649-0.227-6.86,5.329-8.079,8.703c-2.438-1.417-5.159-2.608-8.107-3.402l-0.085-0.085l-0.113-0.057
	l-0.085-0.057l-0.113-0.085l0,0l-0.085-0.057l0,0l-0.113-0.057l-0.113-0.085l-0.113-0.057l-0.113-0.057l-0.113-0.057l-0.113-0.057
	l-0.113-0.057l0,0l-0.142-0.057l-0.113-0.057l-0.113-0.057l0,0l-0.142-0.057l0,0l-0.113-0.057l0,0l-0.142-0.057l-0.142-0.057l0,0
	l-0.113-0.057l0,0l-0.142-0.028l0,0l-0.142-0.057l0,0l-0.142-0.057l0,0l-0.142-0.029l0,0l-0.142-0.057l-0.142-0.028l-0.142-0.028
	l0,0l-0.142-0.057l-0.17-0.028l0,0l-0.142-0.028l-0.142-0.028l-0.142-0.028l0,0l-0.17-0.028l-0.142-0.028l0,0l-0.17-0.028
	l-0.142-0.028h-0.17l-0.142-0.028h-0.17l-0.17-0.028h-0.142h-0.17l0,0h-0.17h-0.17h-0.142h-0.17h-0.17l-0.17,0.028h-0.17
	l-0.142,0.028l-0.17,0.028h-0.17l-0.17,0.028l-0.17,0.028l-0.17,0.057l-0.17,0.028l-0.17,0.028l-0.17,0.057l-0.17,0.028l-0.17,0.057
	l-0.17,0.057l-0.17,0.057l-0.17,0.057l-0.142,0.085h-0.113h-0.113h-0.113h-0.113h-0.113h-0.113h-0.113h-0.113l-0.113,0.028h-0.113
	h-0.113h-0.113h-0.113l-0.142,0.028H291.8h-0.113h-0.113h-0.113l-0.113,0.028h-0.113h-0.113l-0.113,0.028h-0.113h-0.113
	l-0.113,0.028l0,0h-0.142l0,0h-0.113l0,0l-0.113,0.028h-0.113l-0.113,0.028l0,0h-0.113l-0.113,0.028h-0.142l0,0l-0.113,0.028h-0.113
	l-0.113,0.028h-0.113l0,0l-0.113,0.028h-0.142l0,0l-0.113,0.028l0,0h-0.113l-0.113,0.029h-0.142l-0.113,0.028l-0.113,0.028h-0.113
	l0,0l-0.113,0.028l0,0l-0.142,0.028l0,0h-0.113l0,0l-0.113,0.028l-0.142,0.028l0,0l-0.113,0.028h-0.113l0,0l-0.113,0.028l0,0
	l-0.142,0.028l-0.113,0.028h-0.113l0,0l-0.142,0.028l0,0l-0.113,0.028l-0.113,0.028l-0.142,0.028l0,0l-0.113,0.028l0,0l-0.113,0.028
	h-0.142v0.028h-0.028h-0.028l0,0l0,0h-0.028l0,0c-0.34,0.085-0.68,0.17-1.02,0.255c-0.652,1.275-0.595,2.863-1.814,6.038
	c-2.069,5.386-8.702,3.317-17.83-1.247s-10.375-1.247-12.444,4.564c-2.098,5.811-4.167,3.316-14.542,3.316
	s-24.066,9.95-28.205,17.83c-4.167,7.908-2.495,4.989-5.811,9.978c-3.345,4.961-6.236-0.425-9.156-0.425
	c-2.891,0-2.891,1.672-5.783,8.305c-2.92,6.633-1.672,3.317-5.414,5.811c-3.742,2.495-2.069,1.644-8.702,4.564
	c-6.661,2.891-0.425,3.316-1.672,6.236c-1.247,2.891-7.058,2.466-10.8,4.563c-2.976,1.644-4.11,3.572-4.422,4.28h254.537
	L412.811,456.589L412.811,456.589z"></path>
<path id="color_x5F_3" fill="#d71742" d="M463.438,370.218c0,0-20.495,26.136-22.819,27.127c-2.324,0.992-12.898-5.301-12.898-5.301
	s4.309,20.183,1.644,21.175c-0.935,0.369-2.41,0.454-4.422,0.567c-0.935-2.778-4.649-2.155-7.739-1.361
	c-2.324,0.567-3.09,1.871-3.94,2.409c-0.397,0.057-0.765,0.114-1.134,0.17c-0.482-0.113-1.049-0.425-1.871-1.049
	c-3.572-2.835,0.255-5.896,0.51-8.986c0.255-3.062-2.806-3.062-6.406,0c-3.572,3.09-3.317,7.2-6.661,2.324
	c-2.579-3.798-6.888-4.62-10.233,0c-0.255-4.649,0.057-12.217,0.794-20.098c0.227-0.085,0.454-0.142,0.709-0.255
	c-0.028-0.652-0.227-1.276-0.51-1.871c0.085-1.021,0.198-2.069,0.312-3.09c0.964-0.595,1.587-1.559,1.729-2.607
	c-0.425-0.255-0.879-0.397-1.361-0.482c0.992-8.107,2.353-15.534,3.827-19.276c3.969-9.921,11.906-12.217,13.238-12.558
	c1.332-0.34,7.285,1.645,7.285,1.645s10.261,1.984,12.557,8.277c2.324,6.293,12.246,20.183,12.246,20.183l16.554-17.206
	L463.438,370.218z M111.772,249.235L111.772,249.235l2.863,21.146l2.438-0.312l-2.835-21.175L111.772,249.235z M172.263,341.588
	L172.263,341.588c-9.241,0-28.658-1.559-28.658-3.401l-20.778,95.499h28.375l19.106-66.614l8.022,65.367l11.169-1.899
	c2.665-6.123,2.75-7.71,5.556-7.71c2.92,0,5.811,5.386,9.156,0.425c0.709-1.077,1.191-1.786,1.559-2.324
	c-4.365-18.454-16.356-70.214-17.461-83.679C188.307,337.251,181.532,341.588,172.263,341.588L172.263,341.588z"></path>
<path id="color_x5F_2" fill="#016fb6" d="M354.644,403.837c0.198,0.085,0.369,0.17,0.567,0.255v5.698
	c-0.935,0.397-1.786,0.822-2.523,1.247c-0.567-0.227-1.134-0.454-1.729-0.652c0.454-1.502,1.191-3.883,2.381-7.653
	C353.68,403.156,354.105,403.553,354.644,403.837L354.644,403.837z M353.652,400.01L353.652,400.01c0.51-0.113,1.049-0.085,1.559,0
	v-1.672c-0.539,0.482-1.049,0.964-1.587,1.474C353.652,399.868,353.652,399.925,353.652,400.01L353.652,400.01z M351.753,381.245
	L351.753,381.245c-1.474,0.028-2.806-0.708-3.6-1.814c-0.794,1.616-1.559,3.345-2.296,5.159c0.794-0.878,1.927-1.445,3.203-1.474
	c1.502-0.028,2.835,0.708,3.628,1.871c-0.765,1.162-2.069,1.956-3.572,1.984c-1.417,0.028-2.693-0.652-3.515-1.701
	c-0.595,1.587-1.162,3.26-1.672,4.96c0.765-0.708,1.757-1.162,2.891-1.19c1.502-0.028,2.835,0.708,3.657,1.842
	c-0.765,1.19-2.069,1.984-3.572,2.013c-1.304,0.028-2.523-0.539-3.317-1.446c-0.085,0.284-0.227,0.936-0.397,1.843
	c2.579,0.368,5.329,1.077,7.37,2.324c0.312-1.304,1.191-2.353,2.353-2.891c1.049,0.935,1.616,2.353,1.389,3.855
	c-0.142,0.794-0.482,1.502-0.964,2.098c0.028,0.085,0.057,0.17,0.085,0.255c0.567-0.51,1.162-1.02,1.786-1.559v-17.972
	C354.446,380.479,353.198,381.216,351.753,381.245L351.753,381.245z M354.191,372.684L354.191,372.684
	c0.34,0,0.709,0.028,1.02,0.113v-1.616c-0.539-0.284-0.992-0.652-1.361-1.134c0.312-0.595,0.794-1.134,1.361-1.502v-0.652
	c-1.361,1.814-2.806,3.912-4.224,6.293C351.781,373.308,352.915,372.712,354.191,372.684L354.191,372.684z M350.676,374.753
	L350.676,374.753c-0.822,1.36-1.616,2.834-2.381,4.365c0.794-1.021,2.013-1.701,3.402-1.729c1.417-0.028,2.721,0.652,3.515,1.729
	v-2.693c-0.312,0.085-0.624,0.113-0.964,0.142C352.773,376.567,351.469,375.859,350.676,374.753L350.676,374.753z M304.754,139.563
	L304.754,139.563l95.698,118.006h-45.241v100.46c-0.028,0-0.085-0.028-0.142-0.057c-0.935,1.021-1.361,2.495-1.02,3.969
	c0.198,0.793,0.624,1.502,1.162,2.041v3.345c-0.567,0.708-1.134,1.445-1.644,2.154c0.482-0.964,0.595-2.126,0.227-3.26
	c-0.454-1.417-1.587-2.438-2.948-2.835c-0.85,1.105-1.191,2.608-0.709,4.025c0.454,1.417,1.559,2.438,2.891,2.834
	c-6.236,8.759-9.354,17.688-10.8,22.933c-1.502-0.17-2.891-0.255-3.997-0.255c-5.386,0-9.496,5.641-9.496,5.641s0-1.786,2.551-8.703
	c2.579-6.945-6.661-12.047-12.302-12.302c-4.649-0.227-6.86,5.329-8.079,8.703c-2.438-1.417-5.159-2.608-8.107-3.402
	c-1.984-1.446-5.698-2.636-9.269-1.19c-2.409,0.028-4.932,0.283-7.569,0.822c-1.474,0.312-2.835,0.681-4.139,1.077
	c-1.984-2.041-3.713-0.963-3.713-3.203c0-2.551,2.551-7.171,1.276-10.261c-1.276-3.062-3.6,1.531-5.386,2.834
	c-1.786,1.276-4.62,0.255-5.386-3.855c-0.765-4.11-0.765-4.365-7.172-3.09c-6.406,1.304-0.765,4.11-3.09,9.496
	c-1.332,3.146-2.324,3.316-3.487,2.325V257.569h-47.395l95.698-118.006H304.754z M346.792,371.749L346.792,371.749
	c0.51,1.417,1.701,2.381,3.061,2.693c0.822-1.134,1.077-2.636,0.539-4.053c-0.51-1.417-1.701-2.381-3.061-2.693
	C346.509,368.829,346.254,370.331,346.792,371.749L346.792,371.749z M344.269,376.454L344.269,376.454
	c0.539,1.389,1.729,2.353,3.09,2.693c0.822-1.134,1.077-2.665,0.539-4.054c-0.539-1.417-1.701-2.381-3.09-2.693
	C344.014,373.534,343.759,375.037,344.269,376.454L344.269,376.454z M341.633,382.18L341.633,382.18
	c0.539,1.389,1.729,2.381,3.09,2.693c0.794-1.134,1.049-2.665,0.539-4.054c-0.539-1.417-1.729-2.381-3.09-2.693
	C341.35,379.26,341.094,380.763,341.633,382.18L341.633,382.18z M339.422,388.133L339.422,388.133
	c0.51,1.389,1.701,2.353,3.061,2.665c0.822-1.134,1.077-2.636,0.539-4.054c-0.539-1.389-1.729-2.353-3.09-2.665
	C339.139,385.213,338.883,386.715,339.422,388.133L339.422,388.133z M472.735,334.898L472.735,334.898l-7.568,18.737l1.644,0.68
	l7.568-18.737L472.735,334.898z M424.943,413.787c2.013-0.114,3.487-0.199,4.422-0.567c0.964-0.34,1.02-3.203,0.68-6.718
	c5.839-4.564,23.839-18.369,29.48-19.758c6.094-1.502,27.524,33.194,31.72,40.054c-0.482,0.992-1.191,2.154-2.183,3.062
	l-1.531,1.021c-0.709,0.283-1.502,0.425-2.381,0.255c-2.806-0.51-4.535-0.085-6.718,2.013c-4.535-6.945-16.894-25.342-19.191-22.875
	c-1.786,1.928-6.236,8.561-10.29,14.684c-4.45-0.199-11.537,3.345-15.08,4.138c-4.62,1.021-10.517-4.62-8.986-11.537
	C425.255,415.884,425.227,414.665,424.943,413.787L424.943,413.787z M413.265,414.835L413.265,414.835
	c-0.397,0.057-0.765,0.114-1.134,0.17C412.584,415.119,412.924,415.034,413.265,414.835L413.265,414.835z M168.096,293.002
	c-3.572-8.419-4.45-16.526-4.309-23.159c-1.729,0.255-3.203,0.539-3.855,0.793c-2.154,0.936-21.373,27.666-21.373,27.666
	l-12.954-20.834c0,0-11.31,2.438-11.31,4.592s13.323,27.808,15.789,30.585c2.466,2.778,17.575,2.155,17.575,2.155
	s-4.054,21.543-4.054,23.386c0,1.842,19.417,3.401,28.658,3.401c9.269,0,16.044-4.337,16.044-4.337s-0.227-14.202-0.595-27.524
	C179.066,306.467,171.299,300.485,168.096,293.002L168.096,293.002z"></path>
<path id="color_x5F_1" fill="#042435" d="M423.724,329.002c0,0-2.721-0.17-3.515,1.474c-0.794,1.672-1.134,2.75-1.134,2.75
	s-0.255-2.919-0.879-3.175c-0.624-0.255-2.891-0.34-3.175,2.636c-0.255,2.977,0.624,3.175,0.794,5.103
	c0.198,1.928-2.098,3.43-4.224,4.224c-2.098,0.793-2.721-0.708-2.721-0.708s-2.098-3.855-2.976-5.358
	c-0.879-1.502-2.381-10.29-1.049-14.343c1.304-4.025,4.989-9.042,8.079-9.496c3.09-0.425,1.417-0.878,4.309-1.757
	s8.249-0.708,10.205,0.964c1.928,1.672,2.466,1.842,6.236,1.502s7.484,0.878,8.362,3.855c0.879,3.005,1.304,5.896-0.198,8.192
	c-1.474,2.296-4.479,4.394-7.54,4.932c-3.09,0.51-3.515,0.255-5.811-0.369C426.191,328.832,423.724,329.002,423.724,329.002
	L423.724,329.002z M139.438,444.061c0.34,0.935,0.51,10.346,0.51,11.253c0,0.936-1.672,1.275-1.672,1.275s-30.189-0.17-30.586-0.34
	c-0.425-0.17-1.021-2.183,1.162-3.203c2.183-0.992,14.882-4.536,15.959-5.783c0.907-1.021,2.098-2.551,2.495-3.09
	c0.113-0.113,0.17-0.198,0.17-0.198h10.063C137.539,443.976,139.098,443.153,139.438,444.061L139.438,444.061z M161.633,249.831
	L161.633,249.831c0-4.791,3.458-4.365,4.989-2.211s-0.369,3.968-0.822,6.888c-0.454,2.919-5.556,19.984,2.296,38.494
	c7.88,18.51,43.71,27.808,51.732,9.298c7.994-18.482-6.321-41.159-20.976-47.027c-16.639-6.662-9.468-23.641-22.252-27.95
	c-12.813-4.309-23.754-2.466-29.934,10.942c0,0-1.531,2.466,0.624,7.086c2.154,4.621,7.71,0.936,10.176,5.103
	C159.932,254.621,161.633,254.621,161.633,249.831L161.633,249.831z"></path>
</svg>