<?xml version="1.0" standalone="no"?>
<svg version="1.1" id="Layer_1" xmlns="http://www.w3.org/2000/svg" xmlns:xlink="http://www.w3.org/1999/xlink" x="0px" y="0px" width="595.28px" height="595.28px" viewBox="0 0 595.28 595.28" enable-background="new 0 0 595.28 595.28" xml:space="preserve">
<path id="color_x5F_12" fill="#251011" d="M362.233,309.75c-0.921,4.186-4.207,8.19-5.967,9.5c-0.476,0.35-0.956,0.68-1.444,0.986
	c-0.921,0.578-1.867,1.047-2.818,1.449c-0.217,0.094-0.435,0.203-0.651,0.287c-0.027,0.016-0.05,0.023-0.085,0.029
	c-2.469,0.941-4.938,1.289-7.13,1.035c-1.169-0.128-2.253-0.424-3.222-0.889c0.658-0.03,1.309-0.174,1.919-0.428
	c0.645-0.26,1.24-0.646,1.764-1.15c1.202-1.15,1.672-2.884,0.694-4.316c-1.315-1.916-4.089-2.17-6.002-1.121
	c-1.004,0.551-1.803,1.416-2.381,2.423c-0.611-1.981-0.445-4.258,0.373-6.545c0.396-1.107,0.932-2.217,1.63-3.296
	c0.493-0.068-1.89-0.563-4.216-1.006c-1.852-0.352-3.666-0.671-3.965-0.714l-0.1-0.016l-0.006,0.001
	c-0.543-0.153-1.002-0.727-1.354-1.531c-0.678-1.55-0.95-3.967-0.618-5.98c0.122-0.734,0.326-1.41,0.618-1.973
	c0.55-1.059,1.415-1.709,2.667-1.527c1.05,0.153,4.289,0.788,8.289,1.597c4.039,0.817,8.85,1.812,12.988,2.672
	c2.219,0.462,4.238,0.884,5.839,1.219c2.217,0.465,3.634,0.763,3.634,0.763C365.439,301.22,363.414,304.393,362.233,309.75z
	 M332.027,312.572c-0.466-0.075-0.955,0.48-1.081,1.24c-0.126,0.758,0.144,1.434,0.613,1.508c0.463,0.072,0.95-0.481,1.079-1.24
	C332.769,313.322,332.498,312.646,332.027,312.572z M446.927,312.747c0.466-0.051,0.791-0.713,0.716-1.482
	c-0.072-0.764-0.511-1.345-0.985-1.294c-0.468,0.051-0.794,0.713-0.718,1.48C446.018,312.216,446.452,312.798,446.927,312.747z
	 M470.944,430.073v-11.808v-3.218c-6.755-0.06-14.618,0.056-21.283,0.653c-0.5,0.045-0.997,0.095-1.491,0.149
	c-1.041,0.115-2.068,0.253-3.08,0.407c-1.347,0.205-2.664,0.44-3.944,0.7c-0.234,0.047-0.465,0.097-0.696,0.146
	c-1.355,0.286-2.665,0.597-3.924,0.924c-9.38,2.433-15.859,5.696-15.859,5.696l-0.039,0.161l-4.01,16.345
	c0,0,8.712-0.066,18.914,0.449c1.132,0.058,2.279,0.121,3.438,0.193c1.345,0.084,2.7,0.18,4.054,0.287
	c0.352,0.028,0.703,0.059,1.055,0.088c1.373,0.116,2.736,0.245,4.076,0.389c0.853,0.092,1.696,0.188,2.524,0.291h22.177
	C471.632,438.331,470.944,434.314,470.944,430.073z M172.903,496.894h-1.165h-1.088h-4.866h-3.642v14.471h33.477l-20.071-12.785
	L172.903,496.894z M289.922,496.894l-1.198,0.764l-1.083,0.689l-3.74,2.383l-16.694,10.635h33.477v-14.471h-0.124H289.922z
	 M400.875,496.894l-1.526,0.973l-0.416,0.265l-3.563,2.27l-5.537,3.527l-0.064,0.041l-4.343,2.766l-0.021,0.015l-7.245,4.615h33.477
	v-14.471h-0.394H400.875z M126.433,497.448l-0.872-0.555h-0.891h-9.466h-0.403v1.587v12.884h26.109h7.368l-10.669-6.796
	L126.433,497.448z M153.219,221.756c-0.54,0.058-0.916,0.822-0.828,1.707c0.089,0.882,0.592,1.553,1.138,1.494
	c0.538-0.059,0.912-0.823,0.827-1.708C154.271,222.367,153.765,221.697,153.219,221.756z M164.835,224.957
	c0.538-0.059,0.912-0.823,0.827-1.708c-0.085-0.882-0.591-1.551-1.137-1.492c-0.54,0.058-0.916,0.822-0.828,1.707
	C163.786,224.345,164.289,225.016,164.835,224.957z"></path>
<path id="color_x5F_11" fill="#F0ED7F" d="M117.011,477.797c-0.167,1.649-0.326,3.248-0.476,4.776
	c-1.596,2.653-4.449,5.867-7.029,8.529c-2.281-3.887-6.533-6.509-11.414-6.509c-5.375,0-9.988,3.178-12.045,7.729
	c-0.419-4.77-2.722-8.999-6.161-11.986c2.824,0.271,4.899,0.562,4.899,0.562s-20.789-5.882-29.104-21.51
	c-5.952-11.188,6.059-7.36,13.368-4.282c-5.721-6.086-18.352-25.386-13.227-33.807c6.071-9.975,24.179,15.346,16.899,4.203
	c-7.275-11.142-7.643-32.767,10.09-40.56c17.73-7.794,9.832,26.851,9.001,38.847c-0.83,11.997,3.229,15.879,3.229,15.879
	s1.499-17.574,14.84-22.151c10.906-3.741-2.414,24.36-7.643,34.75c2.536-4.147,7.511-9.896,14.593-7.18
	c8.508,3.265-6.109,26.235-12.308,35.309c1.786-1.365,4.793-2.666,9.85-3.01C115.62,477.301,116.463,477.462,117.011,477.797z"></path>
<path id="color_x5F_10" fill="#B5DBB0" d="M488.922,204.656c1.217,16.276,1.217,16.276,1.217,16.276l-13.979,10.047l14.526-2.723
	c0,0,5.536,11.287,0.328,26.284c-5.209,14.997-9.129,20.201-9.129,20.201l-15.209-2.136l10.873,9.825l-3.348,11.932
	c-1.445-4.351-5.129-8.435-14.268-8.106l-0.052,0.008c-0.156,0.009-0.321,0.025-0.485,0.053c-3.287,0.39-2.081,0.667-4.952,1.135
	c-0.563,0.097-1.282,0.191-2.228,0.313c-4.119,0.476-7.136-1.509-10.614-1.084c-4.709,0.563-8.056,4.898-7.475,9.668
	c0.572,4.743,4.786,8.134,9.452,7.63l0.007-0.001c-0.645,2.21-0.876,4.64-0.572,7.155c0.021,0.181,0.042,0.362,0.06,0.542
	c-0.173,0.256-0.327,0.53-0.454,0.828c-0.859,2.044-2.517,3.654-0.791,4.38c0.384,0.161,0.914,0.262,1.502,0.303
	c0.056,4.541,0.004,8.37,2.219,9.773c-1.474,0.543-3.018,1.073-4.653,1.581c-2.486,0.771-4.774,1.319-6.913,1.708l-4.224-68.497
	c4.901-5.113,12.127-13.156,15.311-19.219c5.047-9.608,5.225-18.624,5.225-18.624l10.238,12.942l-4.55-19.913
	c0,0,4.4-16.694,23.739-28.78c19.339-12.083,23.435-12.01,23.435-12.01S487.705,188.38,488.922,204.656z M126.433,497.448
	l11.176,7.12C134.897,501.027,130.973,498.443,126.433,497.448z M114.801,511.364V498.48c-1.387,0.574-2.692,1.302-3.894,2.164
	c0.238-0.976,0.376-1.991,0.376-3.039c0-2.371-0.654-4.588-1.777-6.503c-2.281-3.887-6.533-6.509-11.414-6.509
	c-5.375,0-9.988,3.178-12.045,7.729c-0.419-4.77-2.722-8.999-6.161-11.986c-3.226-2.803-7.448-4.514-12.085-4.514
	c-10.122,0-18.328,8.096-18.328,18.082c0,2.17,0.408,4.24,1.118,6.167c-0.368-0.031-0.739-0.056-1.118-0.056
	c-6.824,0-12.369,5.361-12.576,12.045H141.09c-0.051-0.236-0.122-0.464-0.181-0.696H114.801z"></path>
<path id="color_x5F_9" fill="#2A3B4E" d="M171.506,418.322c0.198-0.038,0.313-0.057,0.313-0.057l-1.168,78.628h-4.866l-5.087-0.022
	c0,0-6.381-38.225-8.32-50.651c-1.207-7.738,0.315-13.375,2.95-17.472c-0.147-2.954-0.509-10.107-1.004-19.114
	c-1.068,6.439-1.933,11.597-2.402,14.386c0.149,0.035,0.241,0.06,0.241,0.06l-0.453,1.2c-0.112,0.661-0.172,1.02-0.172,1.02
	l-0.217,0.011l-26.65,70.584h-9.466c0,0,0.527-6.108,1.331-14.32c0.15-1.528,0.309-3.127,0.476-4.776
	c1.096-10.791,2.536-23.606,3.876-31.244c1.778-10.128,6.006-15.953,10.798-19.236h-0.002c0,0-0.333-47.1,0.015-58.717
	c0.191-6.359,1.266-14.112,2.157-19.615c0.26,0.847,0.41,1.334,0.41,1.334l15.975,0.363l13.383,0.306l8.38,0.19
	c1.355,5.19,2.807,12.014,2.945,17.844C175.15,377.543,172.779,404.573,171.506,418.322z M354.406,441.928
	c-1.225-3.597-1.912-7.613-1.912-11.854v-11.024v-3.98c-4.596,0.069-9.297,0.254-13.518,0.633c-0.555,0.05-1.105,0.107-1.653,0.169
	c-15.153,1.71-27.342,7.854-27.342,7.854l-0.04,0.161c-0.115-0.05-0.193-0.081-0.193-0.081l-21.024,73.853l1.198-0.764h10.637
	c5.947-9.82,16.198-26.998,20.914-36.403c4.051-8.084,4.586-14.615,3.374-19.811c4.975,0.252,10.3,0.643,15.147,1.248H354.406z"></path>
<path id="color_x5F_8" fill="#ABB2BA" d="M100.181,186.648v9.977c0,0.86-0.697,1.558-1.558,1.558c-0.86,0-1.558-0.697-1.558-1.558
	v-9.977c0-0.86,0.698-1.558,1.558-1.558C99.483,185.091,100.181,185.788,100.181,186.648z M98.623,221.256
	c-0.86,0-1.558,0.697-1.558,1.557v9.978c0,0.86,0.698,1.558,1.558,1.558c0.86,0,1.558-0.697,1.558-1.558v-9.978
	C100.181,221.954,99.483,221.256,98.623,221.256z M87.086,209.72c0-0.86-0.697-1.558-1.558-1.558h-9.977
	c-0.86,0-1.558,0.698-1.558,1.558s0.697,1.558,1.558,1.558h9.977C86.389,211.277,87.086,210.58,87.086,209.72z M121.694,208.162
	h-9.977c-0.86,0-1.558,0.698-1.558,1.558s0.697,1.558,1.558,1.558h9.977c0.86,0,1.558-0.698,1.558-1.558
	S122.555,208.162,121.694,208.162z M83.41,192.304c-0.608-0.608-1.594-0.608-2.203,0c-0.608,0.608-0.608,1.594,0,2.202l7.055,7.056
	c0.305,0.304,0.703,0.456,1.102,0.456s0.797-0.152,1.101-0.456c0.608-0.608,0.608-1.594,0-2.203L83.41,192.304z M108.983,217.878
	c-0.608-0.608-1.594-0.608-2.202,0c-0.608,0.608-0.608,1.594,0,2.202l7.055,7.055c0.304,0.304,0.703,0.456,1.101,0.456
	s0.797-0.152,1.101-0.456c0.608-0.608,0.608-1.594,0-2.202L108.983,217.878z M88.263,217.878l-7.055,7.055
	c-0.608,0.608-0.608,1.594,0,2.202c0.304,0.304,0.703,0.456,1.101,0.456s0.797-0.152,1.102-0.456l7.055-7.055
	c0.608-0.608,0.608-1.594,0-2.202C89.857,217.27,88.871,217.27,88.263,217.878z M107.882,202.018c0.398,0,0.797-0.152,1.102-0.456
	l7.055-7.056c0.608-0.608,0.608-1.594,0-2.202s-1.594-0.608-2.202,0l-7.055,7.055c-0.608,0.608-0.608,1.594,0,2.203
	C107.085,201.866,107.483,202.018,107.882,202.018z M508.58,286.092V274.72h-2.141v11.373h-11.372v2.14h11.372v11.372h2.141v-11.372
	h11.372v-2.14H508.58z M329.272,307.086v-2.637c-0.678-1.55-0.95-3.967-0.618-5.98c-18.1-0.343-32.723-15.644-32.723-34.418
	c0-18.987,14.956-34.434,33.341-34.434v-8.6c-22.977,0-41.668,19.305-41.668,43.034
	C287.604,287.781,306.296,307.086,329.272,307.086z M328.611,395.131c-2.158,0.381-4.379,0.71-6.598,0.966
	c-1.812,0.21-3.619,0.372-5.386,0.479c-1.238,0.077-2.459,0.126-3.643,0.146c-1.404,0.021-2.765,0.005-4.049-0.063
	c-0.517-0.027-1.016-0.063-1.508-0.106c-1.681-0.145-3.215-0.378-4.536-0.72c-2.03,0.882-5.357,0.715-8.4-0.588
	c-0.081-0.034-0.16-0.077-0.24-0.113h-63.147h-4.022h-9.142c-1.976,0-3.578,1.602-3.578,3.577s1.602,3.577,3.578,3.577h9.907h2.809
	h1.213h2.815h37.329h4.028h58.902l-1.254-7.154H328.611z M434.075,395.131h-26.624c0.584,2.264,0.958,4.663,1.1,7.154h26.29h4.022
	h0.511h4.029h7.57c0.463-2.307,0.94-4.725,1.407-7.154h-14.283H434.075z"></path>
<path id="color_x5F_7" fill="#7D8289" d="M467.434,458.112l-11.555,47.505l0.348,2.875c0.13,1.081-0.653,2.063-1.75,2.191
	c-0.08,0.01-0.16,0.014-0.239,0.014c-0.201,0-0.394-0.037-0.579-0.093c-0.188,0.058-0.387,0.093-0.59,0.093
	c-0.154,0-0.312-0.018-0.469-0.055c-1.074-0.254-1.735-1.317-1.479-2.377l0.701-2.883l-5.714-47.325
	c0.299,0.034,0.602,0.055,0.909,0.055h3.126l4.371,36.2l8.805-36.2H467.434z M522.072,508.266l-12.314-50.635
	c-0.905,0.173-1.827,0.27-2.766,0.27h-1.284l12.474,51.285c0.221,0.904,1.04,1.512,1.943,1.512c0.154,0,0.312-0.018,0.469-0.055
	C521.668,510.389,522.329,509.325,522.072,508.266z M330.446,508.266c-0.257,1.06,0.404,2.123,1.479,2.377
	c0.157,0.037,0.314,0.055,0.469,0.055c0.903,0,1.723-0.607,1.943-1.512l12.422-51.073h-4.114L330.446,508.266z M192.36,341.379
	l-20.622,155.515h1.165l2.646,1.686l17.741-133.793h-3.691L192.36,341.379z M231.104,395.131l-3.247-30.345h-4.022l3.247,30.345
	H231.104z M233.192,414.646l1.492-12.36h-2.815h-1.213h-2.809l1.32,12.334l-11.334,93.873c-0.131,1.081,0.652,2.063,1.75,2.191
	c0.08,0.01,0.16,0.014,0.239,0.014c0.999,0,1.862-0.736,1.983-1.739l9.255-76.652l8.198,76.626c0.108,1.014,0.976,1.766,1.986,1.766
	c0.07,0,0.141-0.004,0.212-0.011c1.098-0.114,1.895-1.085,1.779-2.169L233.192,414.646z M396.216,455.79
	c-0.223,0.128-0.447,0.252-0.675,0.369c-1.148,0.593-2.348,1.038-3.585,1.332c-0.206,0.05-0.413,0.095-0.621,0.135l-0.747,6.192
	l-1.445-5.939c-0.2,0.009-0.399,0.021-0.601,0.021h-3.509l4.189,17.223l-3.818,31.626l0.021-0.015l4.343-2.766l0.064-0.041
	l2.257-17.017l3.28,13.489l3.563-2.27l-5.392-22.167L396.216,455.79z M401.76,383.555c0.381,0.462,0.75,0.941,1.104,1.441
	c0.208-0.311,0.456-0.598,0.729-0.857c0.771-0.734,1.706-1.257,2.331-1.559l2.359-17.794h-4.034L401.76,383.555z M438.863,402.285
	h-4.022l1.685,15.743c1.259-0.327,2.568-0.638,3.924-0.924L438.863,402.285z M444.803,457.798c-1.775-0.505-3.299-1.599-4.35-3.06
	l5.798,54.193c0.108,1.014,0.977,1.766,1.987,1.766c0.069,0,0.141-0.004,0.212-0.011c1.099-0.114,1.895-1.085,1.779-2.169
	L444.803,457.798z M443.207,442.882l-0.184-1.722c-1.354-0.107-2.709-0.203-4.054-0.287l0.632,5.913
	C440.332,445.115,441.607,443.737,443.207,442.882z M434.852,364.786h-4.022l1.747,16.335c1.128-0.444,2.444-0.956,3.863-1.494
	L434.852,364.786z M437.972,393.948c-0.543,0.08-1.086,0.161-1.63,0.233c-0.781,0.104-1.561,0.195-2.338,0.281l0.071,0.668h4.022
	L437.972,393.948z M329.272,245.777c-9.772,0-17.694,8.182-17.694,18.274s7.922,18.274,17.694,18.274
	c9.771,0,17.693-8.182,17.693-18.274S339.044,245.777,329.272,245.777z M272.014,402.285l11.886,98.444l3.74-2.383l-11.599-96.062
	H272.014z M445.09,416.258l-1.687-13.973h-4.029l1.771,14.673C442.426,416.698,443.743,416.463,445.09,416.258z M444.222,442.435
	c0.872-0.322,1.812-0.507,2.796-0.507h1.172l-0.035-0.291c-1.34-0.144-2.703-0.272-4.076-0.389L444.222,442.435z"></path>
<path id="color_x5F_6" fill="#AA6159" d="M346.95,385.612c0.008,0.105,0.008,0.211,0.011,0.315c0.01,0.248,0.009,0.488-0.003,0.73
	c-0.007,0.117-0.016,0.232-0.024,0.351c-0.022,0.233-0.059,0.467-0.101,0.695c-0.016,0.102-0.031,0.202-0.056,0.302
	c-0.073,0.32-0.161,0.635-0.277,0.933c-0.194,0.346-0.438,0.631-0.731,0.835c-0.545,0.381-1.224,0.758-2.016,1.132
	c-0.776,0.364-1.653,0.722-2.622,1.073c-0.606,0.219-1.249,0.434-1.921,0.646c-1.722,0.542-3.647,1.053-5.693,1.52
	c-1.573,0.358-3.219,0.689-4.905,0.987c-2.158,0.381-4.379,0.71-6.598,0.966c-1.812,0.21-3.619,0.372-5.386,0.479
	c-1.238,0.077-2.459,0.126-3.643,0.146c-1.404,0.021-2.765,0.005-4.049-0.063c-0.517-0.027-1.016-0.063-1.508-0.106
	c-1.681-0.145-3.215-0.378-4.536-0.72c-2.03,0.882-5.357,0.715-8.4-0.588c-0.081-0.034-0.16-0.077-0.24-0.113
	c-2.424-1.09-4.642-2.9-5.833-5.514c-0.801-1.764-0.045-3.139,1.022-4.123c1.298-1.197,3.054-1.811,3.054-1.811
	s0.588-0.395,1.434-0.893c0.959-0.565,2.249-1.262,3.411-1.678c0.976-0.35,1.854-0.5,2.362-0.201
	c0.531,0.309,3.592,2.883,5.616,4.602c1.045,0.885,1.819,1.55,1.819,1.55c3.887-1.544,7.581-2.659,7.581-2.659
	s8.196-3.22,15.175-5.426c0.314-0.1,0.608-0.185,0.916-0.279c0.497-0.153,1.004-0.312,1.479-0.452
	c1.365-0.396,2.63-0.729,3.711-0.959c0,0,0,0,0.001-0.001c0.001,0.001-0.001,0.001,0.001,0.002c1.097-0.229,2.006-0.361,2.628-0.34
	c0.384,0.014,0.75,0.056,1.107,0.116c0.043,0.007,0.084,0.011,0.126,0.02c0.363,0.063,0.708,0.157,1.043,0.264
	c0.185,0.061,0.359,0.139,0.536,0.212c0.094,0.039,0.19,0.07,0.283,0.113c0.044,0.018,0.09,0.035,0.132,0.055
	c0.038,0.018,0.069,0.04,0.106,0.06c0.245,0.121,0.484,0.25,0.713,0.396c0.019,0.009,0.036,0.019,0.053,0.029
	c0.272,0.174,0.531,0.362,0.776,0.564c0.008,0.006,0.016,0.012,0.021,0.017c0.246,0.202,0.48,0.42,0.7,0.646
	c0.009,0.008,0.018,0.016,0.024,0.025c0.187,0.193,0.358,0.397,0.528,0.606c0.028,0.035,0.063,0.07,0.092,0.108
	c0.008,0.008,0.013,0.015,0.019,0.021c0.229,0.295,0.437,0.606,0.629,0.925c0.056,0.095,0.106,0.191,0.16,0.286
	c0.131,0.233,0.252,0.468,0.363,0.708c0.05,0.111,0.101,0.224,0.147,0.337c0.101,0.243,0.194,0.492,0.275,0.741
	c0.033,0.102,0.07,0.201,0.1,0.303C346.773,384.2,346.902,384.912,346.95,385.612z M327.467,313.957
	c0.201-0.254,0.423-0.479,0.654-0.681c0.032-0.178,0.06-0.354,0.086-0.536c0.204-1.405,0.578-2.73,1.065-3.978
	c0.229-0.586,0.486-1.151,0.77-1.697c0.19-0.367,0.378-0.737,0.591-1.086l0.1,0.016c0.299,0.043,2.113,0.362,3.965,0.714
	c2.326,0.442,4.709,0.938,4.216,1.006c-0.698,1.079-1.234,2.188-1.63,3.296c-0.818,2.287-0.984,4.563-0.373,6.545
	c0.578-1.007,1.377-1.872,2.381-2.423c1.913-1.049,4.687-0.795,6.002,1.121c0.978,1.433,0.508,3.166-0.694,4.316
	c-0.523,0.504-1.119,0.891-1.764,1.15c-0.61,0.254-1.261,0.397-1.919,0.428c0.969,0.465,2.053,0.761,3.222,0.889
	c2.191,0.254,4.661-0.094,7.13-1.035c0.035-0.006,0.058-0.014,0.085-0.029c0.217-0.084,0.435-0.193,0.651-0.287l1.314,10.186
	l-18.222,6.885l0.781-9.13c-2.432,0.488-4.674,0.642-6.392,0.392c-5.479-0.797-4.088-5.432-2.559-11.355
	c-0.558-0.193-1.041-0.427-1.37-0.684C324.08,316.825,326.103,315.705,327.467,313.957z M332.027,312.572
	c-0.466-0.075-0.955,0.48-1.081,1.24c-0.126,0.758,0.144,1.434,0.613,1.508c0.463,0.072,0.95-0.481,1.079-1.24
	C332.769,313.322,332.498,312.646,332.027,312.572z"></path>
<path id="color_x5F_5" fill-rule="evenodd" clip-rule="evenodd" fill="#efbc98" d="M441.829,316.883
	c0.384,0.161,0.914,0.262,1.502,0.303c0.056,4.541,0.004,8.37,2.219,9.773c0.769,0.487,1.807,0.687,3.223,0.516
	c1.725-0.209,3.849-0.944,6.066-2.053l2.077,11.438l5.223-3.154c-2.584-4.883-3.438-9.603-3.802-12.783
	c-0.262-2.287-0.272-3.784-0.483-3.944c0.077,0.008,0.164,0.008,0.242,0.008c2.046,0,3.711-1.689,3.711-3.779
	c0-0.721-0.19-1.379-0.537-1.951c-0.156-0.442-0.434-0.858-0.842-1.206c-1.769-1.501-4.518-1.023-6.086,0.494
	c-0.824,0.789-1.371,1.838-1.665,2.957c-1.648-2.602-1.848-6.27-0.643-10.024c0.823-0.347-7.673,0.409-8.351,0.486l-0.097,0.016
	c-0.645,2.21-0.876,4.64-0.572,7.155c0.021,0.181,0.042,0.362,0.06,0.542c-0.173,0.256-0.327,0.53-0.454,0.828
	C441.761,314.547,440.104,316.157,441.829,316.883z M446.657,309.971c0.475-0.051,0.913,0.53,0.985,1.294
	c0.075,0.77-0.25,1.432-0.716,1.482c-0.475,0.051-0.909-0.531-0.987-1.296C445.863,310.684,446.189,310.021,446.657,309.971z
	 M435.531,440.68c1.212,5.195,0.677,11.727-3.374,19.811c-4.716,9.405-14.967,26.583-20.915,36.403h-10.367l-1.526,0.973
	l21.084-74.062c0,0,0.077,0.031,0.194,0.081l-4.01,16.345C416.617,440.23,425.329,440.164,435.531,440.68z M461.112,383.589
	c0.014,0.245,0.017,0.487,0.009,0.729c-0.004,0.117-0.01,0.234-0.018,0.351c-0.018,0.237-0.05,0.471-0.088,0.699
	c-0.016,0.101-0.029,0.203-0.052,0.303c-0.068,0.321-0.149,0.637-0.262,0.936c-0.189,0.348-0.425,0.639-0.716,0.85
	c-0.538,0.388-1.212,0.777-1.996,1.164c-0.77,0.378-1.641,0.752-2.603,1.119c-0.604,0.229-1.241,0.455-1.912,0.678
	c-0.07,0.023-0.147,0.046-0.218,0.068c-4.268,1.406-9.732,2.643-15.286,3.464c-0.543,0.08-1.086,0.161-1.63,0.233
	c-0.781,0.104-1.561,0.195-2.338,0.281c-1.021,0.113-2.036,0.213-3.037,0.291c-1.238,0.097-2.457,0.168-3.641,0.207
	c-1.402,0.045-2.764,0.053-4.049,0.007c-0.518-0.019-1.018-0.048-1.511-0.081c-1.683-0.115-3.22-0.323-4.547-0.643
	c-2.016,0.915-5.345,0.807-8.407-0.443c-0.713-0.29-1.407-0.648-2.071-1.063c-0.469-1.392-1.017-2.72-1.638-3.975
	c-0.666-1.346-1.416-2.605-2.239-3.768c0.208-0.311,0.456-0.598,0.729-0.857c0.771-0.734,1.706-1.257,2.331-1.559
	c0.411-0.199,0.691-0.305,0.691-0.305s0.581-0.404,1.42-0.916c0.947-0.58,2.228-1.3,3.381-1.736
	c0.969-0.365,1.846-0.531,2.357-0.242c0.535,0.301,3.64,2.822,5.693,4.506c1.061,0.868,1.846,1.52,1.846,1.52
	c3.86-1.613,7.536-2.789,7.536-2.789s1.489-0.614,3.728-1.496c1.128-0.444,2.444-0.956,3.863-1.494
	c2.365-0.896,5.002-1.862,7.488-2.696c0.817-0.272,1.616-0.53,2.383-0.771c1.359-0.421,2.617-0.773,3.694-1.023c0,0,0,0,0.001,0
	s-0.001,0,0.001,0.002c1.092-0.249,1.999-0.396,2.622-0.385c0.384,0.008,0.75,0.041,1.108,0.097c0.043,0.005,0.086,0.01,0.127,0.017
	c0.364,0.059,0.71,0.146,1.047,0.246c0.187,0.059,0.362,0.133,0.54,0.203c0.079,0.033,0.161,0.06,0.241,0.091
	c0.015,0.006,0.029,0.011,0.044,0.017c0.043,0.019,0.09,0.033,0.133,0.055c0.038,0.016,0.07,0.039,0.107,0.056
	c0.248,0.117,0.49,0.242,0.719,0.384c0.02,0.01,0.037,0.02,0.055,0.029c0.274,0.169,0.537,0.352,0.785,0.553
	c0.008,0.004,0.017,0.01,0.023,0.015c0.248,0.198,0.485,0.411,0.709,0.633c0.01,0.01,0.018,0.017,0.025,0.026
	c0.189,0.189,0.365,0.393,0.539,0.596c0.029,0.037,0.064,0.07,0.094,0.107c0.007,0.01,0.012,0.016,0.019,0.023
	c0.235,0.291,0.446,0.598,0.644,0.912c0.06,0.094,0.11,0.189,0.166,0.283c0.135,0.23,0.26,0.463,0.375,0.702
	c0.053,0.111,0.104,0.222,0.154,0.333c0.105,0.244,0.201,0.49,0.287,0.737c0.037,0.1,0.073,0.202,0.105,0.301
	c0.219,0.696,0.361,1.403,0.419,2.103C461.105,383.377,461.108,383.484,461.112,383.589z M153.375,202.921
	c-0.479,0-0.954,0.024-1.423,0.067c0.471-0.042,0.946-0.068,1.427-0.068c3.184,0,6.137,0.954,8.612,2.58c0,0.001,0,0.002,0,0.004
	C159.515,203.876,156.561,202.921,153.375,202.921z M147.695,203.981c-0.366,0.142-0.726,0.297-1.078,0.464
	c0.354-0.168,0.714-0.324,1.082-0.466c0.19-0.07,0.39-0.15,0.59-0.21c0.115-0.04,0.235-0.068,0.351-0.105
	c-0.119,0.038-0.236,0.079-0.354,0.119l-0.002-0.012C148.085,203.831,147.885,203.911,147.695,203.981z M162.325,217.251
	c-6.278-0.08-9.756-2.549-11.651-4.898c0.175,1.816-0.063,3.624-1.231,4.899c-3.37,3.68-3.448,6.199-3.448,7.709
	c0,1.51-0.41,3.69-0.41,3.69s-1.778-7.515-3.59-6.47c-2.963,1.708-2.727,12.553-2.721,12.818c0.002,0.003,0.003,0.007,0.005,0.011
	c0.18,0.37,0.38,0.73,0.59,1.08c0.206,0.347,0.428,0.681,0.659,1.01l-1.789,12.988l23.64-0.07l-0.78-4.67
	c-0.68,0.11-1.4,0.19-2.2,0.19h-6.02c-0.438,0-0.728-0.742-0.958-1.783c-0.037-0.003-0.076-0.001-0.112-0.004
	c-3.31-1.22-5.016-3.553-5.54-6.11c-0.094-0.456-0.169-0.92-0.229-1.381c-0.338-2.582-0.127-4.993,0.977-4.46
	c6.756,3.255,6.34-1.019,10.422-1.249c8.833-0.497,7,4.836,11.06,1.18c0.07-1.17,0.09-2.39,0.09-3.65v-9.45
	c0-0.978-0.101-1.93-0.272-2.858C167.107,216.687,164.974,217.285,162.325,217.251z M153.528,224.957
	c-0.546,0.059-1.049-0.612-1.138-1.494c-0.088-0.884,0.288-1.649,0.828-1.707c0.546-0.059,1.052,0.61,1.137,1.492
	C154.44,224.134,154.066,224.898,153.528,224.957z M164.835,224.957c-0.546,0.059-1.049-0.612-1.138-1.494
	c-0.088-0.884,0.288-1.649,0.828-1.707c0.546-0.059,1.052,0.61,1.137,1.492C165.747,224.134,165.373,224.898,164.835,224.957z
	 M256.565,241.206c1.036,1.091-2.297,4.19-6.41,7.009c-3.636,2.494-7.786,4.53-10.56,4.485c-0.853-0.014-1.598-0.089-2.268-0.214
	c-3.572-0.666-4.733-2.931-5.294-7.071c-0.054-0.399-0.104-0.81-0.149-1.244c-0.333-3.229,2.427-13.249,5.043-12.558
	c2.079,0.55-2.095,5.342,0.392,5.802c2.76,0.51,9.307-10.184,11.05-8.13c1.976,2.327-6.796,7.354-4.961,8.882
	s8.541-9.641,10.533-7.128c1.992,2.513-8.51,7.999-6.885,9.747c1.626,1.748,7.444-7.398,9.322-5.169
	c2.096,2.485-9.353,8.288-8.24,9.327C250,246.68,254.811,239.361,256.565,241.206z M108.401,356.207
	c-1.704,1.313-2.958-4.917-4.838-3.227c-2.087,1.878,2.399,13.586-0.291,13.717c-3.049,0.146-1.688-9.871-4.017-9.348
	s2.437,12.646-0.77,12.695c-3.207,0.047-1.154-11.622-3.53-11.398c-2.376,0.223,1.327,10.41-1.584,10.541
	c-3.248,0.146-0.87-12.467-2.371-12.219c-2.512,0.417,0.357,8.691-2.174,8.957c-1.496,0.156-1.921-4.375-1.649-9.354
	c0.239-4.402,1.155-8.934,2.882-11.104c0.062-0.077,0.121-0.141,0.182-0.215c2.964-3.61,5.46-3.767,9.036-1.967
	c0.703,0.354,1.444,0.775,2.244,1.269C104.283,346.259,110.544,354.554,108.401,356.207z"></path>
<path id="color_x5F_4" fill="#00CEC9" d="M329.272,296.497v-2.669c15.896,0,28.83-13.357,28.83-29.776s-12.934-29.775-28.83-29.775
	v-4.659v-8.6v-4.658c25.462,0,46.178,21.395,46.178,47.692c0,14.583-6.377,27.65-16.395,36.406c-1.601-0.335-3.62-0.757-5.839-1.219
	c-4.139-0.86-8.949-1.854-12.988-2.672c-4-0.809-7.239-1.444-8.289-1.597C330.688,294.787,329.822,295.438,329.272,296.497z
	 M330.633,305.979l-0.006,0.001c-0.543-0.153-1.002-0.727-1.354-1.531v2.637v1.677c0.229-0.586,0.486-1.151,0.77-1.697
	C330.232,306.698,330.42,306.328,330.633,305.979z M506.992,376.663h-15.97c-2.798,0-5.462,0.795-7.882,2.229
	c-5.121,3.033-9.146,8.931-11.029,16.239c-0.583,2.264-0.957,4.663-1.099,7.154c-0.041,0.729-0.068,1.462-0.068,2.205v10.558v3.218
	v11.808c0,4.241,0.688,8.258,1.911,11.854h-22.177h-2.489h-1.172c-0.984,0-1.924,0.185-2.796,0.507
	c-0.349,0.128-0.69,0.273-1.015,0.447c-1.6,0.855-2.875,2.233-3.605,3.904c-0.433,0.991-0.676,2.083-0.676,3.233
	c0,1.764,0.57,3.39,1.527,4.719c1.051,1.461,2.574,2.555,4.35,3.06c0.423,0.12,0.857,0.21,1.306,0.26
	c0.299,0.034,0.602,0.055,0.909,0.055h3.126h13.176h4.114h18.24c0.94,0,1.84-0.169,2.68-0.464c0.874,0.161,1.764,0.252,2.669,0.252
	h14.686h1.284c0.938,0,1.86-0.097,2.766-0.27c9.778-1.868,17.312-13.49,17.312-27.558V404.49
	C527.069,389.122,518.08,376.663,506.992,376.663z M407.451,395.131c-0.21-0.816-0.448-1.614-0.71-2.393
	c-0.469-1.392-1.017-2.72-1.638-3.975c-0.666-1.346-1.416-2.605-2.239-3.768c-0.354-0.5-0.724-0.979-1.104-1.441
	c-3.531-4.287-8.154-6.892-13.218-6.892h-15.97c-2.148,0-4.217,0.473-6.158,1.339c-5.935,2.648-10.662,9.019-12.752,17.129
	c-0.584,2.264-0.958,4.663-1.1,7.154c-0.041,0.729-0.068,1.462-0.068,2.205v10.578v3.98v11.024c0,4.241,0.688,8.258,1.912,11.854
	h-14.412h-2.795c-4.469,0-8.092,3.623-8.092,8.092c0,4.47,3.623,8.093,8.092,8.093h5.445h4.114h29.097
	c0.625,0,1.23-0.077,1.815-0.212h7.362h3.509c0.201,0,0.4-0.013,0.601-0.021c0.742-0.029,1.473-0.113,2.192-0.253
	c0.208-0.04,0.415-0.085,0.621-0.135c1.237-0.294,2.437-0.739,3.585-1.332c0.228-0.117,0.452-0.241,0.675-0.369
	c7.28-4.178,12.403-14.116,12.403-25.717V404.49c0-0.743-0.027-1.477-0.068-2.205C408.409,399.794,408.035,397.395,407.451,395.131z
	"></path>
<path id="color_x5F_3" fill="#000000" d="M205.189,256.845l-2.853-0.024l9.438-79.992l4.639,75.236L205.189,256.845z
	 M220.755,322.46l-3.35-54.315c-3.323,2.52-5.761,4.265-6.216,4.325c0,0-4.684,1.103-10.997,2.524l-7.833,66.385l-2.762,23.407
	h3.691h30.075l-0.641-10.396L220.755,322.46z M484.344,306.408c-5.84-1.563-8.585-6.14-9.521-9.487
	c-0.112-0.702-0.269-1.405-0.477-2.116v-0.008c-0.043-0.145-0.096-0.29-0.145-0.435c-1.445-4.351-5.129-8.435-14.268-8.106
	l-0.052,0.008c-0.156,0.009-0.321,0.025-0.485,0.053c-3.287,0.39-2.081,0.667-4.952,1.135c-0.563,0.097-1.282,0.191-2.228,0.313
	c-4.119,0.476-7.136-1.509-10.614-1.084c-4.709,0.563-8.056,4.898-7.475,9.668c0.572,4.743,4.786,8.134,9.452,7.63l0.007-0.001
	l0.097-0.016c0.678-0.077,9.174-0.833,8.351-0.486c-1.205,3.755-1.006,7.423,0.643,10.024c0.294-1.119,0.841-2.168,1.665-2.957
	c1.568-1.518,4.317-1.995,6.086-0.494c0.408,0.348,0.686,0.764,0.842,1.206c0.347,0.572,0.537,1.23,0.537,1.951
	c0,2.09-1.665,3.779-3.711,3.779c-0.078,0-0.165,0-0.242-0.008c0.211,0.16,0.222,1.657,0.483,3.944
	c0.364,3.181,1.218,7.9,3.802,12.783c0.061,0.114,0.127,0.229,0.189,0.344c2.813,5.162,7.574,10.456,15.765,14.238
	c2.592,1.197,5.181,1.795,7.692,1.914c1.244,0.06,2.471,0.01,3.666-0.159C508.821,347.302,520.585,316.096,484.344,306.408z
	 M159.678,273.261v-8.556l-4.278-2.944l-4.278,2.944v8.556h1.585l-1.833,52.39l4.525,2.776l4.525-2.776l-1.832-52.39H159.678z
	 M168.689,199.553c-3.456,0-6.3,2.598-6.698,5.946c0,0.001,0,0.002,0,0.004c-2.476-1.627-5.431-2.582-8.616-2.582
	c-0.479,0-0.954,0.024-1.423,0.067c-0.125,0.012-0.247,0.033-0.372,0.047c-0.335,0.039-0.67,0.082-0.999,0.141
	c-0.171,0.031-0.339,0.071-0.509,0.108c-0.269,0.058-0.536,0.119-0.799,0.19c-0.214,0.058-0.424,0.123-0.633,0.189
	c-0.119,0.038-0.236,0.079-0.354,0.119l-0.002-0.012c-0.2,0.06-0.4,0.14-0.59,0.21c-0.366,0.142-0.726,0.297-1.078,0.464
	c-5.295,2.521-8.952,7.922-8.952,14.186v9.45c0,2.49,0.58,4.84,1.61,6.93c0,0,0-0.009,0-0.012
	c-0.006-0.265-0.243-11.109,2.721-12.818c1.812-1.044,3.59,6.47,3.59,6.47s0.41-2.18,0.41-3.69c0-1.51,0.078-4.029,3.448-7.709
	c1.168-1.275,1.406-3.083,1.231-4.899c1.896,2.349,5.374,4.819,11.651,4.898c2.649,0.034,4.782-0.564,6.492-1.48
	c2.657-1.423,4.289-3.613,5.249-5.399c0.858-1.132,1.374-2.539,1.374-4.069C175.439,202.575,172.417,199.553,168.689,199.553z
	 M157.939,230.55c-4.082,0.229-3.667,4.503-10.422,1.249c-1.104-0.532-1.315,1.879-0.977,4.46c0.061,0.46,0.136,0.925,0.229,1.381
	c0.524,2.557,2.23,4.89,5.54,6.11c0.037,0.003,0.075,0.001,0.112,0.004c0.315,0.023,0.636,0.036,0.958,0.036h6.02
	c0.8,0,1.52-0.08,2.2-0.2c4.37-0.75,6.23-3.83,6.99-8.1c0.21-1.17,0.34-2.43,0.41-3.76
	C164.939,235.386,166.773,230.053,157.939,230.55z"></path>
<path id="color_x5F_2" fill="#016fb6" d="M482.939,377.72c0.058,0.368,0.126,0.762,0.201,1.172
	c-5.121,3.033-9.146,8.931-11.029,16.239c-0.583,2.264-0.957,4.663-1.099,7.154c-0.041,0.729-0.068,1.462-0.068,2.205v10.558
	c-6.755-0.06-14.618,0.056-21.283,0.653c-0.5,0.045-0.997,0.095-1.491,0.149c0.602-2.826,1.658-7.852,2.804-13.565
	c0.463-2.307,0.94-4.725,1.407-7.154c0.299-1.553,0.593-3.109,0.877-4.646c0.07-0.022,0.147-0.045,0.218-0.068
	c0.671-0.223,1.309-0.448,1.912-0.678c0.962-0.367,1.833-0.741,2.603-1.119c0.784-0.387,1.458-0.776,1.996-1.164
	c0.291-0.211,0.526-0.502,0.716-0.85c0.112-0.299,0.193-0.614,0.262-0.936c0.022-0.1,0.036-0.202,0.052-0.303
	c0.038-0.229,0.07-0.462,0.088-0.699c0.008-0.116,0.014-0.233,0.018-0.351c0.008-0.241,0.005-0.483-0.009-0.729
	c-0.004-0.104-0.007-0.212-0.018-0.317c-0.058-0.699-0.2-1.406-0.419-2.103c-0.032-0.099-0.068-0.201-0.105-0.301
	c-0.086-0.247-0.182-0.493-0.287-0.737c-0.05-0.111-0.102-0.222-0.154-0.333c-0.115-0.239-0.24-0.472-0.375-0.702
	c-0.056-0.094-0.106-0.189-0.166-0.283c-0.197-0.314-0.408-0.621-0.644-0.912c-0.007-0.008-0.012-0.014-0.019-0.023
	c-0.029-0.037-0.064-0.07-0.094-0.107c-0.174-0.203-0.35-0.406-0.539-0.596c-0.008-0.01-0.016-0.017-0.025-0.026
	c-0.224-0.222-0.461-0.435-0.709-0.633c-0.007-0.005-0.016-0.011-0.023-0.015c-0.248-0.201-0.511-0.384-0.785-0.553
	c-0.018-0.01-0.035-0.02-0.055-0.029c-0.229-0.142-0.471-0.267-0.719-0.384c-0.037-0.017-0.069-0.04-0.107-0.056
	c-0.043-0.021-0.09-0.036-0.133-0.055c-0.015-0.006-0.029-0.011-0.044-0.017c0.216-1.873,0.313-3.329,0.247-4.188
	c-0.5-6.5-4.5-7.5-8.286-14s9.263-14.83,9.263-14.83v-5.53l5.412-2.811c2.813,5.162,7.574,10.456,15.765,14.238
	c2.592,1.197,5.181,1.795,7.692,1.914C483.705,360.438,481.992,371.695,482.939,377.72z M354.605,331.385l-1.287,0.486
	l-18.222,6.885l-1.766,0.667l0.955,5.448c0,0-10.261-4.871-6.564,16.206l0.649,3.709l2.438,13.913
	c0.497-0.153,1.004-0.312,1.479-0.452c1.365-0.396,2.63-0.729,3.711-0.959c0,0,0,0,0.001-0.001c0.001,0.001-0.001,0.001,0.001,0.002
	c1.097-0.229,2.006-0.361,2.628-0.34c0.384,0.014,0.75,0.056,1.107,0.116c0.043,0.007,0.084,0.011,0.126,0.02
	c0.363,0.063,0.708,0.157,1.043,0.264c0.185,0.061,0.359,0.139,0.536,0.212c0.094,0.039,0.19,0.07,0.283,0.113
	c0.044,0.018,0.09,0.035,0.132,0.055c0.038,0.018,0.069,0.04,0.106,0.06c0.245,0.121,0.484,0.25,0.713,0.396
	c0.019,0.009,0.036,0.019,0.053,0.029c0.272,0.174,0.531,0.362,0.776,0.564c0.008,0.006,0.016,0.012,0.021,0.017
	c0.246,0.202,0.48,0.42,0.7,0.646c0.009,0.008,0.018,0.016,0.024,0.025c0.187,0.193,0.358,0.397,0.528,0.606
	c0.028,0.035,0.063,0.07,0.092,0.108c0.008,0.008,0.013,0.015,0.019,0.021c0.229,0.295,0.437,0.606,0.629,0.925
	c0.056,0.095,0.106,0.191,0.16,0.286c0.131,0.233,0.252,0.468,0.363,0.708c0.05,0.111,0.101,0.224,0.147,0.337
	c0.101,0.243,0.194,0.492,0.275,0.741c0.033,0.102,0.07,0.201,0.1,0.303c0.208,0.698,0.337,1.41,0.385,2.11
	c0.008,0.105,0.008,0.211,0.011,0.315c0.01,0.248,0.009,0.488-0.003,0.73c-0.007,0.117-0.016,0.232-0.024,0.351
	c-0.022,0.233-0.059,0.467-0.101,0.695c-0.016,0.102-0.031,0.202-0.056,0.302c-0.073,0.32-0.161,0.635-0.277,0.933
	c-0.194,0.346-0.438,0.631-0.731,0.835c-0.545,0.381-1.224,0.758-2.016,1.132c-0.776,0.364-1.653,0.722-2.622,1.073
	c-0.606,0.219-1.249,0.434-1.921,0.646c-1.722,0.542-3.647,1.053-5.693,1.52l0.173,0.987l1.254,7.154l2.38,13.585
	c0.548-0.062,1.099-0.119,1.653-0.169c4.221-0.379,8.922-0.563,13.518-0.633V404.49c0-0.743,0.027-1.477,0.068-2.205
	c0.142-2.491,0.516-4.891,1.1-7.154c2.09-8.11,6.817-14.48,12.752-17.129l-3.348-13.216L354.605,331.385z M237.327,252.485
	c-5.508,4.411-14.085,11.234-19.922,15.659c-3.323,2.52-5.761,4.265-6.216,4.325c0,0-4.684,1.103-10.997,2.524
	c-3.465,0.78-7.42,1.656-11.364,2.498l-5.76,38.084l-10.765,35.608l-0.3-0.007l-8.38-0.19l-13.383-0.306l-15.975-0.363
	c0,0-0.15-0.487-0.41-1.334c-1.887-6.134-9.697-31.521-10.337-33.48c-1.99-6.104-3.51-11.713-4.676-16.801l-11.39,12.877
	l-8.176,31.706c-3.576-1.8-6.072-1.644-9.036,1.967c-0.117-8.2-0.432-35.007,0.446-36.376l-0.004-0.002
	c0,0,23.234-48.067,25.712-48.674c0.112-0.027,0.23-0.04,0.347-0.057c1.859-2.892,5.453-3.509,8.172-3.425l12.919-0.037l0.908-6.594
	l23.64-0.07l1.093,6.591l4.925-0.014c0.013-0.018,0.025-0.039,0.038-0.056l5.019,0.042l7.497-0.021
	c0.272,0.008,0.54,0.044,0.806,0.091l20.58,0.171l2.853,0.024l11.225-4.78l15.619-6.651
	C232.594,249.554,233.755,251.82,237.327,252.485z M159.926,325.65l-1.832-52.39h1.584v-8.556l-4.278-2.944l-4.278,2.944v8.556
	h1.585l-1.833,52.39l4.525,2.776L159.926,325.65z"></path>
<path id="color_x5F_1" fill="#e7e9eb" d="M436.113,364.786h-1.262h-4.022h-17.978h-4.568h-4.034h-41.183l-8.461-33.401l-1.287,0.486
	l-1.314-10.186c0.951-0.402,1.897-0.871,2.818-1.449c0.488-0.307,0.969-0.637,1.444-0.986c1.76-1.31,5.046-5.314,5.967-9.5
	c1.181-5.357,3.206-8.53,0.456-8.53c0,0-1.417-0.298-3.634-0.763c10.018-8.755,16.395-21.823,16.395-36.406
	c0-26.298-20.716-47.692-46.178-47.692v4.658c-22.977,0-41.668,19.305-41.668,43.034c0,23.729,18.691,43.035,41.668,43.035v1.677
	c-0.487,1.247-0.861,2.572-1.065,3.978c-0.026,0.182-0.054,0.358-0.086,0.536c-0.231,0.202-0.453,0.427-0.654,0.681
	c-1.364,1.748-3.387,2.868-1.909,4.021c0.329,0.257,0.813,0.49,1.37,0.684c-1.529,5.924-2.921,10.559,2.559,11.355
	c1.718,0.25,3.96,0.097,6.392-0.392l-0.781,9.13l-1.766,0.667l0.955,5.448c0,0-10.261-4.871-6.564,16.206l0.649,3.709H227.858
	h-4.022h-0.471l-0.641-10.396l-1.969-31.931l-3.35-54.315c5.837-4.425,14.414-11.248,19.922-15.659
	c0.67,0.125,1.415,0.2,2.268,0.214c2.774,0.045,6.924-1.991,10.56-4.485c4.112-2.819,7.445-5.918,6.41-7.009
	c-1.754-1.844-6.564,5.474-8.426,3.737c-1.112-1.039,10.336-6.842,8.24-9.327c-1.878-2.229-7.696,6.917-9.322,5.169
	c-1.625-1.748,8.877-7.234,6.885-9.747c-1.993-2.513-8.698,8.656-10.533,7.128s6.937-6.555,4.961-8.882
	c-1.743-2.054-8.29,8.64-11.05,8.13c-2.487-0.46,1.687-5.252-0.392-5.802c-2.617-0.691-5.376,9.329-5.043,12.558
	c0.044,0.434,0.095,0.845,0.149,1.244l-15.619,6.651l-4.639-75.236h212.749l5.236,84.922l4.224,68.497L436.113,364.786z
	 M329.272,229.617v4.659c15.896,0,28.83,13.357,28.83,29.775s-12.934,29.776-28.83,29.776v2.669
	c-0.292,0.563-0.496,1.239-0.618,1.973c-18.1-0.343-32.723-15.644-32.723-34.418C295.932,245.064,310.888,229.617,329.272,229.617z
	 M329.272,245.777c-9.772,0-17.694,8.182-17.694,18.274s7.922,18.274,17.694,18.274c9.771,0,17.693-8.182,17.693-18.274
	S339.044,245.777,329.272,245.777z"></path>
</svg>